<?xml version="1.0" standalone="no"?>
<!DOCTYPE svg PUBLIC "-//W3C//DTD SVG 1.1//EN" "http://www.w3.org/Graphics/SVG/1.1/DTD/svg11.dtd" >
<svg xmlns="http://www.w3.org/2000/svg" xmlns:xlink="http://www.w3.org/1999/xlink" version="1.1">
<metadata>
Created by FontForge 20161003 at Thu Oct 26 10:04:59 2017
 By www-data
Copyright (c) 2012 by [29 Arabic Letters] - Pascal Zoghbi. All rights reserved.
</metadata>
<defs>
<font id="BukraAlt_Bold" horiz-adv-x="0" >
  <font-face 
    font-family="BukraAlt_Bold"
    font-weight="700"
    font-stretch="normal"
    units-per-em="1000"
    panose-1="0 11 9 3 2 2 4 2 2 4"
    ascent="825"
    descent="-175"
    x-height="577"
    cap-height="811"
    bbox="-154 -353 1511 1053"
    underline-thickness="50"
    underline-position="-150"
    unicode-range="U+0020-FEFC"
  />
<missing-glyph horiz-adv-x="500" 
 />
    <glyph glyph-name="uni06440622" unicode="&#xfedf;&#xfe82;" horiz-adv-x="726" arabic-form="isolated" 
d="M77 0l-22 180h283q71 0 107 36q32 32 32 93v576h239v-180h-59v-396q0 -157 -72 -229q-80 -80 -256 -80h-252zM150 228v503h180v-503h-180zM89 776v83h293v-83h-293z" />
    <glyph glyph-name="uni06440622.fina" unicode="&#xfee0;&#xfe82;" horiz-adv-x="749" arabic-form="final" 
d="M77 0l-22 180h283q71 0 107 36q32 32 32 93v576h239v-180h-59v-396q0 -48 -8 -96q42 -33 120 -33v-180q-134 0 -176 89l-8 -9q-80 -80 -256 -80h-252zM150 228v503h180v-503h-180zM91 776v83h293v-83h-293z" />
    <glyph glyph-name="uni06440623" unicode="&#xfedf;&#xfe84;" horiz-adv-x="726" arabic-form="isolated" 
d="M77 0l-22 180h283q71 0 107 36q32 32 32 93v576h239v-180h-59v-396q0 -157 -72 -229q-80 -80 -256 -80h-252zM150 228v503h180v-503h-180zM126 776v49q0 68 34.5 96.5t99.5 28.5h56v-45h-48q-48 0 -48 -46h128v-83h-222z" />
    <glyph glyph-name="uni06440623.fina" unicode="&#xfee0;&#xfe84;" horiz-adv-x="749" arabic-form="final" 
d="M77 0l-22 180h283q71 0 107 36q32 32 32 93v576h239v-180h-59v-396q0 -48 -8 -96q42 -33 120 -33v-180q-134 0 -176 89l-8 -9q-80 -80 -256 -80h-252zM150 228v503h180v-503h-180zM125 776v49q0 68 34.5 96.5t99.5 28.5h56v-45h-48q-48 0 -48 -46h128v-83h-222z" />
    <glyph glyph-name="uni06440625" unicode="&#xfedf;&#xfe88;" horiz-adv-x="726" arabic-form="isolated" 
d="M261 -232q-65 0 -99.5 28.5t-34.5 96.5v49h222v-83h-128q0 -46 48 -46h48v-45h-56zM77 0l-22 180h283q71 0 107 36q32 32 32 93v576h239v-180h-59v-396q0 -157 -72 -229q-80 -80 -256 -80h-252zM150 228v503h180v-503h-180z" />
    <glyph glyph-name="uni06440625.fina" unicode="&#xfee0;&#xfe88;" horiz-adv-x="749" arabic-form="final" 
d="M77 0l-22 180h283q71 0 107 36q32 32 32 93v576h239v-180h-59v-396q0 -48 -8 -96q42 -33 120 -33v-180q-134 0 -176 89l-8 -9q-80 -80 -256 -80h-252zM150 228v503h180v-503h-180zM258 -232q-65 0 -99.5 28.5t-34.5 96.5v49h222v-83h-128q0 -46 48 -46h48v-45h-56z" />
    <glyph glyph-name="uni06440627" unicode="&#xfedf;&#xfe8e;" horiz-adv-x="726" arabic-form="isolated" 
d="M77 0l-22 180h283q71 0 107 36q32 32 32 93v576h239v-180h-59v-396q0 -157 -72 -229q-80 -80 -256 -80h-252zM150 228v503h180v-503h-180z" />
    <glyph glyph-name="uni06440627.fina" unicode="&#xfee0;&#xfe8e;" horiz-adv-x="749" arabic-form="final" 
d="M77 0l-22 180h283q71 0 107 36q32 32 32 93v576h239v-180h-59v-396q0 -48 -8 -96q42 -33 120 -33v-180q-134 0 -176 89l-8 -9q-80 -80 -256 -80h-252zM150 228v503h180v-503h-180z" />
    <glyph glyph-name="uni06440671" unicode="&#xfedf;&#xfb51;" horiz-adv-x="726" 
d="M77 0l-22 180h283q71 0 107 36q32 32 32 93v576h239v-180h-59v-396q0 -157 -72 -229q-80 -80 -256 -80h-252zM150 228v503h180v-503h-180zM77 795v73h75q0 37 25.5 62t68.5 25q58 0 91 -30.5t33 -89.5v-40h-293zM242 910q-19 0 -32 -12t-13 -30h89q0 18 -12.5 30
t-31.5 12z" />
    <glyph glyph-name="uni06440671.fina" unicode="&#xfee0;&#xfb51;" horiz-adv-x="749" 
d="M77 0l-22 180h283q71 0 107 36q32 32 32 93v576h239v-180h-59v-396q0 -48 -8 -96q42 -33 120 -33v-180q-134 0 -176 89l-8 -9q-80 -80 -256 -80h-252zM150 228v503h180v-503h-180zM77 795v73h75q0 37 25.5 62t68.5 25q58 0 91 -30.5t33 -89.5v-40h-293zM242 910
q-19 0 -32 -12t-13 -30h89q0 18 -12.5 30t-31.5 12z" />
    <glyph glyph-name="uni0621" unicode="&#x621;" horiz-adv-x="543" arabic-form="isolated" 
d="M60 0v192q0 164 73 242.5t229 78.5h89v-180h-116q-52 0 -79 -30t-27 -86v-37h266v-180h-435z" />
    <glyph glyph-name="uni0622" unicode="&#x622;" horiz-adv-x="359" arabic-form="isolated" 
d="M115 0v690h180v-690h-180zM60 727v83h293v-83h-293z" />
    <glyph glyph-name="uni0623" unicode="&#x623;" horiz-adv-x="372" arabic-form="isolated" 
d="M126 0v690h180v-690h-180zM105 727v49q0 68 34.5 96.5t99.5 28.5h56v-45h-48q-48 0 -48 -46h128v-83h-222z" />
    <glyph glyph-name="uni0624" unicode="&#x624;" horiz-adv-x="626" arabic-form="isolated" 
d="M284 -220q-64 0 -127 21l-26 179q89 -36 146 -36q52 0 79 12.5t36 43.5q-157 2 -252 74t-95 215q0 138 96 213t252 75h185v-513q0 -138 -66.5 -211t-227.5 -73zM350 634v76q0 68 34.5 96.5t99.5 28.5h66v-45h-58q-48 0 -48 -46v-27h138v-83h-232zM225 289q0 -55 35.5 -82
t91.5 -27h46v217h-40q-55 0 -94 -28t-39 -80z" />
    <glyph glyph-name="uni0625" unicode="&#x625;" horiz-adv-x="366" arabic-form="isolated" 
d="M239 -214q-65 0 -99.5 28.5t-34.5 96.5v49h222v-83h-128q0 -46 48 -46h48v-45h-56zM126 0v811h180v-811h-180z" />
    <glyph glyph-name="uni0626" unicode="&#x626;" horiz-adv-x="1100" arabic-form="isolated" 
d="M35 451v76q0 68 34.5 96.5t99.5 28.5h66v-45h-58q-48 0 -48 -46v-27h138v-83h-232zM397 -125q-172 0 -257 81q-78 75 -78 230v211h180v-187q0 -76 41 -115q41 -40 130 -40h126v223q0 167 95 242q75 57 205 57h206v-577h-180v397h-42q-48 0 -72 -20q-32 -26 -32 -77v-425
h-322z" />
    <glyph glyph-name="uni0627" unicode="&#x627;" horiz-adv-x="357" arabic-form="isolated" 
d="M110 0v811h180v-811h-180z" />
    <glyph glyph-name="uni0628" unicode="&#x628;" horiz-adv-x="891" arabic-form="isolated" 
d="M380 0q-178 0 -265 94q-70 77 -70 224v180h180v-160q0 -75 43 -115q47 -43 138 -43h251v397h180v-577h-457zM486 -216q-42 0 -70.5 23.5t-28.5 66.5q0 39 28 63.5t71 24.5t71 -24.5t28 -63.5q0 -43 -28.5 -66.5t-70.5 -23.5z" />
    <glyph glyph-name="uni0629" unicode="&#x629;" horiz-adv-x="628" arabic-form="isolated" 
d="M573 0h-179q-169 0 -259 73t-90 215q0 137 96 213.5t252 76.5v49h180v-627zM347 180h46v218h-46q-49 0 -85.5 -30.5t-36.5 -79.5q0 -52 34.5 -80t87.5 -28zM244 683q-40 0 -67 22t-27 62q0 38 27 61.5t67 23.5t67 -23.5t27 -61.5q0 -40 -27 -62t-67 -22zM477 683
q-39 0 -66 22t-27 62q0 38 26.5 61.5t66.5 23.5q41 0 67.5 -23.5t26.5 -61.5q0 -40 -27 -62t-67 -22z" />
    <glyph glyph-name="uni062A" unicode="&#x62a;" horiz-adv-x="891" arabic-form="isolated" 
d="M380 0q-178 0 -265 94q-70 77 -70 224v180h180v-160q0 -75 43 -115q47 -43 138 -43h251v397h180v-577h-457zM329 611q-40 0 -67 22t-27 62q0 38 27 61.5t67 23.5t67 -23.5t27 -61.5q0 -40 -27 -62t-67 -22zM562 611q-39 0 -66 22t-27 62q0 38 26.5 61.5t66.5 23.5
q41 0 67.5 -23.5t26.5 -61.5q0 -40 -27 -62t-67 -22z" />
    <glyph glyph-name="uni062B" unicode="&#x62b;" horiz-adv-x="891" arabic-form="isolated" 
d="M380 0q-178 0 -265 94q-70 77 -70 224v180h180v-160q0 -75 43 -115q47 -43 138 -43h251v397h180v-577h-457zM332 604q-38 0 -64 21.5t-26 60.5q0 36 25.5 58.5t64.5 22.5t64.5 -22.5t25.5 -58.5q0 -39 -26 -60.5t-64 -21.5zM445 773q-32 0 -55 18.5t-23 52.5q0 30 22 49
t56 19t56 -19t22 -49q0 -34 -22.5 -52.5t-55.5 -18.5zM558 604q-38 0 -64 21.5t-26 60.5q0 36 25.5 58.5t64.5 22.5t64.5 -22.5t25.5 -58.5q0 -39 -26 -60.5t-64 -21.5z" />
    <glyph glyph-name="uni062C" unicode="&#x62c;" horiz-adv-x="617" arabic-form="isolated" 
d="M112 -220q-90 123 -90 280q0 63 11 120h359q14 40 14 110q0 63 -39 98q-39 37 -107 37q-41 0 -73.5 -10.5t-74.5 -38.5l-65 163q116 65 230 65q135 0 216 -86q93 -102 93 -241q0 -65 -17 -144.5t-36 -132.5h-328v-13q0 -70 45 -148zM401 -216q-42 0 -70.5 23.5
t-28.5 66.5q0 39 28 63.5t71 24.5t71 -24.5t28 -63.5q0 -43 -28.5 -66.5t-70.5 -23.5z" />
    <glyph glyph-name="uni062D" unicode="&#x62d;" horiz-adv-x="617" arabic-form="isolated" 
d="M112 -220q-90 123 -90 280q0 63 11 120h359q14 40 14 110q0 63 -39 98q-39 37 -107 37q-41 0 -73.5 -10.5t-74.5 -38.5l-65 163q116 65 230 65q135 0 216 -86q93 -102 93 -241q0 -65 -17 -144.5t-36 -132.5h-328v-13q0 -70 45 -148z" />
    <glyph glyph-name="uni062E" unicode="&#x62e;" horiz-adv-x="617" arabic-form="isolated" 
d="M243 666q-42 0 -70.5 23t-28.5 66q0 39 28 63.5t71 24.5t71 -24.5t28 -63.5q0 -43 -28.5 -66t-70.5 -23zM112 -220q-90 123 -90 280q0 63 11 120h359q14 40 14 110q0 63 -39 98q-39 37 -107 37q-41 0 -73.5 -10.5t-74.5 -38.5l-65 163q116 65 230 65q135 0 216 -86
q93 -102 93 -241q0 -65 -17 -144.5t-36 -132.5h-328v-13q0 -70 45 -148z" />
    <glyph glyph-name="uni062F" unicode="&#x62f;" horiz-adv-x="573" arabic-form="isolated" 
d="M15 0v180h333v103q0 51 -22 80q-26 34 -79 34h-55v180h38q162 0 234 -83q36 -42 50 -95.5t14 -131.5v-267h-513z" />
    <glyph glyph-name="uni0630" unicode="&#x630;" horiz-adv-x="528" arabic-form="isolated" 
d="M296 634q-42 0 -70.5 23t-28.5 66q0 39 28 63.5t71 24.5t71 -24.5t28 -63.5q0 -43 -28.5 -66t-70.5 -23zM15 0v180h333v103q0 51 -22 80q-26 34 -79 34h-55v180h38q162 0 234 -83q36 -42 50 -95.5t14 -131.5v-267h-513z" />
    <glyph glyph-name="uni0631" unicode="&#x631;" horiz-adv-x="403" arabic-form="isolated" 
d="M106 -220q-32 0 -68 10l-21 179q39 -9 70 -9q35 0 55 23.5t20 68.5v525h180v-503q0 -160 -50 -227t-186 -67z" />
    <glyph glyph-name="uni0632" unicode="&#x632;" horiz-adv-x="403" arabic-form="isolated" 
d="M106 -220q-32 0 -68 10l-21 179q39 -9 70 -9q35 0 55 23.5t20 68.5v525h180v-503q0 -160 -50 -227t-186 -67zM252 644q-42 0 -70.5 23t-28.5 66q0 39 28 63.5t71 24.5t71 -24.5t28 -63.5q0 -43 -28.5 -66t-70.5 -23z" />
    <glyph glyph-name="uni0633" unicode="&#x633;" horiz-adv-x="1450" arabic-form="isolated" 
d="M1023 527v-220q0 -139 107 -139q96 0 96 111v348h180v-326q0 -161 -62.5 -236t-212.5 -75q-140 0 -205 92q-90 -82 -211 -82h-69v-125h-255q-172 0 -257 81q-78 75 -78 230v327h180v-303q0 -76 41 -115q41 -40 130 -40h59v522h180v-397h65q132 0 132 120v227h180z" />
    <glyph glyph-name="uni0634" unicode="&#x634;" horiz-adv-x="1450" arabic-form="isolated" 
d="M1023 527v-220q0 -139 107 -139q96 0 96 111v348h180v-326q0 -161 -62.5 -236t-212.5 -75q-140 0 -205 92q-90 -82 -211 -82h-69v-125h-255q-172 0 -257 81q-78 75 -78 230v327h180v-303q0 -76 41 -115q41 -40 130 -40h59v522h180v-397h65q132 0 132 120v227h180z
M821 652q-38 0 -64 21.5t-26 60.5q0 36 25.5 58.5t64.5 22.5t64.5 -22.5t25.5 -58.5q0 -39 -26 -60.5t-64 -21.5zM1047 652q-38 0 -64 21.5t-26 60.5q0 36 25.5 58.5t64.5 22.5t64.5 -22.5t25.5 -58.5q0 -39 -26 -60.5t-64 -21.5zM934 821q-32 0 -55 18.5t-23 52.5
q0 30 22 49t56 19t56 -19t22 -49q0 -34 -22.5 -52.5t-55.5 -18.5z" />
    <glyph glyph-name="uni0635" unicode="&#x635;" horiz-adv-x="1264" arabic-form="isolated" 
d="M391 -125q-172 0 -257 81q-78 75 -78 230v327h180v-303q0 -76 41 -115q41 -40 130 -40h59v549h180v-70h280q159 0 229 -78q64 -73 64 -216v-240h-573v-125h-255zM937 354h-291v-174h393v74q0 46 -22 71q-26 29 -80 29z" />
    <glyph glyph-name="uni0636" unicode="&#x636;" horiz-adv-x="1264" arabic-form="isolated" 
d="M391 -125q-172 0 -257 81q-78 75 -78 230v327h180v-303q0 -76 41 -115q41 -40 130 -40h59v549h180v-70h280q159 0 229 -78q64 -73 64 -216v-240h-573v-125h-255zM937 354h-291v-174h393v74q0 46 -22 71q-26 29 -80 29zM841 605q-42 0 -70.5 23t-28.5 66q0 39 28 63.5
t71 24.5t71 -24.5t28 -63.5q0 -43 -28.5 -66t-70.5 -23z" />
    <glyph glyph-name="uni0637" unicode="&#x637;" horiz-adv-x="898" arabic-form="isolated" 
d="M11 0v180h91v631h180v-277h278q159 0 229 -78q64 -73 64 -216v-240h-842zM571 354h-289v-174h391v74q0 46 -22 71q-26 29 -80 29z" />
    <glyph glyph-name="uni0638" unicode="&#x638;" horiz-adv-x="898" arabic-form="isolated" 
d="M11 0v180h91v631h180v-277h278q159 0 229 -78q64 -73 64 -216v-240h-842zM571 354h-289v-174h391v74q0 46 -22 71q-26 29 -80 29zM483 605q-42 0 -70.5 23t-28.5 66q0 39 28 63.5t71 24.5t71 -24.5t28 -63.5q0 -43 -28.5 -66t-70.5 -23z" />
    <glyph glyph-name="uni0639" unicode="&#x639;" horiz-adv-x="632" arabic-form="isolated" 
d="M112 -220q-90 123 -90 280q0 63 11 120h67q-34 72 -34 146q0 140 100 220q75 58 195 58q96 0 215 -55l-60 -170q-73 45 -135 45q-56 0 -95 -33q-41 -35 -41 -89q0 -73 36 -122h311v-180h-387v-13q0 -70 45 -148z" />
    <glyph glyph-name="uni063A" unicode="&#x63a;" horiz-adv-x="632" arabic-form="isolated" 
d="M112 -220q-90 123 -90 280q0 63 11 120h67q-34 72 -34 146q0 140 100 220q75 58 195 58q96 0 215 -55l-60 -170q-73 45 -135 45q-56 0 -95 -33q-41 -35 -41 -89q0 -73 36 -122h311v-180h-387v-13q0 -70 45 -148zM345 670q-42 0 -70.5 23t-28.5 66q0 39 28 63.5t71 24.5
t71 -24.5t28 -63.5q0 -43 -28.5 -66t-70.5 -23z" />
    <glyph glyph-name="uni0641" unicode="&#x641;" horiz-adv-x="1086" arabic-form="isolated" 
d="M1032 0h-653q-178 0 -265 94q-70 77 -70 224v180h180v-160q0 -75 43 -115q47 -43 138 -43h128q-29 50 -29 109q0 130 91 209.5t254 79.5h183v-578zM684 289q0 -68 52 -109h116v218h-49q-50 0 -84.5 -30.5t-34.5 -78.5zM819 644q-42 0 -70.5 23t-28.5 66q0 39 28 63.5
t71 24.5t71 -24.5t28 -63.5q0 -43 -28.5 -66t-70.5 -23z" />
    <glyph glyph-name="uni0642" unicode="&#x642;" horiz-adv-x="907" arabic-form="isolated" 
d="M849 -220h-467q-172 0 -257 81q-78 75 -78 230v211h180v-187q0 -76 41 -115q41 -40 130 -40h271v40q-159 0 -256 72.5t-97 216.5q0 138 96 213t252 75h185v-797zM496 289q0 -55 35.5 -82t91.5 -27h46v217h-40q-55 0 -94 -28t-39 -80zM519 644q-40 0 -67 22t-27 62
q0 38 27 61.5t67 23.5t67 -23.5t27 -61.5q0 -40 -27 -62t-67 -22zM752 644q-39 0 -66 22t-27 62q0 38 26.5 61.5t66.5 23.5q41 0 67.5 -23.5t26.5 -61.5q0 -40 -27 -62t-67 -22z" />
    <glyph glyph-name="uni0643" unicode="&#x643;" horiz-adv-x="938" arabic-form="isolated" 
d="M403 0q-178 0 -265 94q-70 77 -70 224v180h180v-160q0 -75 43 -115q47 -43 138 -43h251v631h180v-811h-457zM356 364v76q0 68 34.5 96.5t99.5 28.5h66v-45h-58q-48 0 -48 -46v-27h138v-83h-232z" />
    <glyph glyph-name="uni0644" unicode="&#x644;" horiz-adv-x="732" arabic-form="isolated" 
d="M642 -125h-255q-172 0 -257 81q-78 75 -78 230v327h180v-303q0 -76 41 -115q41 -40 130 -40h60v756h239v-180h-60v-756z" />
    <glyph glyph-name="uni0645" unicode="&#x645;" horiz-adv-x="928" arabic-form="isolated" 
d="M581 -113q-94 0 -173 55t-114 142q-34 -6 -58 -31q-25 -28 -25 -98v-175h-180v161q0 163 66 242q31 38 80 59.5t104 22.5q23 106 107.5 175t192.5 69q130 0 221.5 -91t91.5 -224q0 -127 -93.5 -217t-219.5 -90zM582 67q55 0 93.5 37t38.5 92q0 57 -37.5 95t-94.5 38
q-56 0 -92.5 -38t-36.5 -95q0 -54 37.5 -91.5t91.5 -37.5z" />
    <glyph glyph-name="uni0646" unicode="&#x646;" horiz-adv-x="697" arabic-form="isolated" 
d="M387 -125q-172 0 -257 81q-78 75 -78 230v327h180v-303q0 -76 41 -115q41 -40 130 -40h59v458h180v-638h-255zM350 571q-42 0 -70.5 23t-28.5 66q0 39 28 63.5t71 24.5t71 -24.5t28 -63.5q0 -43 -28.5 -66t-70.5 -23z" />
    <glyph glyph-name="uni0648" unicode="&#x648;" horiz-adv-x="633" arabic-form="isolated" 
d="M284 -220q-64 0 -127 21l-26 179q89 -36 146 -36q52 0 79 12.5t36 43.5q-157 2 -252 74t-95 215q0 138 96 213t252 75h185v-513q0 -138 -66.5 -211t-227.5 -73zM225 289q0 -55 35.5 -82t91.5 -27h46v217h-40q-55 0 -94 -28t-39 -80z" />
    <glyph glyph-name="uni0649" unicode="&#x649;" horiz-adv-x="1081" arabic-form="isolated" 
d="M379 -125q-172 0 -257 81q-78 75 -78 230v211h180v-187q0 -76 41 -115q41 -40 130 -40h126v223q0 167 95 242q75 57 205 57h206v-577h-180v397h-42q-48 0 -72 -20q-32 -26 -32 -77v-425h-322z" />
    <glyph glyph-name="uni064A" unicode="&#x64a;" horiz-adv-x="1081" arabic-form="isolated" 
d="M379 -125q-172 0 -257 81q-78 75 -78 230v211h180v-187q0 -76 41 -115q41 -40 130 -40h126v223q0 167 95 242q75 57 205 57h206v-577h-180v397h-42q-48 0 -72 -20q-32 -26 -32 -77v-425h-322zM335 -326q-40 0 -67 22t-27 63q0 38 27 61t67 23t67 -23t27 -61
q0 -41 -27 -63t-67 -22zM568 -326q-39 0 -66 22t-27 63q0 38 26.5 61t66.5 23q41 0 67.5 -23t26.5 -61q0 -41 -27 -63t-67 -22z" />
    <glyph glyph-name="uni066E.init" unicode="&#x66e;" horiz-adv-x="349" 
d="M0 0v180h114v397h180v-577h-294z" />
    <glyph glyph-name="uni066E.medi" unicode="&#x66e;" horiz-adv-x="372" 
d="M0 0v180h114v397h180v-397h97v-180h-391z" />
    <glyph glyph-name="uni066E.fina" unicode="&#x66e;" horiz-adv-x="914" 
d="M380 0q-178 0 -265 94q-70 77 -70 224v180h180v-160q0 -75 43 -115q47 -43 138 -43h251v397h180v-397h96v-180h-553z" />
    <glyph glyph-name="uni066F.init" unicode="&#x66f;" horiz-adv-x="664" 
d="M0 0v180h121q-29 50 -29 109q0 130 91 209.5t254 79.5h183v-578h-620zM272 289q0 -68 52 -109h116v218h-49q-50 0 -84.5 -30.5t-34.5 -78.5z" />
    <glyph glyph-name="uni066F.medi" unicode="&#x66f;" horiz-adv-x="688" 
d="M0 0v180h121q-29 50 -29 109q0 130 91 209.5t254 79.5h183v-398h87v-180h-707zM272 289q0 -68 52 -109h116v218h-49q-50 0 -84.5 -30.5t-34.5 -78.5z" />
    <glyph glyph-name="uni066F.fina" unicode="&#x66f;" horiz-adv-x="927" 
d="M849 -220h-467q-172 0 -257 81q-78 75 -78 230v211h180v-187q0 -76 41 -115q41 -40 130 -40h271v40q-159 0 -256 72.5t-97 216.5q0 138 96 213t252 75h185v-397h97v-180h-97v-220zM496 289q0 -55 35.5 -82t91.5 -27h46v217h-40q-55 0 -94 -28t-39 -80z" />
    <glyph glyph-name="uni0671" unicode="&#x671;" horiz-adv-x="356" arabic-form="isolated" 
d="M115 0v690h180v-690h-180zM60 727v73h75q0 37 25.5 62t68.5 25q58 0 91 -30.5t33 -89.5v-40h-293zM225 842q-19 0 -32 -12t-13 -30h89q0 18 -12.5 30t-31.5 12z" />
    <glyph glyph-name="uni0679" unicode="&#x679;" horiz-adv-x="938" arabic-form="isolated" 
d="M380 0q-178 0 -265 94q-70 77 -70 224v180h180v-160q0 -75 43 -115q47 -43 138 -43h251v397h180v-577h-457zM414 817v-51h51q58 0 91 -30.5t33 -89.5v-40h-293v73h52v138h66zM465 721h-51v-42h91q0 19 -10.5 30.5t-29.5 11.5z" />
    <glyph glyph-name="uni067E" unicode="&#x67e;" horiz-adv-x="891" arabic-form="isolated" 
d="M380 0q-178 0 -265 94q-70 77 -70 224v180h180v-160q0 -75 43 -115q47 -43 138 -43h251v397h180v-577h-457zM389 -206q-38 0 -64 21.5t-26 60.5q0 36 25.5 58.5t64.5 22.5t64.5 -22.5t25.5 -58.5q0 -39 -26 -60.5t-64 -21.5zM502 -346q-32 0 -55 18.5t-23 51.5
q0 31 22 50t56 19t56 -19t22 -50q0 -34 -22.5 -52t-55.5 -18zM615 -206q-38 0 -64 21.5t-26 60.5q0 36 25.5 58.5t64.5 22.5t64.5 -22.5t25.5 -58.5q0 -39 -26 -60.5t-64 -21.5z" />
    <glyph glyph-name="uni0686" unicode="&#x686;" horiz-adv-x="648" arabic-form="isolated" 
d="M533 0h-501q-10 32 -10 82q0 41 11 98h359q14 40 14 110q0 63 -39 98q-39 37 -107 37q-41 0 -73.5 -10.5t-74.5 -38.5l-65 163q116 65 230 65q135 0 216 -86q93 -102 93 -241q0 -65 -17 -144.5t-36 -132.5zM165 -206q-38 0 -64 21.5t-26 60.5q0 36 25.5 58.5t64.5 22.5
t64.5 -22.5t25.5 -58.5q0 -39 -26 -60.5t-64 -21.5zM278 -346q-32 0 -55 18.5t-23 51.5q0 31 22 50t56 19t56 -19t22 -50q0 -34 -22.5 -52t-55.5 -18zM391 -206q-38 0 -64 21.5t-26 60.5q0 36 25.5 58.5t64.5 22.5t64.5 -22.5t25.5 -58.5q0 -39 -26 -60.5t-64 -21.5z" />
    <glyph glyph-name="uni0688" unicode="&#x688;" horiz-adv-x="528" arabic-form="isolated" 
d="M15 0v180h333v103q0 51 -22 80q-26 34 -79 34h-55v180h38q162 0 234 -83q36 -42 50 -95.5t14 -131.5v-267h-513zM217 860v-51h51q58 0 91 -30.5t33 -89.5v-40h-293v73h52v138h66zM268 764h-51v-42h91q0 19 -10.5 30.5t-29.5 11.5z" />
    <glyph glyph-name="uni0691" unicode="&#x691;" horiz-adv-x="458" arabic-form="isolated" 
d="M106 -220q-32 0 -68 10l-21 179q39 -9 70 -9q35 0 55 23.5t20 68.5v525h180v-503q0 -160 -50 -227t-186 -67zM219 863v-51h51q58 0 91 -30.5t33 -89.5v-40h-293v73h52v138h66zM270 767h-51v-42h91q0 19 -10.5 30.5t-29.5 11.5z" />
    <glyph glyph-name="uni0698" unicode="&#x698;" horiz-adv-x="458" arabic-form="isolated" 
d="M106 -220q-32 0 -68 10l-21 179q39 -9 70 -9q35 0 55 23.5t20 68.5v525h180v-503q0 -160 -50 -227t-186 -67zM157 642q-38 0 -64 21.5t-26 60.5q0 36 25.5 58.5t64.5 22.5t64.5 -22.5t25.5 -58.5q0 -39 -26 -60.5t-64 -21.5zM270 811q-32 0 -55 18.5t-23 52.5q0 30 22 49
t56 19t56 -19t22 -49q0 -34 -22.5 -52.5t-55.5 -18.5zM383 642q-38 0 -64 21.5t-26 60.5q0 36 25.5 58.5t64.5 22.5t64.5 -22.5t25.5 -58.5q0 -39 -26 -60.5t-64 -21.5z" />
    <glyph glyph-name="uni06A1.init" unicode="&#x6a1;" horiz-adv-x="664" 
d="M0 0v180h121q-29 50 -29 109q0 130 91 209.5t254 79.5h183v-578h-620zM272 289q0 -68 52 -109h116v218h-49q-50 0 -84.5 -30.5t-34.5 -78.5z" />
    <glyph glyph-name="uni06A1.medi" unicode="&#x6a1;" horiz-adv-x="688" 
d="M0 0v180h121q-29 50 -29 109q0 130 91 209.5t254 79.5h183v-398h87v-180h-707zM272 289q0 -68 52 -109h116v218h-49q-50 0 -84.5 -30.5t-34.5 -78.5z" />
    <glyph glyph-name="uni06A1.fina" unicode="&#x6a1;" horiz-adv-x="1148" 
d="M1152 0h-750q-178 0 -265 94q-70 77 -70 224v180h180v-160q0 -75 43 -115q47 -43 138 -43h128q-29 50 -29 109q0 130 91 209.5t254 79.5h183v-398h97v-180zM707 289q0 -68 52 -109h116v218h-49q-50 0 -84.5 -30.5t-34.5 -78.5z" />
    <glyph glyph-name="uni06A4" unicode="&#x6a4;" horiz-adv-x="1086" arabic-form="isolated" 
d="M1032 0h-653q-178 0 -265 94q-70 77 -70 224v180h180v-160q0 -75 43 -115q47 -43 138 -43h128q-29 50 -29 109q0 130 91 209.5t254 79.5h183v-578zM684 289q0 -68 52 -109h116v218h-49q-50 0 -84.5 -30.5t-34.5 -78.5zM707 652q-38 0 -64 21.5t-26 60.5q0 36 25.5 58.5
t64.5 22.5t64.5 -22.5t25.5 -58.5q0 -39 -26 -60.5t-64 -21.5zM933 652q-38 0 -64 21.5t-26 60.5q0 36 25.5 58.5t64.5 22.5t64.5 -22.5t25.5 -58.5q0 -39 -26 -60.5t-64 -21.5zM820 821q-32 0 -55 18.5t-23 52.5q0 30 22 49t56 19t56 -19t22 -49q0 -34 -22.5 -52.5
t-55.5 -18.5z" />
    <glyph glyph-name="uni06A9" unicode="&#x6a9;" horiz-adv-x="1064" arabic-form="isolated" 
d="M1016 0h-635q-176 0 -263 94q-72 78 -72 226v179h180v-160q0 -77 44 -116q47 -43 137 -43h429v74q0 46 -21 73q-26 31 -74 31h-308q-57 79 -58 179l143 274h220l-160 -273h137q141 0 216 -71q85 -77 85 -240v-227z" />
    <glyph glyph-name="uni06AF" unicode="&#x6af;" horiz-adv-x="1110" arabic-form="isolated" 
d="M479 812l-150 -274h-85l150 274h85zM1016 0h-635q-176 0 -263 94q-72 78 -72 226v179h180v-160q0 -77 44 -116q47 -43 137 -43h429v74q0 46 -21 73q-26 31 -74 31h-308q-57 79 -58 179l143 274h220l-160 -273h137q141 0 216 -71q85 -77 85 -240v-227z" />
    <glyph glyph-name="uni06BA" unicode="&#x6ba;" horiz-adv-x="697" arabic-form="isolated" 
d="M387 -125q-172 0 -257 81q-78 75 -78 230v327h180v-303q0 -76 41 -115q41 -40 130 -40h59v458h180v-638h-255z" />
    <glyph glyph-name="uni06BE" unicode="&#x6be;" horiz-adv-x="864" arabic-form="isolated" 
d="M45 0v180h103q-5 23 -5 49q0 104 55.5 162t152.5 58q105 0 156 -59t51 -160q0 -12 -5 -50h62q7 28 7 69q0 125 -58 193q-66 77 -184 77q-63 0 -107 -12.5t-111 -48.5l-65 158q82 41 153.5 63t155.5 22q211 0 316 -145q85 -118 85 -307q0 -118 -36 -249h-726zM283 234
q0 -26 4 -54h126q5 25 5 54q0 38 -18 61.5t-49 23.5t-49.5 -23.5t-18.5 -61.5z" />
    <glyph glyph-name="uni06C0" unicode="&#x6c0;" horiz-adv-x="649" arabic-form="isolated" 
d="M394 0q-169 0 -259 73t-90 215q0 137 96 213.5t252 76.5v49h180v-627h-179zM362 701v76q0 68 34.5 96.5t99.5 28.5h66v-45h-58q-48 0 -48 -46v-27h138v-83h-232zM347 180h46v218h-46q-49 0 -85.5 -30.5t-36.5 -79.5q0 -52 34.5 -80t87.5 -28z" />
    <glyph glyph-name="uni06C1" unicode="&#x6c1;" horiz-adv-x="628" arabic-form="isolated" 
d="M394 0q-169 0 -259 73t-90 215q0 137 96 213.5t252 76.5v49h180v-627h-179zM347 180h46v218h-46q-49 0 -85.5 -30.5t-36.5 -79.5q0 -52 34.5 -80t87.5 -28z" />
    <glyph glyph-name="uni06CC" unicode="&#x6cc;" horiz-adv-x="1127" arabic-form="isolated" 
d="M379 -125q-172 0 -257 81q-78 75 -78 230v211h180v-187q0 -76 41 -115q41 -40 130 -40h126v223q0 167 95 242q75 57 205 57h206v-577h-180v397h-42q-48 0 -72 -20q-32 -26 -32 -77v-425h-322z" />
    <glyph glyph-name="uni06D2" unicode="&#x6d2;" horiz-adv-x="1018" arabic-form="isolated" 
d="M932 0h-894v182q0 150 69 226q74 84 232 84h41q28 0 45 15t17 43v39h180v-44q0 -127 -58.5 -180t-172.5 -53h-73q-56 0 -79 -31q-22 -26 -22 -84v-17h715v-180z" />
    <glyph glyph-name="uni06D3" unicode="&#x6d3;" horiz-adv-x="1070" arabic-form="isolated" 
d="M932 0h-894v182q0 150 69 226q74 84 232 84h41q28 0 45 15t17 43v39h180v-44q0 -127 -58.5 -180t-172.5 -53h-73q-56 0 -79 -31q-22 -26 -22 -84v-17h715v-180zM183 613v76q0 68 34.5 96.5t99.5 28.5h66v-45h-58q-48 0 -48 -46v-27h138v-83h-232z" />
    <glyph glyph-name="uni06D5.fina" unicode="&#x6d5;" horiz-adv-x="651" 
d="M394 0q-169 0 -259 73t-90 215q0 137 96 213.5t252 76.5v49h180v-447h98v-180h-277zM347 180h46v218h-46q-49 0 -85.5 -30.5t-36.5 -79.5q0 -52 34.5 -80t87.5 -28z" />
    <glyph glyph-name="uni0671.fina" unicode="&#x671;" horiz-adv-x="386" arabic-form="final" 
d="M116 0v690h180v-510h110v-180h-290zM60 727v73h75q0 37 25.5 62t68.5 25q58 0 91 -30.5t33 -89.5v-40h-293zM225 842q-19 0 -32 -12t-13 -30h89q0 18 -12.5 30t-31.5 12z" />
    <glyph glyph-name="uni067E.fina" unicode="&#x67e;" horiz-adv-x="914" arabic-form="final" 
d="M380 0q-178 0 -265 94q-70 77 -70 224v180h180v-160q0 -75 43 -115q47 -43 138 -43h251v397h180v-397h96v-180h-553zM608 -206q-38 0 -64 21.5t-26 60.5q0 36 25.5 58.5t64.5 22.5t64.5 -22.5t25.5 -58.5q0 -39 -26 -60.5t-64 -21.5zM382 -206q-38 0 -64 21.5t-26 60.5
q0 36 25.5 58.5t64.5 22.5t64.5 -22.5t25.5 -58.5q0 -39 -26 -60.5t-64 -21.5zM495 -346q-32 0 -55 18.5t-23 51.5q0 31 22 50t56 19t56 -19t22 -50q0 -34 -22.5 -52t-55.5 -18z" />
    <glyph glyph-name="uni067E.init" unicode="&#x67e;" horiz-adv-x="470" arabic-form="initial" 
d="M135 -206q-38 0 -64 21.5t-26 60.5q0 36 25.5 58.5t64.5 22.5t64.5 -22.5t25.5 -58.5q0 -39 -26 -60.5t-64 -21.5zM248 -346q-32 0 -55 18.5t-23 51.5q0 31 22 50t56 19t56 -19t22 -50q0 -34 -22.5 -52t-55.5 -18zM361 -206q-38 0 -64 21.5t-26 60.5q0 36 25.5 58.5
t64.5 22.5t64.5 -22.5t25.5 -58.5q0 -39 -26 -60.5t-64 -21.5zM0 0v180h214v397h180v-577h-394z" />
    <glyph glyph-name="uni067E.medi" unicode="&#x67e;" horiz-adv-x="545" arabic-form="medial" 
d="M0 0v180h214v397h180v-397h171v-180h-565zM174 -206q-38 0 -64 21.5t-26 60.5q0 36 25.5 58.5t64.5 22.5t64.5 -22.5t25.5 -58.5q0 -39 -26 -60.5t-64 -21.5zM400 -206q-38 0 -64 21.5t-26 60.5q0 36 25.5 58.5t64.5 22.5t64.5 -22.5t25.5 -58.5q0 -39 -26 -60.5
t-64 -21.5zM287 -346q-32 0 -55 18.5t-23 51.5q0 31 22 50t56 19t56 -19t22 -50q0 -34 -22.5 -52t-55.5 -18z" />
    <glyph glyph-name="uni0679.fina" unicode="&#x679;" horiz-adv-x="953" arabic-form="final" 
d="M380 0q-178 0 -265 94q-70 77 -70 224v180h180v-160q0 -75 43 -115q47 -43 138 -43h251v397h180v-397h97v-180h-554zM414 817v-51h51q58 0 91 -30.5t33 -89.5v-40h-293v73h52v138h66zM465 721h-51v-42h91q0 19 -10.5 30.5t-29.5 11.5z" />
    <glyph glyph-name="uni0679.init" unicode="&#x679;" horiz-adv-x="497" arabic-form="initial" 
d="M0 0v180h214v397h180v-577h-394zM278 863v-51h51q58 0 91 -30.5t33 -89.5v-40h-293v73h52v138h66zM329 767h-51v-42h91q0 19 -10.5 30.5t-29.5 11.5z" />
    <glyph glyph-name="uni0679.medi" unicode="&#x679;" horiz-adv-x="565" arabic-form="medial" 
d="M0 0v180h214v397h180v-397h171v-180h-565zM278 863v-51h51q58 0 91 -30.5t33 -89.5v-40h-293v73h52v138h66zM329 767h-51v-42h91q0 19 -10.5 30.5t-29.5 11.5z" />
    <glyph glyph-name="uni06A4.fina" unicode="&#x6a4;" horiz-adv-x="1109" arabic-form="final" 
d="M1128 0h-749q-178 0 -265 94q-70 77 -70 224v180h180v-160q0 -75 43 -115q47 -43 138 -43h128q-29 50 -29 109q0 130 91 209.5t254 79.5h183v-398h96v-180zM684 289q0 -68 52 -109h116v218h-49q-50 0 -84.5 -30.5t-34.5 -78.5zM708 652q-38 0 -64 21.5t-26 60.5
q0 36 25.5 58.5t64.5 22.5t64.5 -22.5t25.5 -58.5q0 -39 -26 -60.5t-64 -21.5zM934 652q-38 0 -64 21.5t-26 60.5q0 36 25.5 58.5t64.5 22.5t64.5 -22.5t25.5 -58.5q0 -39 -26 -60.5t-64 -21.5zM821 821q-32 0 -55 18.5t-23 52.5q0 30 22 49t56 19t56 -19t22 -49
q0 -34 -22.5 -52.5t-55.5 -18.5z" />
    <glyph glyph-name="uni06A4.init" unicode="&#x6a4;" horiz-adv-x="664" arabic-form="initial" 
d="M0 0v180h121q-29 50 -29 109q0 130 91 209.5t254 79.5h183v-578h-620zM272 289q0 -68 52 -109h116v218h-49q-50 0 -84.5 -30.5t-34.5 -78.5zM287 652q-38 0 -64 21.5t-26 60.5q0 36 25.5 58.5t64.5 22.5t64.5 -22.5t25.5 -58.5q0 -39 -26 -60.5t-64 -21.5zM513 652
q-38 0 -64 21.5t-26 60.5q0 36 25.5 58.5t64.5 22.5t64.5 -22.5t25.5 -58.5q0 -39 -26 -60.5t-64 -21.5zM400 821q-32 0 -55 18.5t-23 52.5q0 30 22 49t56 19t56 -19t22 -49q0 -34 -22.5 -52.5t-55.5 -18.5z" />
    <glyph glyph-name="uni06A4.medi" unicode="&#x6a4;" horiz-adv-x="687" arabic-form="medial" 
d="M0 0v180h121q-29 50 -29 109q0 130 91 209.5t254 79.5h183v-398h86v-180h-706zM272 289q0 -68 52 -109h116v218h-49q-50 0 -84.5 -30.5t-34.5 -78.5zM286 652q-38 0 -64 21.5t-26 60.5q0 36 25.5 58.5t64.5 22.5t64.5 -22.5t25.5 -58.5q0 -39 -26 -60.5t-64 -21.5z
M512 652q-38 0 -64 21.5t-26 60.5q0 36 25.5 58.5t64.5 22.5t64.5 -22.5t25.5 -58.5q0 -39 -26 -60.5t-64 -21.5zM399 821q-32 0 -55 18.5t-23 52.5q0 30 22 49t56 19t56 -19t22 -49q0 -34 -22.5 -52.5t-55.5 -18.5z" />
    <glyph glyph-name="uni0686.fina" unicode="&#x686;" horiz-adv-x="670" arabic-form="final" 
d="M670 0h-638q-10 32 -10 82q0 41 11 98h359q14 40 14 110q0 63 -39 98q-39 37 -107 37q-41 0 -73.5 -10.5t-74.5 -38.5l-65 163q116 65 230 65q135 0 216 -86q93 -102 93 -241q0 -38 -9 -97h93v-180zM391 -206q-38 0 -64 21.5t-26 60.5q0 36 25.5 58.5t64.5 22.5
t64.5 -22.5t25.5 -58.5q0 -39 -26 -60.5t-64 -21.5zM165 -206q-38 0 -64 21.5t-26 60.5q0 36 25.5 58.5t64.5 22.5t64.5 -22.5t25.5 -58.5q0 -39 -26 -60.5t-64 -21.5zM278 -346q-32 0 -55 18.5t-23 51.5q0 31 22 50t56 19t56 -19t22 -50q0 -34 -22.5 -52t-55.5 -18z" />
    <glyph glyph-name="uni0686.init" unicode="&#x686;" horiz-adv-x="656" arabic-form="initial" 
d="M0 0v180h406q14 40 14 110q0 63 -39 98q-39 37 -107 37q-41 0 -73.5 -10.5t-74.5 -38.5l-65 163q116 65 230 65q135 0 216 -86q93 -102 93 -241q0 -65 -17 -144.5t-36 -132.5h-547zM188 -206q-38 0 -64 21.5t-26 60.5q0 36 25.5 58.5t64.5 22.5t64.5 -22.5t25.5 -58.5
q0 -39 -26 -60.5t-64 -21.5zM301 -346q-32 0 -55 18.5t-23 51.5q0 31 22 50t56 19t56 -19t22 -50q0 -34 -22.5 -52t-55.5 -18zM414 -206q-38 0 -64 21.5t-26 60.5q0 36 25.5 58.5t64.5 22.5t64.5 -22.5t25.5 -58.5q0 -39 -26 -60.5t-64 -21.5z" />
    <glyph glyph-name="uni0686.medi" unicode="&#x686;" horiz-adv-x="680" arabic-form="medial" 
d="M0 0v180h406q14 40 14 110q0 63 -39 98q-39 37 -107 37q-41 0 -73.5 -10.5t-74.5 -38.5l-65 163q116 65 230 65q135 0 216 -86q93 -102 93 -241q0 -38 -9 -97h100v-180h-691zM414 -206q-38 0 -64 21.5t-26 60.5q0 36 25.5 58.5t64.5 22.5t64.5 -22.5t25.5 -58.5
q0 -39 -26 -60.5t-64 -21.5zM188 -206q-38 0 -64 21.5t-26 60.5q0 36 25.5 58.5t64.5 22.5t64.5 -22.5t25.5 -58.5q0 -39 -26 -60.5t-64 -21.5zM301 -346q-32 0 -55 18.5t-23 51.5q0 31 22 50t56 19t56 -19t22 -50q0 -34 -22.5 -52t-55.5 -18z" />
    <glyph glyph-name="uni0688.fina" unicode="&#x688;" horiz-adv-x="610" arabic-form="final" 
d="M15 0v180h333v103q0 51 -22 80q-26 34 -79 34h-55v180h38q162 0 234 -83q36 -42 50 -95.5t14 -131.5v-87h102v-180h-615zM217 860v-51h51q58 0 91 -30.5t33 -89.5v-40h-293v73h52v138h66zM268 764h-51v-42h91q0 19 -10.5 30.5t-29.5 11.5z" />
    <glyph glyph-name="uni0698.fina" unicode="&#x698;" horiz-adv-x="473" arabic-form="final" 
d="M106 -220q-32 0 -68 10l-21 179q39 -9 70 -9q35 0 55 23.5t20 68.5v525h180v-397h97v-180h-100q-9 -117 -61 -168.5t-172 -51.5zM383 642q-38 0 -64 21.5t-26 60.5q0 36 25.5 58.5t64.5 22.5t64.5 -22.5t25.5 -58.5q0 -39 -26 -60.5t-64 -21.5zM157 642q-38 0 -64 21.5
t-26 60.5q0 36 25.5 58.5t64.5 22.5t64.5 -22.5t25.5 -58.5q0 -39 -26 -60.5t-64 -21.5zM270 811q-32 0 -55 18.5t-23 52.5q0 30 22 49t56 19t56 -19t22 -49q0 -34 -22.5 -52.5t-55.5 -18.5z" />
    <glyph glyph-name="uni0691.fina" unicode="&#x691;" horiz-adv-x="473" arabic-form="final" 
d="M106 -220q-32 0 -68 10l-21 179q39 -9 70 -9q35 0 55 23.5t20 68.5v525h180v-397h97v-180h-100q-9 -117 -61 -168.5t-172 -51.5zM216 863v-51h51q58 0 91 -30.5t33 -89.5v-40h-293v73h52v138h66zM267 767h-51v-42h91q0 19 -10.5 30.5t-29.5 11.5z" />
    <glyph glyph-name="uni06A9.fina" unicode="&#x6a9;" horiz-adv-x="1129" arabic-form="final" 
d="M381 0q-176 0 -263 94q-72 78 -72 226v179h180v-160q0 -77 44 -116q47 -43 137 -43h429v74q0 46 -21 73q-26 31 -74 31h-308q-57 79 -58 179l143 274h220l-160 -273h137q141 0 216 -71q85 -77 85 -240v-47h97v-180h-732z" />
    <glyph glyph-name="uni06A9.init" unicode="&#x6a9;" horiz-adv-x="831" arabic-form="initial" 
d="M501 357h-417q-55 76 -58 179l146 275h220l-169 -274h267q159 0 229 -78q64 -73 64 -216v-243h-783v180h603v77q0 46 -22 71q-26 29 -80 29z" />
    <glyph glyph-name="uni06A9.medi" unicode="&#x6a9;" horiz-adv-x="860" arabic-form="medial" 
d="M501 357h-417q-55 76 -58 179l146 275h220l-169 -274h267q159 0 229 -78q64 -73 64 -216v-63h96v-180h-879v180h603v77q0 46 -22 71q-26 29 -80 29z" />
    <glyph glyph-name="uni06AF.fina" unicode="&#x6af;" horiz-adv-x="1129" arabic-form="final" 
d="M381 0q-176 0 -263 94q-72 78 -72 226v179h180v-160q0 -77 44 -116q47 -43 137 -43h429v74q0 46 -21 73q-26 31 -74 31h-308q-57 79 -58 179l143 274h220l-160 -273h137q141 0 216 -71q85 -77 85 -240v-47h97v-180h-732zM479 812l-150 -274h-85l150 274h85z" />
    <glyph glyph-name="uni06AF.init" unicode="&#x6af;" horiz-adv-x="956" arabic-form="initial" 
d="M237 812l-150 -274h-85l150 274h85zM601 357h-417q-55 76 -58 179l146 275h220l-169 -274h267q159 0 229 -78q64 -73 64 -216v-243h-883v180h703v77q0 46 -22 71q-26 29 -80 29z" />
    <glyph glyph-name="uni06AF.medi" unicode="&#x6af;" horiz-adv-x="975" arabic-form="medial" 
d="M0 0v180h703v77q0 46 -22 71q-26 29 -80 29h-417q-55 76 -58 179l146 275h220l-169 -274h267q159 0 229 -78q64 -73 64 -216v-63h98v-180h-981zM237 812l-150 -274h-85l150 274h85z" />
    <glyph glyph-name="uni06BA.fina" unicode="&#x6ba;" horiz-adv-x="720" arabic-form="final" 
d="M387 -125q-172 0 -257 81q-78 75 -78 230v327h180v-303q0 -76 41 -115q41 -40 130 -40h59v458h180v-333h97v-180h-97v-125h-255z" />
    <glyph glyph-name="uni06C0.fina" unicode="&#x6c0;" horiz-adv-x="652" arabic-form="final" 
d="M573 180h99v-180h-278q-169 0 -259 73t-90 215q0 137 96 213.5t252 76.5v49h180v-447zM362 701v76q0 68 34.5 96.5t99.5 28.5h66v-45h-58q-48 0 -48 -46v-27h138v-83h-232zM347 180h46v218h-46q-49 0 -85.5 -30.5t-36.5 -79.5q0 -52 34.5 -80t87.5 -28z" />
    <glyph glyph-name="uni06C1.fina" unicode="&#x6c1;" horiz-adv-x="616" arabic-form="final" 
d="M636 0h-273v400h-41q-46 0 -72 -22q-31 -23 -31 -75v-166h-180v140q0 167 96 242q77 59 214 59h194v-398h93v-180z" />
    <glyph glyph-name="uni06C1.init" unicode="&#x6c1;" horiz-adv-x="480" arabic-form="initial" 
d="M268 -224l-133 4l53 175l190 -4zM0 0v180h214v397h180v-577h-394z" />
    <glyph glyph-name="uni06C1.medi" unicode="&#x6c1;" horiz-adv-x="936" arabic-form="medial" 
d="M782 -220h-133l53 175h190zM590 -220h-189q-149 0 -225 53q-34 25 -56 66t-22 91v10h-98v180h98v277h180v-461q0 -49 32 -75q27 -21 70 -21h30v280h546v-180h-366v-220z" />
    <glyph glyph-name="uni06BE.fina" unicode="&#x6be;" horiz-adv-x="888" arabic-form="final" 
d="M45 0v180h103q-5 23 -5 49q0 104 55.5 162t152.5 58q105 0 156 -59t51 -160q0 -12 -5 -50h62q7 28 7 69q0 125 -58 193q-66 77 -184 77q-63 0 -107 -12.5t-111 -48.5l-65 158q82 41 153.5 63t155.5 22q211 0 316 -145q85 -118 85 -307q0 -19 -4 -69h98v-180h-856z
M283 234q0 -26 4 -54h126q5 25 5 54q0 38 -18 61.5t-49 23.5t-49.5 -23.5t-18.5 -61.5z" />
    <glyph glyph-name="uni06BE.init" unicode="&#x6be;" horiz-adv-x="819" arabic-form="initial" 
d="M0 0v180h103q-5 23 -5 49q0 104 55.5 162t152.5 58q105 0 156 -59t51 -160q0 -25 -5 -50h62q7 28 7 69q0 125 -58 193q-66 77 -184 77q-63 0 -107 -12.5t-111 -48.5l-65 158q82 41 153.5 63t155.5 22q211 0 316 -145q85 -118 85 -307q0 -118 -36 -249h-726zM238 234
q0 -26 4 -54h126q5 25 5 54q0 38 -18 61.5t-49 23.5t-49.5 -23.5t-18.5 -61.5z" />
    <glyph glyph-name="uni06BE.medi" unicode="&#x6be;" horiz-adv-x="843" arabic-form="medial" 
d="M0 0v180h103q-5 23 -5 49q0 104 55.5 162t152.5 58q105 0 156 -59t51 -160q0 -25 -5 -50h62q7 28 7 69q0 125 -58 193q-66 77 -184 77q-63 0 -107 -12.5t-111 -48.5l-65 158q82 41 153.5 63t155.5 22q211 0 316 -145q85 -118 85 -307q0 -19 -4 -69h98v-180h-856zM238 234
q0 -26 4 -54h126q5 25 5 54q0 38 -18 61.5t-49 23.5t-49.5 -23.5t-18.5 -61.5z" />
    <glyph glyph-name="uni06D2.fina" unicode="&#x6d2;" horiz-adv-x="835" arabic-form="final" 
d="M855 180v-180h-643q0 -47 27 -73q29 -27 81 -27h320v-120h-315q-156 0 -232 86q-62 69 -62 224v90h824z" />
    <glyph glyph-name="uni06D3.fina" unicode="&#x6d3;" horiz-adv-x="920" arabic-form="final" 
d="M855 180v-180h-643q0 -47 27 -73q29 -27 81 -27h320v-120h-315q-156 0 -232 86q-62 69 -62 224v90h824zM22 258v76q0 68 34.5 96.5t99.5 28.5h66v-45h-58q-48 0 -48 -46v-27h138v-83h-232z" />
    <glyph glyph-name="uni0649.init" unicode="&#x649;" horiz-adv-x="349" arabic-form="initial" 
d="M0 0v180h114v397h180v-577h-294z" />
    <glyph glyph-name="uni0649.medi" unicode="&#x649;" horiz-adv-x="372" arabic-form="medial" 
d="M0 0v180h114v397h180v-397h97v-180h-391z" />
    <glyph glyph-name="uni06CC.fina" unicode="&#x6cc;" horiz-adv-x="1142" arabic-form="final" 
d="M847 0v397h-42q-48 0 -72 -20q-32 -26 -32 -77v-425h-322q-172 0 -257 81q-78 75 -78 230v211h180v-187q0 -76 41 -115q41 -40 130 -40h126v223q0 167 95 242q75 57 205 57h206v-397h99v-180h-279z" />
    <glyph glyph-name="uni06CC.init" unicode="&#x6cc;" horiz-adv-x="472" arabic-form="initial" 
d="M125 -216q-40 0 -67 22t-27 63q0 38 27 61t67 23t67 -23t27 -61q0 -41 -27 -63t-67 -22zM358 -216q-39 0 -66 22t-27 63q0 38 26.5 61t66.5 23q41 0 67.5 -23t26.5 -61q0 -41 -27 -63t-67 -22zM0 0v180h214v397h180v-577h-394z" />
    <glyph glyph-name="uni06CC.medi" unicode="&#x6cc;" horiz-adv-x="545" arabic-form="medial" 
d="M0 0v180h214v397h180v-397h171v-180h-565zM170 -216q-40 0 -67 22t-27 63q0 38 27 61t67 23t67 -23t27 -61q0 -41 -27 -63t-67 -22zM403 -216q-39 0 -66 22t-27 63q0 38 26.5 61t66.5 23q41 0 67.5 -23t26.5 -61q0 -41 -27 -63t-67 -22z" />
    <glyph glyph-name="uni0651064C" unicode="&#xfc5e;" arabic-form="isolated" 
d="M-110 165l-44 112l54 21l25 -69l41 7q-5 17 -5 29q0 36 21 62t63 26q36 0 58 -23.5t22 -61.5q0 -35 -6 -66zM-38 0q-62 0 -75 66l-12 60l56 11l11 -57q5 -25 24 -25q26 0 26 37q0 1 -7 55l56 8l11 -58q5 -21 23 -21q24 0 24 25q0 27 -15 68l57 13q13 -56 13 -76
q0 -41 -22 -62.5t-61 -21.5q-26 0 -42 20q-23 -42 -67 -42zM10 266q0 -13 3 -22l54 9q2 6 2 13q0 13 -7.5 21.5t-21.5 8.5q-12 0 -21 -8.5t-9 -21.5z" />
    <glyph glyph-name="uni0651064D" unicode="&#xfc5f;" arabic-form="isolated" 
d="M-53 164q-62 0 -75 66l-12 60l56 11l11 -57q5 -25 24 -25q26 0 26 37q0 1 -7 55l56 8l11 -58q5 -21 23 -21q24 0 24 25q0 27 -15 68l57 13q13 -56 13 -76q0 -41 -22 -62.5t-61 -21.5q-26 0 -42 20q-23 -42 -67 -42zM-84 0v55l224 32v-55zM-85 88v55l224 32v-55z" />
    <glyph glyph-name="uni0651064E" unicode="&#xfc60;" arabic-form="isolated" 
d="M-52 0q-62 0 -75 66l-12 60l56 11l11 -57q5 -25 24 -25q26 0 26 37q0 1 -7 55l56 8l11 -58q5 -21 23 -21q24 0 24 25q0 27 -15 68l57 13q13 -56 13 -76q0 -41 -22 -62.5t-61 -21.5q-26 0 -42 20q-23 -42 -67 -42zM-125 196v58l224 32v-58z" />
    <glyph glyph-name="uni0651064F" unicode="&#xfc61;" arabic-form="isolated" 
d="M-115 176l-7 55l76 13q-5 17 -5 29q0 36 21 62t63 26q36 0 58 -23.5t22 -61.5q0 -35 -6 -66zM-52 0q-62 0 -75 66l-12 60l56 11l11 -57q5 -25 24 -25q26 0 26 37q0 1 -7 55l56 8l11 -58q5 -21 23 -21q24 0 24 25q0 27 -15 68l57 13q13 -56 13 -76q0 -41 -22 -62.5
t-61 -21.5q-26 0 -42 20q-23 -42 -67 -42zM-2 274q0 -13 3 -22l54 9q2 6 2 13q0 13 -7.5 21.5t-21.5 8.5q-12 0 -21 -8.5t-9 -21.5z" />
    <glyph glyph-name="uni06510650" unicode="&#xfc62;" arabic-form="isolated" 
d="M-52 91q-62 0 -75 66l-12 60l56 11l11 -57q5 -25 24 -25q26 0 26 37q0 1 -7 55l56 8l11 -58q5 -21 23 -21q24 0 24 25q0 28 -15 68l57 13q13 -56 13 -76q0 -41 -22 -62.5t-61 -21.5q-26 0 -42 20q-23 -42 -67 -42zM-85 0v58l224 32v-58z" />
    <glyph glyph-name="uni06510670" unicode="&#xfc63;" arabic-form="isolated" 
d="M-52 0q-62 0 -75 66l-12 60l56 11l11 -57q5 -25 24 -25q26 0 26 37q0 1 -7 55l56 8l11 -58q5 -21 23 -21q24 0 24 25q0 27 -15 68l57 13q13 -56 13 -76q0 -41 -22 -62.5t-61 -21.5q-26 0 -42 20q-23 -42 -67 -42zM-40 203v195h64v-186z" />
    <glyph glyph-name="uniFE70" unicode="&#xfe70;" arabic-form="isolated" 
d="M-16 713v55l224 32v-55zM-17 801v55l224 32v-55z" />
    <glyph glyph-name="uniFE72" unicode="&#xfe72;" arabic-form="isolated" 
d="M13 705l-44 112l54 21l25 -69l41 7q-5 17 -5 29q0 36 21 62t63 26q36 0 58 -23.5t22 -61.5q0 -35 -6 -66zM133 806q0 -13 3 -22l54 9q2 6 2 13q0 13 -7.5 21.5t-21.5 8.5q-12 0 -21 -8.5t-9 -21.5z" />
    <glyph glyph-name="uniFE74" unicode="&#xfe74;" arabic-form="isolated" 
d="M-16 -233v55l224 32v-55zM-17 -145v55l224 32v-55z" />
    <glyph glyph-name="uniFE76" unicode="&#xfe76;" arabic-form="isolated" 
d="M-11 691v58l224 32v-58z" />
    <glyph glyph-name="uniFE78" unicode="&#xfe78;" arabic-form="isolated" 
d="M-12 708l-7 55l76 13q-5 17 -5 29q0 36 21 62t63 26q36 0 58 -23.5t22 -61.5q0 -35 -6 -66zM101 806q0 -13 3 -22l54 9q2 6 2 13q0 13 -7.5 21.5t-21.5 8.5q-12 0 -21 -8.5t-9 -21.5z" />
    <glyph glyph-name="uniFE7A" unicode="&#xfe7a;" arabic-form="isolated" 
d="M-11 -230v58l224 32v-58z" />
    <glyph glyph-name="uniFE7C" unicode="&#xfe7c;" arabic-form="isolated" 
d="M42 694q-62 0 -75 66l-12 60l56 11l11 -57q5 -25 24 -25q26 0 26 37q0 1 -7 55l56 8l11 -58q5 -21 23 -21q24 0 24 25q0 27 -15 68l57 13q13 -56 13 -76q0 -41 -22 -62.5t-61 -21.5q-26 0 -42 20q-23 -42 -67 -42z" />
    <glyph glyph-name="uniFE7E" unicode="&#xfe7e;" arabic-form="isolated" 
d="M63 697q-83 0 -83 93q0 44 25 69.5t65 25.5q41 0 63.5 -25.5t22.5 -69.5q0 -43 -26 -68t-67 -25zM67 752q33 0 33 37q0 40 -33 40q-12 0 -22 -9.5t-10 -28.5q0 -39 32 -39z" />
    <glyph glyph-name="uni0622.fina" unicode="&#x622;" horiz-adv-x="387" arabic-form="final" 
d="M117 0v690h180v-510h110v-180h-290zM60 727v83h293v-83h-293z" />
    <glyph glyph-name="uni0623.fina" unicode="&#x623;" horiz-adv-x="397" arabic-form="final" 
d="M105 727v49q0 68 34.5 96.5t99.5 28.5h56v-45h-48q-48 0 -48 -46h128v-83h-222zM127 0v690h180v-510h110v-180h-290z" />
    <glyph glyph-name="uni0624.fina" unicode="&#x624;" horiz-adv-x="646" arabic-form="final" 
d="M284 -220q-64 0 -127 21l-26 179q89 -36 146 -36q52 0 79 12.5t36 43.5q-157 2 -252 74t-95 215q0 138 96 213t252 75h185v-397h87v-180h-91q-13 -107 -81 -163.5t-209 -56.5zM350 635v76q0 68 34.5 96.5t99.5 28.5h66v-45h-58q-48 0 -48 -46v-27h138v-83h-232zM225 289
q0 -55 35.5 -82t91.5 -27h46v217h-40q-55 0 -94 -28t-39 -80z" />
    <glyph glyph-name="uni0625.fina" unicode="&#x625;" horiz-adv-x="395" arabic-form="final" 
d="M239 -214q-65 0 -99.5 28.5t-34.5 96.5v49h222v-83h-128q0 -46 48 -46h48v-45h-56zM124 0v811h180v-631h111v-180h-291z" />
    <glyph glyph-name="uni0626.fina" unicode="&#x626;" horiz-adv-x="1123" arabic-form="final" 
d="M397 -125q-172 0 -257 81q-78 75 -78 230v211h180v-187q0 -76 41 -115q41 -40 130 -40h126v223q0 167 95 242q75 57 205 57h206v-397h97v-180h-277v397h-42q-48 0 -72 -20q-32 -26 -32 -77v-425h-322zM35 451v76q0 68 34.5 96.5t99.5 28.5h66v-45h-58q-48 0 -48 -46v-27
h138v-83h-232z" />
    <glyph glyph-name="uni0626.init" unicode="&#x626;" horiz-adv-x="349" arabic-form="initial" 
d="M85 634v76q0 68 34.5 96.5t99.5 28.5h66v-45h-58q-48 0 -48 -46v-27h138v-83h-232zM0 0v180h114v397h180v-577h-294z" />
    <glyph glyph-name="uni0626.medi" unicode="&#x626;" horiz-adv-x="372" arabic-form="medial" 
d="M0 0v180h114v397h180v-397h97v-180h-391zM84 634v76q0 68 34.5 96.5t99.5 28.5h66v-45h-58q-48 0 -48 -46v-27h138v-83h-232z" />
    <glyph glyph-name="uni0627.fina" unicode="&#x627;" horiz-adv-x="381" arabic-form="final" 
d="M110 0v811h180v-631h111v-180h-291z" />
    <glyph glyph-name="uni0628.fina" unicode="&#x628;" horiz-adv-x="914" arabic-form="final" 
d="M380 0q-178 0 -265 94q-70 77 -70 224v180h180v-160q0 -75 43 -115q47 -43 138 -43h251v397h180v-397h96v-180h-553zM493 -216q-42 0 -70.5 23.5t-28.5 66.5q0 39 28 63.5t71 24.5t71 -24.5t28 -63.5q0 -43 -28.5 -66.5t-70.5 -23.5z" />
    <glyph glyph-name="uni0628.init" unicode="&#x628;" horiz-adv-x="349" arabic-form="initial" 
d="M208 -216q-42 0 -70.5 23.5t-28.5 66.5q0 39 28 63.5t71 24.5t71 -24.5t28 -63.5q0 -43 -28.5 -66.5t-70.5 -23.5zM0 0v180h114v397h180v-577h-294z" />
    <glyph glyph-name="uni0628.medi" unicode="&#x628;" horiz-adv-x="372" arabic-form="medial" 
d="M0 0v180h114v397h180v-397h97v-180h-391zM205 -216q-42 0 -70.5 23.5t-28.5 66.5q0 39 28 63.5t71 24.5t71 -24.5t28 -63.5q0 -43 -28.5 -66.5t-70.5 -23.5z" />
    <glyph glyph-name="uni0629.fina" unicode="&#x629;" horiz-adv-x="640" arabic-form="final" 
d="M394 0q-169 0 -259 73t-90 215q0 137 96 213.5t252 76.5v49h180v-447h87v-180h-266zM347 180h46v218h-46q-49 0 -85.5 -30.5t-36.5 -79.5q0 -52 34.5 -80t87.5 -28zM244 683q-40 0 -67 22t-27 62q0 38 27 61.5t67 23.5t67 -23.5t27 -61.5q0 -40 -27 -62t-67 -22zM477 683
q-39 0 -66 22t-27 62q0 38 26.5 61.5t66.5 23.5q41 0 67.5 -23.5t26.5 -61.5q0 -40 -27 -62t-67 -22z" />
    <glyph glyph-name="uni062A.fina" unicode="&#x62a;" horiz-adv-x="914" arabic-form="final" 
d="M380 0q-178 0 -265 94q-70 77 -70 224v180h180v-160q0 -75 43 -115q47 -43 138 -43h251v397h180v-397h96v-180h-553zM336 611q-40 0 -67 22t-27 62q0 38 27 61.5t67 23.5t67 -23.5t27 -61.5q0 -40 -27 -62t-67 -22zM569 611q-39 0 -66 22t-27 62q0 38 26.5 61.5
t66.5 23.5q41 0 67.5 -23.5t26.5 -61.5q0 -40 -27 -62t-67 -22z" />
    <glyph glyph-name="uni062A.init" unicode="&#x62a;" horiz-adv-x="470" arabic-form="initial" 
d="M0 0v180h214v397h180v-577h-394zM182 644q-40 0 -67 22t-27 62q0 38 27 61.5t67 23.5t67 -23.5t27 -61.5q0 -40 -27 -62t-67 -22zM415 644q-39 0 -66 22t-27 62q0 38 26.5 61.5t66.5 23.5q41 0 67.5 -23.5t26.5 -61.5q0 -40 -27 -62t-67 -22z" />
    <glyph glyph-name="uni062A.medi" unicode="&#x62a;" horiz-adv-x="545" arabic-form="medial" 
d="M0 0v180h214v397h180v-397h171v-180h-565zM181 644q-40 0 -67 22t-27 62q0 38 27 61.5t67 23.5t67 -23.5t27 -61.5q0 -40 -27 -62t-67 -22zM414 644q-39 0 -66 22t-27 62q0 38 26.5 61.5t66.5 23.5q41 0 67.5 -23.5t26.5 -61.5q0 -40 -27 -62t-67 -22z" />
    <glyph glyph-name="uni062B.fina" unicode="&#x62b;" horiz-adv-x="914" arabic-form="final" 
d="M380 0q-178 0 -265 94q-70 77 -70 224v180h180v-160q0 -75 43 -115q47 -43 138 -43h251v397h180v-397h96v-180h-553zM567 619q-38 0 -64 21.5t-26 60.5q0 36 25.5 58.5t64.5 22.5t64.5 -22.5t25.5 -58.5q0 -39 -26 -60.5t-64 -21.5zM341 619q-38 0 -64 21.5t-26 60.5
q0 36 25.5 58.5t64.5 22.5t64.5 -22.5t25.5 -58.5q0 -39 -26 -60.5t-64 -21.5zM454 788q-32 0 -55 18.5t-23 52.5q0 30 22 49t56 19t56 -19t22 -49q0 -34 -22.5 -52.5t-55.5 -18.5z" />
    <glyph glyph-name="uni062B.init" unicode="&#x62b;" horiz-adv-x="470" arabic-form="initial" 
d="M180 652q-38 0 -64 21.5t-26 60.5q0 36 25.5 58.5t64.5 22.5t64.5 -22.5t25.5 -58.5q0 -39 -26 -60.5t-64 -21.5zM293 821q-32 0 -55 18.5t-23 52.5q0 30 22 49t56 19t56 -19t22 -49q0 -34 -22.5 -52.5t-55.5 -18.5zM406 652q-38 0 -64 21.5t-26 60.5q0 36 25.5 58.5
t64.5 22.5t64.5 -22.5t25.5 -58.5q0 -39 -26 -60.5t-64 -21.5zM0 0v180h214v397h180v-577h-394z" />
    <glyph glyph-name="uni062B.medi" unicode="&#x62b;" horiz-adv-x="545" arabic-form="medial" 
d="M0 0v180h214v397h180v-397h171v-180h-565zM181 652q-38 0 -64 21.5t-26 60.5q0 36 25.5 58.5t64.5 22.5t64.5 -22.5t25.5 -58.5q0 -39 -26 -60.5t-64 -21.5zM407 652q-38 0 -64 21.5t-26 60.5q0 36 25.5 58.5t64.5 22.5t64.5 -22.5t25.5 -58.5q0 -39 -26 -60.5t-64 -21.5
zM294 821q-32 0 -55 18.5t-23 52.5q0 30 22 49t56 19t56 -19t22 -49q0 -34 -22.5 -52.5t-55.5 -18.5z" />
    <glyph glyph-name="uni062C.fina" unicode="&#x62c;" horiz-adv-x="643" arabic-form="final" 
d="M112 -220q-90 123 -90 280q0 63 11 120h359q14 40 14 110q0 63 -39 98q-39 37 -107 37q-41 0 -73.5 -10.5t-74.5 -38.5l-65 163q116 65 230 65q135 0 216 -86q93 -102 93 -241q0 -38 -9 -97h85v-180h-457v-13q0 -70 45 -148zM417 -216q-42 0 -70.5 23.5t-28.5 66.5
q0 39 28 63.5t71 24.5t71 -24.5t28 -63.5q0 -43 -28.5 -66.5t-70.5 -23.5z" />
    <glyph glyph-name="uni062C.init" unicode="&#x62c;" horiz-adv-x="632" arabic-form="initial" 
d="M0 0v180h406q14 40 14 110q0 63 -39 98q-39 37 -107 37q-41 0 -73.5 -10.5t-74.5 -38.5l-65 163q116 65 230 65q135 0 216 -86q93 -102 93 -241q0 -65 -17 -144.5t-36 -132.5h-547zM274 -216q-42 0 -70.5 23.5t-28.5 66.5q0 39 28 63.5t71 24.5t71 -24.5t28 -63.5
q0 -43 -28.5 -66.5t-70.5 -23.5z" />
    <glyph glyph-name="uni062C.medi" unicode="&#x62c;" horiz-adv-x="659" arabic-form="medial" 
d="M0 0v180h406q14 40 14 110q0 63 -39 98q-39 37 -107 37q-41 0 -73.5 -10.5t-74.5 -38.5l-65 163q116 65 230 65q135 0 216 -86q93 -102 93 -241q0 -38 -9 -97h87v-180h-678zM274 -216q-42 0 -70.5 23.5t-28.5 66.5q0 39 28 63.5t71 24.5t71 -24.5t28 -63.5
q0 -43 -28.5 -66.5t-70.5 -23.5z" />
    <glyph glyph-name="uni062D.fina" unicode="&#x62d;" horiz-adv-x="643" arabic-form="final" 
d="M205 0v-13q0 -70 45 -148l-138 -59q-90 123 -90 280q0 63 11 120h359q14 40 14 110q0 63 -39 98q-39 37 -107 37q-41 0 -73.5 -10.5t-74.5 -38.5l-65 163q116 65 230 65q135 0 216 -86q93 -102 93 -241q0 -38 -9 -97h85v-180h-457z" />
    <glyph glyph-name="uni062D.init" unicode="&#x62d;" horiz-adv-x="632" arabic-form="initial" 
d="M0 0v180h406q14 40 14 110q0 63 -39 98q-39 37 -107 37q-41 0 -73.5 -10.5t-74.5 -38.5l-65 163q116 65 230 65q135 0 216 -86q93 -102 93 -241q0 -65 -17 -144.5t-36 -132.5h-547z" />
    <glyph glyph-name="uni062D.medi" unicode="&#x62d;" horiz-adv-x="659" arabic-form="medial" 
d="M0 0v180h406q14 40 14 110q0 63 -39 98q-39 37 -107 37q-41 0 -73.5 -10.5t-74.5 -38.5l-65 163q116 65 230 65q135 0 216 -86q93 -102 93 -241q0 -38 -9 -97h87v-180h-678z" />
    <glyph glyph-name="uni062E.fina" unicode="&#x62e;" horiz-adv-x="643" arabic-form="final" 
d="M112 -220q-90 123 -90 280q0 63 11 120h359q14 40 14 110q0 63 -39 98q-39 37 -107 37q-41 0 -73.5 -10.5t-74.5 -38.5l-65 163q116 65 230 65q135 0 216 -86q93 -102 93 -241q0 -38 -9 -97h85v-180h-457v-13q0 -70 45 -148zM241 666q-42 0 -70.5 23t-28.5 66
q0 39 28 63.5t71 24.5t71 -24.5t28 -63.5q0 -43 -28.5 -66t-70.5 -23z" />
    <glyph glyph-name="uni062E.init" unicode="&#x62e;" horiz-adv-x="632" arabic-form="initial" 
d="M0 0v180h406q14 40 14 110q0 63 -39 98q-39 37 -107 37q-41 0 -73.5 -10.5t-74.5 -38.5l-65 163q116 65 230 65q135 0 216 -86q93 -102 93 -241q0 -65 -17 -144.5t-36 -132.5h-547zM261 670q-42 0 -70.5 23t-28.5 66q0 39 28 63.5t71 24.5t71 -24.5t28 -63.5
q0 -43 -28.5 -66t-70.5 -23z" />
    <glyph glyph-name="uni062E.medi" unicode="&#x62e;" horiz-adv-x="659" arabic-form="medial" 
d="M0 0v180h406q14 40 14 110q0 63 -39 98q-39 37 -107 37q-41 0 -73.5 -10.5t-74.5 -38.5l-65 163q116 65 230 65q135 0 216 -86q93 -102 93 -241q0 -38 -9 -97h87v-180h-678zM261 670q-42 0 -70.5 23t-28.5 66q0 39 28 63.5t71 24.5t71 -24.5t28 -63.5q0 -43 -28.5 -66
t-70.5 -23z" />
    <glyph glyph-name="uni062F.fina" unicode="&#x62f;" horiz-adv-x="610" arabic-form="final" 
d="M15 0v180h333v103q0 51 -22 80q-26 34 -79 34h-55v180h38q162 0 234 -83q36 -42 50 -95.5t14 -131.5v-87h102v-180h-615z" />
    <glyph glyph-name="uni0630.fina" unicode="&#x630;" horiz-adv-x="610" arabic-form="final" 
d="M15 0v180h333v103q0 51 -22 80q-26 34 -79 34h-55v180h38q162 0 234 -83q36 -42 50 -95.5t14 -131.5v-87h102v-180h-615zM296 634q-42 0 -70.5 23t-28.5 66q0 39 28 63.5t71 24.5t71 -24.5t28 -63.5q0 -43 -28.5 -66t-70.5 -23z" />
    <glyph glyph-name="uni0631.fina" unicode="&#x631;" horiz-adv-x="425" arabic-form="final" 
d="M106 -220q-32 0 -68 10l-21 179q39 -9 70 -9q35 0 55 23.5t20 68.5v525h180v-400l1 3h102v-180h-106q-9 -117 -61 -168.5t-172 -51.5z" />
    <glyph glyph-name="uni0632.fina" unicode="&#x632;" horiz-adv-x="425" arabic-form="final" 
d="M106 -220q-32 0 -68 10l-21 179q39 -9 70 -9q35 0 55 23.5t20 68.5v525h180v-400l1 3h102v-180h-106q-9 -117 -61 -168.5t-172 -51.5zM253 644q-42 0 -70.5 23t-28.5 66q0 39 28 63.5t71 24.5t71 -24.5t28 -63.5q0 -43 -28.5 -66t-70.5 -23z" />
    <glyph glyph-name="uni0633.fina" unicode="&#x633;" horiz-adv-x="1483" arabic-form="final" 
d="M1023 527v-227q3 -132 107 -132q96 0 96 111v348h180v-326q0 -51 -6 -95q40 -26 111 -26v-180q-91 0 -156 80q-63 -90 -224 -90q-140 0 -205 92q-90 -82 -211 -82h-69v-125h-255q-172 0 -257 81q-78 75 -78 230v327h180v-303q0 -76 41 -115q41 -40 130 -40h59v522h180
v-397h65q132 0 132 120v227h180z" />
    <glyph glyph-name="uni0633.init" unicode="&#x633;" horiz-adv-x="1185" arabic-form="initial" 
d="M0 0v180h201v347h180v-347h65q132 0 132 120v227h180v-220q0 -139 107 -139q96 0 96 111v348h180v-326q0 -161 -62.5 -236t-212.5 -75q-140 0 -205 92q-90 -82 -211 -82h-450z" />
    <glyph glyph-name="uni0633.medi" unicode="&#x633;" horiz-adv-x="1229" arabic-form="medial" 
d="M758 527v-227q3 -132 107 -132q96 0 96 111v348h180v-326q0 -50 -6 -92q42 -29 115 -29v-180q-92 0 -158 83q-63 -93 -226 -93q-140 0 -205 92q-90 -82 -211 -82h-450v180h201v347h180v-347h65q132 0 132 120v227h180z" />
    <glyph glyph-name="uni0634.fina" unicode="&#x634;" horiz-adv-x="1483" arabic-form="final" 
d="M1023 527v-220q0 -139 107 -139q96 0 96 111v348h180v-326q0 -51 -6 -95q40 -26 111 -26v-180q-91 0 -156 80q-63 -90 -224 -90q-140 0 -205 92q-90 -82 -211 -82h-69v-125h-255q-172 0 -257 81q-78 75 -78 230v327h180v-303q0 -76 41 -115q41 -40 130 -40h59v522h180
v-397h65q132 0 132 120v227h180zM1047 652q-38 0 -64 21.5t-26 60.5q0 36 25.5 58.5t64.5 22.5t64.5 -22.5t25.5 -58.5q0 -39 -26 -60.5t-64 -21.5zM821 652q-38 0 -64 21.5t-26 60.5q0 36 25.5 58.5t64.5 22.5t64.5 -22.5t25.5 -58.5q0 -39 -26 -60.5t-64 -21.5zM934 821
q-32 0 -55 18.5t-23 52.5q0 30 22 49t56 19t56 -19t22 -49q0 -34 -22.5 -52.5t-55.5 -18.5z" />
    <glyph glyph-name="uni0634.init" unicode="&#x634;" horiz-adv-x="1185" arabic-form="initial" 
d="M0 0v180h201v347h180v-347h65q132 0 132 120v227h180v-220q0 -139 107 -139q96 0 96 111v348h180v-326q0 -161 -62.5 -236t-212.5 -75q-140 0 -205 92q-90 -82 -211 -82h-450zM555 652q-38 0 -64 21.5t-26 60.5q0 36 25.5 58.5t64.5 22.5t64.5 -22.5t25.5 -58.5
q0 -39 -26 -60.5t-64 -21.5zM781 652q-38 0 -64 21.5t-26 60.5q0 36 25.5 58.5t64.5 22.5t64.5 -22.5t25.5 -58.5q0 -39 -26 -60.5t-64 -21.5zM668 821q-32 0 -55 18.5t-23 52.5q0 30 22 49t56 19t56 -19t22 -49q0 -34 -22.5 -52.5t-55.5 -18.5z" />
    <glyph glyph-name="uni0634.medi" unicode="&#x634;" horiz-adv-x="1228" arabic-form="medial" 
d="M758 527v-227q3 -132 107 -132q96 0 96 111v348h180v-326q0 -50 -6 -92q42 -29 115 -29v-180q-92 0 -158 83q-63 -93 -226 -93q-140 0 -205 92q-90 -82 -211 -82h-450v180h201v347h180v-347h65q132 0 132 120v227h180zM778 652q-38 0 -64 21.5t-26 60.5q0 36 25.5 58.5
t64.5 22.5t64.5 -22.5t25.5 -58.5q0 -39 -26 -60.5t-64 -21.5zM552 652q-38 0 -64 21.5t-26 60.5q0 36 25.5 58.5t64.5 22.5t64.5 -22.5t25.5 -58.5q0 -39 -26 -60.5t-64 -21.5zM665 821q-32 0 -55 18.5t-23 52.5q0 30 22 49t56 19t56 -19t22 -49q0 -34 -22.5 -52.5
t-55.5 -18.5z" />
    <glyph glyph-name="uni0635.fina" unicode="&#x635;" horiz-adv-x="1296" arabic-form="final" 
d="M646 0v-125h-255q-172 0 -257 81q-78 75 -78 230v327h180v-303q0 -76 41 -115q41 -40 130 -40h59v549h180v-70h280q159 0 229 -78q64 -73 64 -216v-60h96v-180h-669zM937 354h-291v-174h393v74q0 46 -22 71q-26 29 -80 29z" />
    <glyph glyph-name="uni0635.init" unicode="&#x635;" horiz-adv-x="887" arabic-form="initial" 
d="M0 0v180h91v424h180v-70h278q159 0 229 -78q64 -73 64 -216v-240h-842zM560 354h-289v-174h391v74q0 46 -22 71q-26 29 -80 29z" />
    <glyph glyph-name="uni0635.medi" unicode="&#x635;" horiz-adv-x="920" arabic-form="medial" 
d="M0 0v180h91v424h180v-70h278q159 0 229 -78q64 -73 64 -216v-60h97v-180h-939zM560 354h-289v-174h391v74q0 46 -22 71q-26 29 -80 29z" />
    <glyph glyph-name="uni0636.fina" unicode="&#x636;" horiz-adv-x="1296" arabic-form="final" 
d="M391 -125q-172 0 -257 81q-78 75 -78 230v327h180v-303q0 -76 41 -115q41 -40 130 -40h59v549h180v-70h280q159 0 229 -78q64 -73 64 -216v-60h96v-180h-669v-125h-255zM937 354h-291v-174h393v74q0 46 -22 71q-26 29 -80 29zM837 605q-42 0 -70.5 23t-28.5 66
q0 39 28 63.5t71 24.5t71 -24.5t28 -63.5q0 -43 -28.5 -66t-70.5 -23z" />
    <glyph glyph-name="uni0636.init" unicode="&#x636;" horiz-adv-x="887" arabic-form="initial" 
d="M0 0v180h91v424h180v-70h278q159 0 229 -78q64 -73 64 -216v-240h-842zM560 354h-289v-174h391v74q0 46 -22 71q-26 29 -80 29zM468 605q-42 0 -70.5 23t-28.5 66q0 39 28 63.5t71 24.5t71 -24.5t28 -63.5q0 -43 -28.5 -66t-70.5 -23z" />
    <glyph glyph-name="uni0636.medi" unicode="&#x636;" horiz-adv-x="920" arabic-form="medial" 
d="M0 0v180h91v424h180v-70h278q159 0 229 -78q64 -73 64 -216v-60h97v-180h-939zM560 354h-289v-174h391v74q0 46 -22 71q-26 29 -80 29zM468 605q-42 0 -70.5 23t-28.5 66q0 39 28 63.5t71 24.5t71 -24.5t28 -63.5q0 -43 -28.5 -66t-70.5 -23z" />
    <glyph glyph-name="uni0637.fina" unicode="&#x637;" horiz-adv-x="931" arabic-form="final" 
d="M11 0v180h91v631h180v-277h278q159 0 229 -78q64 -73 64 -216v-60h97v-180h-939zM571 354h-289v-174h391v74q0 46 -22 71q-26 29 -80 29z" />
    <glyph glyph-name="uni0637.init" unicode="&#x637;" horiz-adv-x="887" arabic-form="initial" 
d="M0 0v180h91v631h180v-277h278q159 0 229 -78q64 -73 64 -216v-240h-842zM560 354h-289v-174h391v74q0 46 -22 71q-26 29 -80 29z" />
    <glyph glyph-name="uni0637.medi" unicode="&#x637;" horiz-adv-x="920" arabic-form="medial" 
d="M0 0v180h91v631h180v-277h278q159 0 229 -78q64 -73 64 -216v-60h97v-180h-939zM560 354h-289v-174h391v74q0 46 -22 71q-26 29 -80 29z" />
    <glyph glyph-name="uni0638.fina" unicode="&#x638;" horiz-adv-x="931" arabic-form="final" 
d="M11 0v180h91v631h180v-277h278q159 0 229 -78q64 -73 64 -216v-60h97v-180h-939zM571 354h-289v-174h391v74q0 46 -22 71q-26 29 -80 29zM483 605q-42 0 -70.5 23t-28.5 66q0 39 28 63.5t71 24.5t71 -24.5t28 -63.5q0 -43 -28.5 -66t-70.5 -23z" />
    <glyph glyph-name="uni0638.init" unicode="&#x638;" horiz-adv-x="887" arabic-form="initial" 
d="M0 0v180h91v631h180v-277h278q159 0 229 -78q64 -73 64 -216v-240h-842zM560 354h-289v-174h391v74q0 46 -22 71q-26 29 -80 29zM472 605q-42 0 -70.5 23t-28.5 66q0 39 28 63.5t71 24.5t71 -24.5t28 -63.5q0 -43 -28.5 -66t-70.5 -23z" />
    <glyph glyph-name="uni0638.medi" unicode="&#x638;" horiz-adv-x="920" arabic-form="medial" 
d="M0 0v180h91v631h180v-277h278q159 0 229 -78q64 -73 64 -216v-60h97v-180h-939zM560 354h-289v-174h391v74q0 46 -22 71q-26 29 -80 29zM472 605q-42 0 -70.5 23t-28.5 66q0 39 28 63.5t71 24.5t71 -24.5t28 -63.5q0 -43 -28.5 -66t-70.5 -23z" />
    <glyph glyph-name="uni0639.fina" unicode="&#x639;" horiz-adv-x="746" arabic-form="final" 
d="M125 -220q-90 123 -90 280q0 63 11 120h132l-108 282q139 162 320 162q176 0 321 -162l-103 -282h158v-180h-548v-13q0 -70 45 -148zM390 439q-58 0 -115 -51l80 -208h73l78 208q-56 51 -116 51z" />
    <glyph glyph-name="uni0639.init" unicode="&#x639;" horiz-adv-x="645" arabic-form="initial" 
d="M0 0v180h98q-34 72 -34 146q0 140 100 220q75 58 195 58q96 0 215 -55l-60 -170q-73 45 -135 45q-56 0 -95 -33q-41 -35 -41 -89q0 -73 36 -122h309v-180h-588z" />
    <glyph glyph-name="uni0639.medi" unicode="&#x639;" horiz-adv-x="712" arabic-form="medial" 
d="M0 0v180h144l-108 282q139 162 320 162q176 0 321 -162l-103 -282h158v-180h-732zM356 439q-58 0 -115 -51l80 -208h73l78 208q-56 51 -116 51z" />
    <glyph glyph-name="uni063A.fina" unicode="&#x63a;" horiz-adv-x="746" arabic-form="final" 
d="M125 -220q-90 123 -90 280q0 63 11 120h132l-108 282q139 162 320 162q176 0 321 -162l-103 -282h158v-180h-548v-13q0 -70 45 -148zM390 439q-58 0 -115 -51l80 -208h73l78 208q-56 51 -116 51zM389 690q-42 0 -70.5 23t-28.5 66q0 39 28 63.5t71 24.5t71 -24.5
t28 -63.5q0 -43 -28.5 -66t-70.5 -23z" />
    <glyph glyph-name="uni063A.init" unicode="&#x63a;" horiz-adv-x="645" arabic-form="initial" 
d="M0 0v180h98q-34 72 -34 146q0 140 100 220q75 58 195 58q96 0 215 -55l-60 -170q-73 45 -135 45q-56 0 -95 -33q-41 -35 -41 -89q0 -73 36 -122h309v-180h-588zM335 670q-42 0 -70.5 23t-28.5 66q0 39 28 63.5t71 24.5t71 -24.5t28 -63.5q0 -43 -28.5 -66t-70.5 -23z" />
    <glyph glyph-name="uni063A.medi" unicode="&#x63a;" horiz-adv-x="712" arabic-form="medial" 
d="M0 0v180h144l-108 282q139 162 320 162q176 0 321 -162l-103 -282h158v-180h-732zM356 439q-58 0 -115 -51l80 -208h73l78 208q-56 51 -116 51zM354 690q-42 0 -70.5 23t-28.5 66q0 39 28 63.5t71 24.5t71 -24.5t28 -63.5q0 -43 -28.5 -66t-70.5 -23z" />
    <glyph glyph-name="uni0641.fina" unicode="&#x641;" horiz-adv-x="1109" arabic-form="final" 
d="M1128 0h-749q-178 0 -265 94q-70 77 -70 224v180h180v-160q0 -75 43 -115q47 -43 138 -43h128q-29 50 -29 109q0 130 91 209.5t254 79.5h183v-398h96v-180zM684 289q0 -68 52 -109h116v218h-49q-50 0 -84.5 -30.5t-34.5 -78.5zM819 644q-42 0 -70.5 23t-28.5 66
q0 39 28 63.5t71 24.5t71 -24.5t28 -63.5q0 -43 -28.5 -66t-70.5 -23z" />
    <glyph glyph-name="uni0641.init" unicode="&#x641;" horiz-adv-x="664" arabic-form="initial" 
d="M0 0v180h121q-29 50 -29 109q0 130 91 209.5t254 79.5h183v-578h-620zM272 289q0 -68 52 -109h116v218h-49q-50 0 -84.5 -30.5t-34.5 -78.5zM398 644q-42 0 -70.5 23t-28.5 66q0 39 28 63.5t71 24.5t71 -24.5t28 -63.5q0 -43 -28.5 -66t-70.5 -23z" />
    <glyph glyph-name="uni0641.medi" unicode="&#x641;" horiz-adv-x="687" arabic-form="medial" 
d="M0 0v180h121q-29 50 -29 109q0 130 91 209.5t254 79.5h183v-398h86v-180h-706zM272 289q0 -68 52 -109h116v218h-49q-50 0 -84.5 -30.5t-34.5 -78.5zM397 644q-42 0 -70.5 23t-28.5 66q0 39 28 63.5t71 24.5t71 -24.5t28 -63.5q0 -43 -28.5 -66t-70.5 -23z" />
    <glyph glyph-name="uni0642.fina" unicode="&#x642;" horiz-adv-x="927" arabic-form="final" 
d="M849 -220h-467q-172 0 -257 81q-78 75 -78 230v211h180v-187q0 -76 41 -115q41 -40 130 -40h271v40q-159 0 -256 72.5t-97 216.5q0 138 96 213t252 75h185v-397h97v-180h-97v-220zM496 289q0 -55 35.5 -82t91.5 -27h46v217h-40q-55 0 -94 -28t-39 -80zM522 644
q-40 0 -67 22t-27 62q0 38 27 61.5t67 23.5t67 -23.5t27 -61.5q0 -40 -27 -62t-67 -22zM755 644q-39 0 -66 22t-27 62q0 38 26.5 61.5t66.5 23.5q41 0 67.5 -23.5t26.5 -61.5q0 -40 -27 -62t-67 -22z" />
    <glyph glyph-name="uni0642.init" unicode="&#x642;" horiz-adv-x="664" arabic-form="initial" 
d="M0 0v180h121q-29 50 -29 109q0 130 91 209.5t254 79.5h183v-578h-620zM272 289q0 -68 52 -109h116v218h-49q-50 0 -84.5 -30.5t-34.5 -78.5zM283 644q-40 0 -67 22t-27 62q0 38 27 61.5t67 23.5t67 -23.5t27 -61.5q0 -40 -27 -62t-67 -22zM516 644q-39 0 -66 22t-27 62
q0 38 26.5 61.5t66.5 23.5q41 0 67.5 -23.5t26.5 -61.5q0 -40 -27 -62t-67 -22z" />
    <glyph glyph-name="uni0642.medi" unicode="&#x642;" horiz-adv-x="687" arabic-form="medial" 
d="M0 0v180h121q-29 50 -29 109q0 130 91 209.5t254 79.5h183v-398h86v-180h-706zM272 289q0 -68 52 -109h116v218h-49q-50 0 -84.5 -30.5t-34.5 -78.5zM283 644q-40 0 -67 22t-27 62q0 38 27 61.5t67 23.5t67 -23.5t27 -61.5q0 -40 -27 -62t-67 -22zM516 644q-39 0 -66 22
t-27 62q0 38 26.5 61.5t66.5 23.5q41 0 67.5 -23.5t26.5 -61.5q0 -40 -27 -62t-67 -22z" />
    <glyph glyph-name="uni0643.fina" unicode="&#x643;" horiz-adv-x="953" arabic-form="final" 
d="M403 0q-178 0 -265 94q-70 77 -70 224v180h180v-160q0 -75 43 -115q47 -43 138 -43h251v631h180v-631h97v-180h-554zM356 364v76q0 68 34.5 96.5t99.5 28.5h66v-45h-58q-48 0 -48 -46v-27h138v-83h-232z" />
    <glyph glyph-name="uni0643.init" unicode="&#x643;" horiz-adv-x="831" arabic-form="initial" 
d="M501 357h-417q-55 76 -58 179l146 275h220l-169 -274h267q159 0 229 -78q64 -73 64 -216v-243h-783v180h603v77q0 46 -22 71q-26 29 -80 29z" />
    <glyph glyph-name="uni0643.medi" unicode="&#x643;" horiz-adv-x="860" arabic-form="medial" 
d="M501 357h-417q-55 76 -58 179l146 275h220l-169 -274h267q159 0 229 -78q64 -73 64 -216v-63h96v-180h-879v180h603v77q0 46 -22 71q-26 29 -80 29z" />
    <glyph glyph-name="uni0644.fina" unicode="&#x644;" horiz-adv-x="749" arabic-form="final" 
d="M642 -125h-255q-172 0 -257 81q-78 75 -78 230v327h180v-303q0 -76 41 -115q41 -40 130 -40h60v756h239v-180h-60v-451h127v-180h-127v-125z" />
    <glyph glyph-name="uni0644.init" unicode="&#x644;" horiz-adv-x="381" arabic-form="initial" 
d="M0 0v180h112v631h239v-180h-59v-631h-292z" />
    <glyph glyph-name="uni0644.medi" unicode="&#x644;" horiz-adv-x="398" arabic-form="medial" 
d="M0 0v180h112v631h180v-631h126v-180h-418z" />
    <glyph glyph-name="uni0645.fina" unicode="&#x645;" horiz-adv-x="967" arabic-form="final" 
d="M581 -113q-94 0 -173 55t-114 142q-34 -6 -58 -31q-25 -28 -25 -98v-175h-180v161q0 163 66 242q31 38 80 59.5t104 22.5q23 106 107.5 175t192.5 69q130 0 221.5 -91t91.5 -224q0 -3 -0.5 -7.5t-0.5 -6.5h94v-180h-165q-45 -53 -108.5 -83t-132.5 -30zM582 67
q55 0 93.5 37t38.5 92q0 57 -37.5 95t-94.5 38q-56 0 -92.5 -38t-36.5 -95q0 -54 37.5 -91.5t91.5 -37.5z" />
    <glyph glyph-name="uni0645.init" unicode="&#x645;" horiz-adv-x="738" arabic-form="initial" 
d="M0 0v180h85q-2 24 -2 36q0 131 90.5 223t217.5 92q130 0 221.5 -91t91.5 -224q0 -127 -93.5 -217t-219.5 -90q-124 0 -217 91h-174zM392 89q55 0 93.5 37t38.5 92q0 57 -37.5 95t-94.5 38q-56 0 -92.5 -38t-36.5 -95q0 -54 37.5 -91.5t91.5 -37.5z" />
    <glyph glyph-name="uni0645.medi" unicode="&#x645;" horiz-adv-x="772" arabic-form="medial" 
d="M0 0v180h85q-2 24 -2 36q0 131 90.5 223t217.5 92q130 0 221.5 -91t91.5 -224q0 -18 -3 -36h91v-180h-181q-94 -91 -220 -91q-124 0 -217 91h-174zM392 89q55 0 93.5 37t38.5 92q0 57 -37.5 95t-94.5 38q-56 0 -92.5 -38t-36.5 -95q0 -54 37.5 -91.5t91.5 -37.5z" />
    <glyph glyph-name="uni0646.fina" unicode="&#x646;" horiz-adv-x="720" arabic-form="final" 
d="M387 -125q-172 0 -257 81q-78 75 -78 230v327h180v-303q0 -76 41 -115q41 -40 130 -40h59v458h180v-333h97v-180h-97v-125h-255zM354 571q-42 0 -70.5 23t-28.5 66q0 39 28 63.5t71 24.5t71 -24.5t28 -63.5q0 -43 -28.5 -66t-70.5 -23z" />
    <glyph glyph-name="uni0646.init" unicode="&#x646;" horiz-adv-x="349" arabic-form="initial" 
d="M202 644q-42 0 -70.5 23t-28.5 66q0 39 28 63.5t71 24.5t71 -24.5t28 -63.5q0 -43 -28.5 -66t-70.5 -23zM0 0v180h114v397h180v-577h-294z" />
    <glyph glyph-name="uni0646.medi" unicode="&#x646;" horiz-adv-x="372" arabic-form="medial" 
d="M0 0v180h114v397h180v-397h97v-180h-391zM201 644q-42 0 -70.5 23t-28.5 66q0 39 28 63.5t71 24.5t71 -24.5t28 -63.5q0 -43 -28.5 -66t-70.5 -23z" />
    <glyph glyph-name="uniFEE9" unicode="&#x647;" horiz-adv-x="628" arabic-form="isolated" 
d="M394 0q-169 0 -259 73t-90 215q0 137 96 213.5t252 76.5v49h180v-627h-179zM347 180h46v218h-46q-49 0 -85.5 -30.5t-36.5 -79.5q0 -52 34.5 -80t87.5 -28z" />
    <glyph glyph-name="uni0647.fina" unicode="&#x647;" horiz-adv-x="640" arabic-form="final" 
d="M394 0q-169 0 -259 73t-90 215q0 137 96 213.5t252 76.5v49h180v-447h87v-180h-266zM347 180h46v218h-46q-49 0 -85.5 -30.5t-36.5 -79.5q0 -52 34.5 -80t87.5 -28z" />
    <glyph glyph-name="uni0647.init" unicode="&#x647;" horiz-adv-x="812" arabic-form="initial" 
d="M0 0v180h103q-5 23 -5 49q0 104 55.5 162t152.5 58q105 0 156 -59t51 -160q0 -25 -5 -50h62q7 28 7 69q0 125 -58 193q-66 77 -184 77q-63 0 -107 -12.5t-111 -48.5l-65 158q82 41 153.5 63t155.5 22q211 0 316 -145q85 -118 85 -307q0 -118 -36 -249h-726zM238 234
q0 -26 4 -54h126q5 25 5 54q0 38 -18 61.5t-49 23.5t-49.5 -23.5t-18.5 -61.5z" />
    <glyph glyph-name="uni0647.medi" unicode="&#x647;" horiz-adv-x="830" arabic-form="medial" 
d="M0 0v180h103q-5 23 -5 49q0 104 55.5 162t152.5 58q105 0 156 -59t51 -160q0 -25 -5 -50h62q7 28 7 69q0 125 -58 193q-66 77 -184 77q-63 0 -107 -12.5t-111 -48.5l-65 158q82 41 153.5 63t155.5 22q211 0 316 -145q85 -118 85 -307q0 -19 -4 -69h91v-180h-849zM238 234
q0 -26 4 -54h126q5 25 5 54q0 38 -18 61.5t-49 23.5t-49.5 -23.5t-18.5 -61.5z" />
    <glyph glyph-name="uni0648.fina" unicode="&#x648;" horiz-adv-x="646" arabic-form="final" 
d="M284 -220q-64 0 -127 21l-26 179q89 -36 146 -36q52 0 79 12.5t36 43.5q-157 2 -252 74t-95 215q0 138 96 213t252 75h185v-397h87v-180h-91q-13 -107 -81 -163.5t-209 -56.5zM225 289q0 -55 35.5 -82t91.5 -27h46v217h-40q-55 0 -94 -28t-39 -80z" />
    <glyph glyph-name="uni0649.fina" unicode="&#x649;" horiz-adv-x="1104" arabic-form="final" 
d="M379 -125q-172 0 -257 81q-78 75 -78 230v211h180v-187q0 -76 41 -115q41 -40 130 -40h126v223q0 167 95 242q75 57 205 57h206v-397h96v-180h-276v397h-42q-48 0 -72 -20q-32 -26 -32 -77v-425h-322z" />
    <glyph glyph-name="uni064A.fina" unicode="&#x64a;" horiz-adv-x="1104" arabic-form="final" 
d="M379 -125q-172 0 -257 81q-78 75 -78 230v211h180v-187q0 -76 41 -115q41 -40 130 -40h126v223q0 167 95 242q75 57 205 57h206v-397h96v-180h-276v397h-42q-48 0 -72 -20q-32 -26 -32 -77v-425h-322zM335 -326q-40 0 -67 22t-27 63q0 38 27 61t67 23t67 -23t27 -61
q0 -41 -27 -63t-67 -22zM568 -326q-39 0 -66 22t-27 63q0 38 26.5 61t66.5 23q41 0 67.5 -23t26.5 -61q0 -41 -27 -63t-67 -22z" />
    <glyph glyph-name="uni064A.init" unicode="&#x64a;" horiz-adv-x="472" arabic-form="initial" 
d="M125 -216q-40 0 -67 22t-27 63q0 38 27 61t67 23t67 -23t27 -61q0 -41 -27 -63t-67 -22zM358 -216q-39 0 -66 22t-27 63q0 38 26.5 61t66.5 23q41 0 67.5 -23t26.5 -61q0 -41 -27 -63t-67 -22zM0 0v180h214v397h180v-577h-394z" />
    <glyph glyph-name="uni064A.medi" unicode="&#x64a;" horiz-adv-x="545" arabic-form="medial" 
d="M0 0v180h214v397h180v-397h171v-180h-565zM170 -216q-40 0 -67 22t-27 63q0 38 27 61t67 23t67 -23t27 -61q0 -41 -27 -63t-67 -22zM403 -216q-39 0 -66 22t-27 63q0 38 26.5 61t66.5 23q41 0 67.5 -23t26.5 -61q0 -41 -27 -63t-67 -22z" />
    <glyph glyph-name=".notdef" horiz-adv-x="500" 
 />
    <glyph glyph-name=".null" horiz-adv-x="500" 
 />
    <glyph glyph-name="nonmarkingreturn" horiz-adv-x="333" 
 />
    <glyph glyph-name="space" unicode=" " horiz-adv-x="300" 
 />
    <glyph glyph-name="space" unicode="&#xa0;" horiz-adv-x="300" 
 />
    <glyph glyph-name="exclam" unicode="!" horiz-adv-x="390" 
d="M194 -11q-45 0 -79.5 26.5t-34.5 69.5q0 44 34.5 71.5t79.5 27.5q44 0 78.5 -27.5t34.5 -71.5q0 -43 -34 -69.5t-79 -26.5zM104 247v564h180v-564h-180z" />
    <glyph glyph-name="quotedbl" unicode="&#x22;" horiz-adv-x="527" 
d="M68 471l-32 340h191l-31 -340h-128zM332 471l-32 340h190l-31 -340h-127z" />
    <glyph glyph-name="numbersign" unicode="#" horiz-adv-x="819" 
d="M74 619h155l26 192h119l-26 -192h178l26 192h118l-26 -192h155l-14 -119h-157l-24 -186h155l-14 -119h-157l-25 -195h-119l26 195h-178l-26 -195h-118l25 195h-153l15 119h154l24 186h-153zM332 500l-24 -186h178l24 186h-178z" />
    <glyph glyph-name="dollar" unicode="$" horiz-adv-x="733" 
d="M292 -117v106q-165 13 -257 70l71 164q41 -27 108.5 -44t129.5 -17q66 0 107.5 18.5t41.5 59.5q0 37 -32.5 55.5t-101.5 34.5l-70 16q-111 25 -170.5 91t-59.5 162q0 85 61.5 145t171.5 77v105h148v-103q141 -17 228 -69l-71 -164q-43 28 -105.5 45t-118.5 17
q-49 0 -86.5 -15t-37.5 -44q0 -27 25 -44t86 -31l69 -16q119 -27 189 -92.5t70 -172.5q0 -98 -68.5 -161t-179.5 -81v-112h-148z" />
    <glyph glyph-name="percent" unicode="%" horiz-adv-x="1082" 
d="M236 348q-96 0 -146 63.5t-50 175.5q0 113 50 176.5t146 63.5q95 0 145 -63.5t50 -176.5q0 -112 -50 -175.5t-145 -63.5zM236 446q80 0 80 141q0 143 -80 143q-81 0 -81 -143q0 -141 81 -141zM181 1h153l567 810h-153zM847 -13q-96 0 -146 63.5t-50 175.5q0 113 50 176.5
t146 63.5q95 0 145 -63.5t50 -176.5q0 -112 -50 -175.5t-145 -63.5zM847 85q80 0 80 141q0 143 -80 143q-81 0 -81 -143q0 -141 81 -141z" />
    <glyph glyph-name="ampersand" unicode="&#x26;" horiz-adv-x="897" 
d="M347 -13q-146 0 -231 67t-85 183q0 169 195 241q-75 90 -75 167q0 81 71 131.5t185 50.5q129 0 195 -56.5t66 -148.5q0 -55 -38 -114t-118 -96l94 -103q42 70 58 145h187q-27 -147 -129 -273l165 -181h-224l-63 68q-118 -81 -253 -81zM351 153q71 0 137 37l-156 170
q-64 -21 -88.5 -47.5t-24.5 -62.5q0 -44 37.5 -70.5t94.5 -26.5zM338 633q0 -16 11 -35t19 -28t38 -41q45 18 65 41.5t20 45.5q0 29 -23 45.5t-55 16.5q-31 0 -53 -11.5t-22 -33.5z" />
    <glyph glyph-name="quotesingle" unicode="'" horiz-adv-x="263" 
d="M68 471l-32 340h191l-31 -340h-128z" />
    <glyph glyph-name="parenleft" unicode="(" horiz-adv-x="355" 
d="M33 298q0 144 46.5 283.5t107.5 229.5h178q-67 -108 -110 -244t-43 -269t43 -272.5t110 -245.5h-178q-60 86 -107 230t-47 288z" />
    <glyph glyph-name="parenright" unicode=")" horiz-adv-x="354" 
d="M321 298q0 -144 -46.5 -288t-106.5 -230h-178q67 106 110 245.5t43 272.5t-43 269t-110 244h178q61 -89 107 -229t46 -284z" />
    <glyph glyph-name="asterisk" unicode="*" horiz-adv-x="486" 
d="M294 811v-139l135 48l37 -98l-137 -47l83 -115l-83 -62l-87 118l-81 -118l-88 60l83 116l-136 48l36 98l133 -48v139h105z" />
    <glyph glyph-name="plus" unicode="+" horiz-adv-x="706" 
d="M263 0v209h-213v167h213v201h180v-201h213v-167h-213v-209h-180z" />
    <glyph glyph-name="comma" unicode="," horiz-adv-x="329" 
d="M6 -166l105 329h190l-149 -329h-146z" />
    <glyph glyph-name="hyphen" unicode="-" horiz-adv-x="430" 
d="M50 209v167h331v-167h-331z" />
    <glyph glyph-name="period" unicode="." horiz-adv-x="313" 
d="M156 -12q-45 0 -79 26.5t-34 69.5q0 44 34.5 71.5t78.5 27.5q45 0 79.5 -27.5t34.5 -71.5q0 -43 -34.5 -69.5t-79.5 -26.5z" />
    <glyph glyph-name="slash" unicode="/" horiz-adv-x="632" 
d="M-40 -150l544 961h168l-543 -961h-169z" />
    <glyph glyph-name="zero" unicode="0" horiz-adv-x="718" 
d="M359 160q56 0 89 49t33 139q0 89 -33 138.5t-89 49.5t-88.5 -49.5t-32.5 -138.5t32.5 -138.5t88.5 -49.5zM359 -11q-142 0 -224 96.5t-82 262.5t82 263t224 97t224.5 -97t82.5 -263t-82.5 -262.5t-224.5 -96.5z" />
    <glyph glyph-name="one" unicode="1" horiz-adv-x="424" 
d="M167 0v502l-140 -27v162l320 59v-696h-180z" />
    <glyph glyph-name="two" unicode="2" horiz-adv-x="630" 
d="M267 533q-79 0 -154 -60l-78 159q48 34 117.5 55t138.5 21q119 0 194.5 -52.5t75.5 -156.5q0 -91 -59.5 -168.5t-187.5 -163.5h253v-167h-517v159q14 10 46 32.5t49.5 35t47.5 34.5t48 36.5t42 34.5t38 35.5t28 33t20 32.5t6 29q0 35 -30.5 53t-77.5 18z" />
    <glyph glyph-name="three" unicode="3" horiz-adv-x="639" 
d="M288 -11q-66 0 -139 20t-119 53l78 160q74 -59 157 -59q54 0 88.5 15.5t34.5 45.5q0 32 -32.5 43t-101.5 11h-27v148h26q70 0 98.5 9t28.5 39q0 28 -31.5 43.5t-82.5 15.5q-82 0 -156 -59l-78 160q47 33 118 53.5t136 20.5q127 0 202.5 -53t75.5 -147q0 -47 -24.5 -89
t-60.5 -59q47 -17 75.5 -59t28.5 -103q0 -99 -80 -154t-215 -55z" />
    <glyph glyph-name="four" unicode="4" horiz-adv-x="698" 
d="M376 0v146h-336v166l282 372h234v-371h90v-167h-90v-146h-180zM214 313h162v219z" />
    <glyph glyph-name="five" unicode="5" horiz-adv-x="666" 
d="M323 -11q-151 0 -280 73l78 161q33 -26 84.5 -42.5t94.5 -16.5q123 0 123 69q0 77 -162 77q-84 0 -161 -22l45 396h423v-166h-291l-8 -67q20 3 61 3q44 0 82 -6t75 -21.5t63 -39.5t42 -64t16 -92q0 -115 -81 -178.5t-204 -63.5z" />
    <glyph glyph-name="six" unicode="6" horiz-adv-x="652" 
d="M330 -11q-121 0 -202.5 74t-81.5 196q0 130 105 252l148 173h232l-182 -189q9 1 27 1q91 0 161 -66t70 -176q0 -121 -79.5 -193t-197.5 -72zM327 160q44 0 69.5 27.5t25.5 69.5q0 43 -25.5 70.5t-69.5 27.5t-69.5 -27.5t-25.5 -70.5q0 -42 25.5 -69.5t69.5 -27.5z" />
    <glyph glyph-name="seven" unicode="7" horiz-adv-x="631" 
d="M51 0l335 519h-335v165h536v-165l-319 -519h-217z" />
    <glyph glyph-name="eight" unicode="8" horiz-adv-x="710" 
d="M356 708q67 0 125 -19t99.5 -65.5t41.5 -113.5q0 -50 -24.5 -90.5t-57.5 -54.5q44 -19 74 -64.5t30 -103.5q0 -45 -18 -81t-47 -59.5t-67.5 -39t-77 -22t-78.5 -6.5q-70 0 -132 18.5t-109 67.5t-47 122q0 59 30 104t74 64q-34 14 -58.5 54.5t-24.5 90.5q0 67 41.5 113.5
t99.5 65.5t126 19zM356 291q-46 0 -74 -19t-28 -50q0 -32 27.5 -52t74.5 -20q46 0 73.5 20t27.5 52q0 31 -28 50t-73 19zM356 543q-38 0 -61.5 -15.5t-23.5 -41.5q0 -24 23.5 -39.5t61.5 -15.5q37 0 61 15.5t24 39.5q0 26 -24 41.5t-61 15.5z" />
    <glyph glyph-name="nine" unicode="9" horiz-adv-x="652" 
d="M324 708q120 0 201.5 -74.5t81.5 -196.5q0 -124 -104 -252l-149 -185h-232l182 202q-9 -2 -27 -2q-91 0 -161 66t-70 176q0 121 79.5 193.5t198.5 72.5zM326 536q-44 0 -69.5 -27.5t-25.5 -69.5q0 -43 25.5 -70.5t69.5 -27.5t70 28t26 70t-26 69.5t-70 27.5z" />
    <glyph glyph-name="colon" unicode=":" horiz-adv-x="326" 
d="M163 -12q-45 0 -79 26.5t-34 69.5q0 44 34.5 71.5t78.5 27.5q45 0 79 -27.5t34 -71.5q0 -43 -34 -69.5t-79 -26.5zM163 347q-45 0 -79 26.5t-34 70.5t34 71t79 27t79 -27t34 -71t-34 -70.5t-79 -26.5z" />
    <glyph glyph-name="semicolon" unicode=";" horiz-adv-x="349" 
d="M6 -166l105 329h190l-149 -329h-146zM199 347q-45 0 -79.5 26.5t-34.5 70.5t34.5 71t79.5 27t79 -27t34 -71t-34 -70.5t-79 -26.5z" />
    <glyph glyph-name="less" unicode="&#x3c;" horiz-adv-x="687" 
d="M50 375l587 218v-170l-396 -135l396 -132v-171l-587 218v172z" />
    <glyph glyph-name="equal" unicode="=" horiz-adv-x="621" 
d="M50 346v167h521v-167h-521zM50 72v168h521v-168h-521z" />
    <glyph glyph-name="greater" unicode="&#x3e;" horiz-adv-x="687" 
d="M50 593l587 -218v-172l-587 -218v181l396 122l-396 125v180z" />
    <glyph glyph-name="question" unicode="?" horiz-adv-x="551" 
d="M224 -11q46 0 80.5 27t34.5 71t-35 72t-80 28q-46 0 -80.5 -27.5t-34.5 -72.5q0 -44 34.5 -71t80.5 -27zM203 651q-81 0 -176 -37l27 187q69 26 181 26q127 0 209.5 -69t82.5 -188q0 -186 -203 -236v-87h-184v208h15q185 0 185 100q0 45 -39.5 70.5t-97.5 25.5z" />
    <glyph glyph-name="at" unicode="@" horiz-adv-x="959" 
d="M692 165h-2l48 -112q-68 -30 -145.5 -47t-136.5 -17q-186 0 -303.5 116t-117.5 294q0 183 134.5 305.5t332.5 122.5q89 0 164 -22.5t133.5 -66t91.5 -115t33 -162.5q0 -135 -70 -215.5t-162 -80.5zM456 120q104 0 213 47q-69 10 -99 66q-59 -64 -161 -64
q-82 0 -136.5 54.5t-54.5 161.5q0 109 70 191t185 82q65 0 111 -40l5 21h116q-79 63 -205 63q-142 0 -231.5 -86.5t-89.5 -217.5q0 -123 74 -200.5t203 -77.5zM785 457q0 106 -67 171l-34 -249q-4 -32 -4 -40q0 -46 25 -46q34 0 57 44.5t23 119.5zM474 527q-48 0 -77 -42
t-29 -101q0 -86 66 -86q51 0 80.5 43.5t29.5 106.5q0 37 -18.5 58t-51.5 21z" />
    <glyph glyph-name="A" unicode="A" horiz-adv-x="806" 
d="M517 811l289 -811h-190l-55 160h-317l-54 -160h-190l289 811h228zM403 629l-101 -296h201z" />
    <glyph glyph-name="B" unicode="B" horiz-adv-x="768" 
d="M688 604q0 -52 -27.5 -97t-78.5 -69q73 -25 109.5 -77t36.5 -115t-26.5 -112t-70.5 -77.5t-96.5 -42.5t-109.5 -14h-335v811h298q147 0 223.5 -57.5t76.5 -149.5zM538 250q0 44 -32.5 60.5t-107.5 16.5h-123v-155h123q74 0 107 17t33 61zM498 570q0 36 -28.5 52.5
t-97.5 16.5h-97v-139h97q68 0 97 16t29 54z" />
    <glyph glyph-name="C" unicode="C" horiz-adv-x="761" 
d="M467 652q-104 0 -170.5 -61t-66.5 -184q0 -122 67 -183.5t170 -61.5q101 0 194 60l70 -164q-117 -71 -272 -71q-192 0 -308 117.5t-116 302.5t116 302.5t308 117.5q155 0 272 -71l-70 -164q-93 60 -194 60z" />
    <glyph glyph-name="D" unicode="D" horiz-adv-x="832" 
d="M275 172h42q68 0 116.5 10.5t88.5 36t60 73.5t20 119q0 125 -71.5 176.5t-206.5 51.5h-49v-467zM90 0v811h230q213 0 345 -103.5t132 -296.5q0 -192 -129 -301.5t-339 -109.5h-239z" />
    <glyph glyph-name="E" unicode="E" horiz-adv-x="688" 
d="M90 0v811h542v-172h-357v-139h324v-173h-324v-155h358v-172h-543z" />
    <glyph glyph-name="F" unicode="F" horiz-adv-x="654" 
d="M275 0h-185v811h544v-172h-359v-139h325v-173h-325v-327z" />
    <glyph glyph-name="G" unicode="G" horiz-adv-x="881" 
d="M467 162q74 0 139 28v103h-155v173h340v-403q-57 -35 -152.5 -55.5t-179.5 -20.5q-192 0 -308 117.5t-116 302.5t116 302.5t308 117.5q90 0 174 -19.5t137 -51.5l-70 -164q-93 60 -233 60q-104 0 -170.5 -61t-66.5 -184q0 -122 67 -183.5t170 -61.5z" />
    <glyph glyph-name="H" unicode="H" horiz-adv-x="887" 
d="M275 0h-185v811h185v-311h337v311h185v-811h-185v327h-337v-327z" />
    <glyph glyph-name="I" unicode="I" horiz-adv-x="365" 
d="M275 0h-185v811h185v-811z" />
    <glyph glyph-name="J" unicode="J" horiz-adv-x="546" 
d="M-10 39l67 156q59 -33 125 -33q45 0 67 25.5t22 84.5v539h185v-551q0 -273 -236 -273q-142 0 -230 52z" />
    <glyph glyph-name="K" unicode="K" horiz-adv-x="791" 
d="M275 0h-185v811h185v-405l280 405h224l-296 -405l308 -406h-225l-291 403v-403z" />
    <glyph glyph-name="L" unicode="L" horiz-adv-x="652" 
d="M276 811v-639h356v-172h-542v811h186z" />
    <glyph glyph-name="M" unicode="M" horiz-adv-x="1044" 
d="M629 0h-213l-141 661v-661h-185v811h308l124 -652l126 652h306v-811h-185v661z" />
    <glyph glyph-name="N" unicode="N" horiz-adv-x="863" 
d="M499 0l-228 637v-637h-181v811h275l228 -637v637h180v-811h-274z" />
    <glyph glyph-name="O" unicode="O" horiz-adv-x="920" 
d="M690 407q0 109 -63.5 176.5t-166.5 67.5t-166.5 -67.5t-63.5 -176.5t63.5 -176.5t166.5 -67.5t166.5 67.5t63.5 176.5zM885 407q0 -179 -119 -299.5t-306 -120.5t-306 120.5t-119 299.5t119 299.5t306 120.5t306 -120.5t119 -299.5z" />
    <glyph glyph-name="P" unicode="P" horiz-adv-x="729" 
d="M414 283h-139v-283h-185v811h324q149 0 227 -75.5t78 -181.5q0 -113 -80 -192t-225 -79zM376 639h-101v-184h101q72 0 110 20t38 74q0 50 -36.5 70t-111.5 20z" />
    <glyph glyph-name="Q" unicode="Q" horiz-adv-x="920" 
d="M885 407q0 -191 -133 -313l119 -126l-86 -85l-135 144q-86 -40 -190 -40q-187 0 -306 120.5t-119 299.5t119 299.5t306 120.5t306 -120.5t119 -299.5zM690 407q0 109 -63.5 177t-166.5 68t-166.5 -68t-63.5 -177t63.5 -177t166.5 -68q31 0 58 6l-75 81l86 84l97 -104
q64 69 64 178z" />
    <glyph glyph-name="R" unicode="R" horiz-adv-x="795" 
d="M563 0l-184 302h-104v-302h-185v811h324q78 0 138 -21.5t95 -58.5t53 -81.5t18 -93.5q0 -75 -37.5 -135t-113.5 -92l203 -329h-207zM375 639h-100v-179h100q74 0 111 18.5t37 72.5q0 50 -36 69t-112 19z" />
    <glyph glyph-name="S" unicode="S" horiz-adv-x="733" 
d="M106 223q41 -27 108.5 -44t129.5 -17q149 0 149 73q0 37 -32.5 55.5t-101.5 34.5l-70 16q-111 25 -170.5 91t-59.5 162q0 102 84.5 167.5t230.5 65.5q80 0 164.5 -23t129.5 -50l-71 -164q-43 28 -105.5 45t-118.5 17q-49 0 -86.5 -15.5t-37.5 -44.5q0 -28 25.5 -46.5
t85.5 -32.5l69 -16q259 -60 259 -262q0 -117 -96 -182.5t-242 -65.5q-90 0 -176.5 20t-138.5 52z" />
    <glyph glyph-name="T" unicode="T" horiz-adv-x="733" 
d="M274 0v639h-259v172h703v-172h-259v-639h-185z" />
    <glyph glyph-name="U" unicode="U" horiz-adv-x="872" 
d="M436 -13q-182 0 -269 90.5t-87 242.5v491h185v-448q0 -103 38 -152t133 -49t133 49t38 152v448h185v-491q0 -152 -87 -242.5t-269 -90.5z" />
    <glyph glyph-name="V" unicode="V" horiz-adv-x="786" 
d="M264 0l-254 811h195l188 -629l188 629h195l-254 -811h-258z" />
    <glyph glyph-name="W" unicode="W" horiz-adv-x="1067" 
d="M652 811l92 -616l112 616h191l-163 -811h-253l-98 647l-97 -647h-253l-163 811h190l112 -616l93 616h237z" />
    <glyph glyph-name="X" unicode="X" horiz-adv-x="818" 
d="M789 811l-275 -390l294 -421h-217l-186 266l-188 -266h-207l291 415l-275 396h217l167 -240l169 240h210z" />
    <glyph glyph-name="Y" unicode="Y" horiz-adv-x="752" 
d="M376 472l172 339h209l-288 -518v-293h-185v293l-289 518h209z" />
    <glyph glyph-name="Z" unicode="Z" horiz-adv-x="746" 
d="M77 639v172h604v-169l-415 -470h425v-172h-646v169l415 470h-383z" />
    <glyph glyph-name="bracketleft" unicode="[" horiz-adv-x="362" 
d="M71 -220v1031h273v-126h-93v-779h93v-126h-273z" />
    <glyph glyph-name="backslash" unicode="\" horiz-adv-x="632" 
d="M128 811l544 -961h-169l-543 961h168z" />
    <glyph glyph-name="bracketright" unicode="]" horiz-adv-x="362" 
d="M291 811v-1031h-273v126h93v779h-93v126h273z" />
    <glyph glyph-name="asciicircum" unicode="^" horiz-adv-x="570" 
d="M368 811l195 -386h-154l-124 269l-125 -269h-153l194 386h167z" />
    <glyph glyph-name="underscore" unicode="_" horiz-adv-x="619" 
d="M50 -168v168h520v-168h-520z" />
    <glyph glyph-name="grave" unicode="`" horiz-adv-x="325" 
d="M161 672l-141 139h171l114 -139h-144z" />
    <glyph glyph-name="a" unicode="a" horiz-adv-x="638" 
d="M222 196q0 -55 99 -55q41 0 77 11v88q-36 11 -77 11q-99 0 -99 -55zM309 600q122 0 195.5 -55t73.5 -178v-348q-123 -32 -263 -32q-124 0 -202 48t-78 149q0 93 71 144.5t189 51.5q50 0 103 -7v6q0 56 -114 56q-91 0 -199 -42l26 173q91 34 198 34z" />
    <glyph glyph-name="b" unicode="b" horiz-adv-x="684" 
d="M321 -13q-138 0 -250 31v793h180v-216q41 5 86 5q138 0 230 -88t92 -219q0 -133 -92.5 -219.5t-245.5 -86.5zM472 293q0 67 -41 99t-109 32q-35 0 -71 -9v-243q36 -9 71 -9q68 0 109 31.5t41 98.5z" />
    <glyph glyph-name="c" unicode="c" horiz-adv-x="559" 
d="M25 293q0 132 89 219.5t228 87.5q105 0 199 -46l-71 -162q-54 32 -120 32q-63 0 -100.5 -35t-37.5 -96q0 -60 37.5 -95t100.5 -35q66 0 120 32l71 -162q-94 -46 -199 -46q-139 0 -228 87t-89 219z" />
    <glyph glyph-name="d" unicode="d" horiz-adv-x="684" 
d="M363 -13q-153 0 -245.5 86.5t-92.5 219.5q0 131 92 219t230 88q45 0 86 -5v216h180v-793q-112 -31 -250 -31zM212 293q0 -67 41 -98.5t109 -31.5q35 0 71 9v243q-36 9 -71 9q-68 0 -109 -32t-41 -99z" />
    <glyph glyph-name="e" unicode="e" horiz-adv-x="665" 
d="M356 159q97 0 174 49l79 -155q-122 -66 -259 -66q-141 0 -233 87.5t-92 219.5q0 133 90.5 219.5t221.5 86.5q137 0 224 -98.5t80 -259.5h-432q27 -83 147 -83zM334 454q-44 0 -76.5 -23.5t-44.5 -62.5h245q-6 42 -40 64t-84 22z" />
    <glyph glyph-name="f" unicode="f" horiz-adv-x="520" 
d="M15 410v167h100v51q0 102 53.5 142.5t185.5 40.5h151v-167h-147q-63 0 -63 -56v-11h208v-167h-208v-410h-180v410h-100z" />
    <glyph glyph-name="g" unicode="g" horiz-adv-x="684" 
d="M433 -5v17q-41 -5 -86 -5q-139 0 -230.5 84.5t-91.5 212.5q0 130 92.5 213t245.5 83q138 0 250 -31v-496q0 -88 -13.5 -142t-50.5 -90.5t-98 -50.5t-159 -14q-33 0 -82.5 7.5t-78.5 18.5l-23 177q100 -39 194 -39q63 0 97 12t34 43zM433 192v223q-36 9 -71 9
q-150 0 -150 -120q0 -63 41 -92t109 -29q35 0 71 9z" />
    <glyph glyph-name="h" unicode="h" horiz-adv-x="677" 
d="M71 0v811h180v-220q52 9 89 9q276 0 276 -235v-365h-180v321q0 56 -24.5 79.5t-78.5 23.5q-41 0 -82 -8v-416h-180z" />
    <glyph glyph-name="i" unicode="i" horiz-adv-x="322" 
d="M71 0v577h180v-577h-180zM161 639q-42 0 -70.5 23.5t-28.5 66.5q0 39 28 63.5t71 24.5t71 -24.5t28 -63.5q0 -43 -28.5 -66.5t-70.5 -23.5z" />
    <glyph glyph-name="j" unicode="j" horiz-adv-x="350" 
d="M29 -224q-25 0 -51 6l-25 169q38 -11 72 -11q39 0 55.5 26.5t16.5 89.5v521h180v-497q0 -174 -52 -239t-196 -65zM187 639q-42 0 -70.5 23.5t-28.5 66.5q0 39 28 63.5t71 24.5t71 -24.5t28 -63.5q0 -43 -28.5 -66.5t-70.5 -23.5z" />
    <glyph glyph-name="k" unicode="k" horiz-adv-x="642" 
d="M251 0h-180v811h180v-517l179 283h209l-181 -286l189 -291h-210l-186 285v-285z" />
    <glyph glyph-name="l" unicode="l" horiz-adv-x="322" 
d="M251 0h-180v811h180v-811z" />
    <glyph glyph-name="m" unicode="m" horiz-adv-x="991" 
d="M750 0v322q0 57 -19.5 79.5t-66.5 22.5q-42 0 -81 -16q9 -16 9 -92v-316h-180v322q0 57 -20 79.5t-68 22.5q-30 0 -73 -9v-415h-180v568q177 32 253 32q111 0 161 -39q97 39 185 39q57 0 101 -10.5t81.5 -36t57.5 -73t20 -115.5v-365h-180z" />
    <glyph glyph-name="n" unicode="n" horiz-adv-x="677" 
d="M71 0v569q170 31 269 31q276 0 276 -235v-365h-180v321q0 56 -24.5 79.5t-78.5 23.5q-41 0 -82 -8v-416h-180z" />
    <glyph glyph-name="o" unicode="o" horiz-adv-x="690" 
d="M478 293q0 57 -36 94t-97 37t-97 -37t-36 -94q0 -56 36 -93t97 -37t97 37t36 93zM665 293q0 -131 -92 -218.5t-228 -87.5t-228 87.5t-92 218.5t92 219t228 88t228 -88t92 -219z" />
    <glyph glyph-name="p" unicode="p" horiz-adv-x="684" 
d="M321 600q153 0 245.5 -86.5t92.5 -219.5q0 -131 -92 -219t-230 -88q-45 0 -86 5v-212h-180v789q112 31 250 31zM472 294q0 67 -41 98.5t-109 31.5q-35 0 -71 -9v-243q36 -9 71 -9q68 0 109 32t41 99z" />
    <glyph glyph-name="q" unicode="q" horiz-adv-x="684" 
d="M363 600q138 0 250 -31v-789h-180v212q-41 -5 -86 -5q-138 0 -230 88t-92 219q0 133 92.5 219.5t245.5 86.5zM212 294q0 -67 41 -99t109 -32q35 0 71 9v243q-36 9 -71 9q-68 0 -109 -31.5t-41 -98.5z" />
    <glyph glyph-name="r" unicode="r" horiz-adv-x="460" 
d="M430 589v-171h-81q-79 0 -98 -7v-411h-180v566q118 23 245 23h114z" />
    <glyph glyph-name="s" unicode="s" horiz-adv-x="620" 
d="M310 152q78 0 78 29q0 16 -14 23.5t-60 15.5l-46 8q-215 36 -215 182q0 88 67 139t186 51q71 0 142.5 -16.5t113.5 -39.5l-64 -156q-37 20 -97 33.5t-107 13.5q-64 0 -64 -26q0 -14 14.5 -21t58.5 -15l47 -8q121 -22 174 -67t53 -127q0 -79 -69.5 -131.5t-202.5 -52.5
q-74 0 -149.5 17t-125.5 46l67 162q37 -25 102 -42.5t111 -17.5z" />
    <glyph glyph-name="t" unicode="t" horiz-adv-x="540" 
d="M10 410v167h100v208h181v-208h207v-167h-207v-170q0 -43 18 -58t65 -15h126v-167h-150q-133 0 -186.5 39.5t-53.5 140.5v230h-100z" />
    <glyph glyph-name="u" unicode="u" horiz-adv-x="658" 
d="M407 173v404h180v-560q-131 -30 -268 -30q-59 0 -103.5 10.5t-81 36t-55.5 73t-19 115.5v355h180v-311q0 -57 19.5 -80t66.5 -23q42 0 81 10z" />
    <glyph glyph-name="v" unicode="v" horiz-adv-x="634" 
d="M443 0h-252l-181 577h187l120 -412l120 412h187z" />
    <glyph glyph-name="w" unicode="w" horiz-adv-x="942" 
d="M787 0h-252l-64 421l-65 -421h-247l-144 577h196l84 -412l66 412h219l67 -412l83 412h197z" />
    <glyph glyph-name="x" unicode="x" horiz-adv-x="688" 
d="M667 577l-217 -281l228 -296h-212l-122 159l-123 -159h-211l227 297l-214 280h212l108 -142l109 142h215z" />
    <glyph glyph-name="y" unicode="y" horiz-adv-x="659" 
d="M408 10q-45 -9 -89 -9q-123 0 -191 52t-68 183v341h181v-296q0 -57 19.5 -80.5t66.5 -23.5q38 0 81 11v389h180v-504q0 -88 -13.5 -142t-50.5 -90.5t-98 -50.5t-159 -14q-33 0 -82.5 7.5t-78.5 18.5l-23 177q100 -39 194 -39q63 0 97 12t34 43v15z" />
    <glyph glyph-name="z" unicode="z" horiz-adv-x="628" 
d="M71 410v167h486v-166l-278 -244h289v-167h-518v166l287 244h-266z" />
    <glyph glyph-name="braceleft" unicode="{" horiz-adv-x="387" 
d="M302 -220q-114 0 -155.5 37t-41.5 146v147q0 60 -17 91t-68 32v126q51 1 68 32t17 92v145q0 109 41.5 146t155.5 37h74v-126h-40q-35 0 -43 -11t-8 -51v-160q0 -80 -27 -116t-77 -49v-2q50 -14 77 -50t27 -116v-162q0 -41 8 -52t43 -11h40v-125h-74z" />
    <glyph glyph-name="bar" unicode="|" horiz-adv-x="322" 
d="M71 -220v1031h180v-1031h-180z" />
    <glyph glyph-name="braceright" unicode="}" horiz-adv-x="387" 
d="M85 -220h-74v125h29q38 0 50 12.5t12 50.5v162q0 80 27 116t77 50v2q-50 13 -77 49t-27 116v160q0 38 -12 50t-50 12h-29v126h74q114 0 155.5 -37t41.5 -146v-145q0 -61 17 -92t68 -32v-126q-51 -1 -68 -32t-17 -91v-147q0 -109 -41.5 -146t-155.5 -37z" />
    <glyph glyph-name="asciitilde" unicode="~" horiz-adv-x="620" 
d="M402 340q25 0 37 15.5t15 57.5h125q5 -234 -144 -234q-48 0 -119 37t-97 37q-25 0 -37.5 -15.5t-15.5 -58.5h-124q-6 234 144 234q40 0 84 -18.5t78.5 -36.5t53.5 -18z" />
    <glyph glyph-name="exclamdown" unicode="&#xa1;" horiz-adv-x="390" 
d="M193 602q45 0 79.5 -26.5t34.5 -69.5q0 -44 -34.5 -71.5t-79.5 -27.5q-44 0 -78.5 27.5t-34.5 71.5q0 43 34 69.5t79 26.5zM283 344v-564h-180v564h180z" />
    <glyph glyph-name="cent" unicode="&#xa2;" horiz-adv-x="564" 
d="M315 -113v101q-129 9 -209.5 94t-80.5 211q0 125 81 211t209 95v99h48v-99q90 -3 178 -45l-71 -162q-50 29 -107 32v-261q57 3 107 32l71 -162q-88 -42 -178 -45v-101h-48zM212 293q0 -51 27.5 -84.5t75.5 -42.5v254q-48 -9 -75.5 -42.5t-27.5 -84.5z" />
    <glyph glyph-name="sterling" unicode="&#xa3;" horiz-adv-x="719" 
d="M414 827q65 0 134 -14.5t118 -40.5l-70 -160q-65 39 -160 39q-149 0 -149 -73q0 -15 8 -32.5t14 -26.5t25.5 -33t23.5 -30h218v-149h-179q-27 -61 -122 -125l1 -2q48 13 82 13q32 0 83 -16t79 -16q67 0 125 29l54 -163q-97 -40 -192 -40q-41 0 -111.5 21.5t-113.5 21.5
q-81 0 -163 -44l-67 164q71 34 111 69t48 88h-171v149h120q-22 32 -31.5 47.5t-20.5 46t-11 60.5q0 73 50 124t119.5 72t147.5 21z" />
    <glyph glyph-name="currency" unicode="&#xa4;" horiz-adv-x="686" 
d="M49 152l66 66q-50 66 -50 160q0 104 50 165l-66 67l62 63l67 -67q68 52 168 52q98 0 160 -52l67 67l62 -62l-62 -63q54 -73 54 -168q0 -98 -56 -161l66 -66l-60 -65l-67 66q-64 -54 -164 -54q-103 0 -169 55l-66 -66zM346 508q-56 0 -93.5 -38.5t-37.5 -94.5t37 -90.5
t94 -34.5t94 34.5t37 90.5t-37.5 94.5t-93.5 38.5z" />
    <glyph glyph-name="yen" unicode="&#xa5;" horiz-adv-x="772" 
d="M105 262v75h171l-271 474h189l192 -349l192 349h189l-272 -474h172v-75h-191v-88h191v-75h-191v-99h-180v99h-191v75h191v88h-191z" />
    <glyph glyph-name="brokenbar" unicode="&#xa6;" horiz-adv-x="322" 
d="M71 411v400h180v-400h-180zM71 -220v400h180v-400h-180z" />
    <glyph glyph-name="section" unicode="&#xa7;" horiz-adv-x="742" 
d="M101 630q0 91 74.5 143.5t186.5 52.5q151 0 257 -62l-63 -149q-36 26 -88.5 43.5t-99.5 17.5q-43 0 -69 -11.5t-26 -32.5q0 -17 17.5 -33.5t62.5 -38.5l159 -79q98 -49 146.5 -95.5t48.5 -112.5q0 -110 -120 -176q50 -53 50 -122q0 -96 -75 -150t-192 -54q-146 0 -257 62
l64 147q84 -58 188 -58q44 0 71.5 14.5t27.5 41.5q0 21 -25 42t-79 48l-143 70q-91 45 -136.5 95t-45.5 117q0 49 32.5 92t85.5 72q-52 54 -52 116zM446 191l23 -12q57 34 57 75q0 30 -18.5 52.5t-71.5 48.5l-165 81q-58 -32 -58 -72q0 -31 19 -53t65 -45z" />
    <glyph glyph-name="dieresis" unicode="&#xa8;" horiz-adv-x="485" 
d="M108 658q-37 0 -62.5 21t-25.5 59q0 35 25 57t63 22q39 0 64 -21.5t25 -57.5q0 -38 -26 -59t-63 -21zM376 658q-37 0 -62.5 21t-25.5 59q0 35 25 57t63 22q39 0 64 -21.5t25 -57.5q0 -38 -26 -59t-63 -21z" />
    <glyph glyph-name="copyright" unicode="&#xa9;" horiz-adv-x="911" 
d="M587 317l43 -106q-64 -47 -160 -47q-113 0 -181.5 67t-68.5 176q0 110 68 176.5t182 66.5q91 0 160 -47l-42 -108q-55 36 -114 36q-52 0 -86 -32t-34 -92q0 -59 34 -92t86 -33q59 0 113 35zM35 406q0 184 121.5 303t299.5 119q176 0 298 -119.5t122 -302.5
q0 -184 -121.5 -302t-298.5 -118q-178 0 -299.5 117.5t-121.5 302.5zM133 406q0 -146 92 -239.5t231 -93.5q140 0 231.5 93t91.5 240q0 148 -91.5 240t-231.5 92q-139 0 -231 -92.5t-92 -239.5z" />
    <glyph glyph-name="ordfeminine" unicode="&#xaa;" horiz-adv-x="457" 
d="M289 531v56q-36 6 -66 6q-79 0 -79 -37q0 -38 73 -38q42 0 72 13zM215 422q-78 0 -128.5 32.5t-50.5 99.5q0 62 48 94t128 32q34 0 77 -5v10q0 36 -89 36q-53 0 -135 -35l11 104q70 30 135 30q91 0 136 -35t45 -116v-212q-89 -35 -177 -35z" />
    <glyph glyph-name="guillemotleft" unicode="&#xab;" horiz-adv-x="655" 
d="M171 36l-148 258l147 256h187l-140 -256l139 -258h-185zM446 36l-146 258l146 256h186l-140 -256l139 -258h-185z" />
    <glyph glyph-name="logicalnot" unicode="&#xac;" horiz-adv-x="729" 
d="M478 107v202h-428v167h608v-369h-180z" />
    <glyph glyph-name="registered" unicode="&#xae;" horiz-adv-x="911" 
d="M35 406q0 184 121.5 303t299.5 119q176 0 298 -119.5t122 -302.5q0 -184 -121.5 -302t-298.5 -118q-178 0 -299.5 117.5t-121.5 302.5zM133 406q0 -146 92 -239.5t231 -93.5q140 0 231.5 93t91.5 240q0 148 -91.5 240t-231.5 92q-139 0 -231 -92.5t-92 -239.5zM443 359
h-39v-160h-119v446h158q98 0 152.5 -32t54.5 -114q0 -90 -81 -122l107 -178h-134l-94 160h-5zM529 499q0 44 -56 44h-69v-81h69q56 0 56 37z" />
    <glyph glyph-name="macron" unicode="&#xaf;" horiz-adv-x="333" 
d="M313 687h-293v105h293v-105z" />
    <glyph glyph-name="degree" unicode="&#xb0;" horiz-adv-x="444" 
d="M20 623q0 85 59 144.5t142 59.5q85 0 144 -59.5t59 -144.5q0 -83 -59 -142t-144 -59q-83 0 -142 59t-59 142zM123 623q0 -45 27.5 -75.5t70.5 -30.5q44 0 73 30.5t29 75.5q0 46 -28.5 77t-73.5 31q-43 0 -70.5 -31t-27.5 -77z" />
    <glyph glyph-name="plusminus" unicode="&#xb1;" horiz-adv-x="707" 
d="M264 161v144h-214v131h214v141h180v-141h213v-131h-213v-144h-180zM50 0v133h606v-133h-606z" />
    <glyph glyph-name="twosuperior" unicode="&#xb2;" horiz-adv-x="342" 
d="M156 758q-40 0 -74 -28l-32 64q48 35 115 35q54 0 89 -25t35 -72q0 -44 -31 -81t-99 -86h133v-67h-241v64q8 6 32 23t34 24.5t29 22t28 23.5t19.5 21t15 22t4.5 20q0 40 -57 40z" />
    <glyph glyph-name="threesuperior" unicode="&#xb3;" horiz-adv-x="353" 
d="M168 489q-72 0 -118 35l31 64q35 -29 78 -29q29 0 49 9t20 27q0 19 -18.5 25.5t-56.5 6.5h-11v67h11q38 0 52.5 4.5t14.5 22.5q0 34 -60 34q-42 0 -77 -29l-31 64q46 35 116 35q57 0 91.5 -24t34.5 -67q0 -24 -11 -43.5t-27 -27.5q47 -19 47 -77q0 -46 -37 -71.5
t-98 -25.5z" />
    <glyph glyph-name="acute" unicode="&#xb4;" horiz-adv-x="325" 
d="M305 811l-141 -139h-144l114 139h171z" />
    <glyph glyph-name="mu" unicode="&#xb5;" horiz-adv-x="690" 
d="M71 -217q12 77 12 149v645h180v-267q0 -148 86 -148q90 0 90 148v267h180v-577h-158v86q-43 -90 -143 -97q-51 -3 -76 44v-87q0 -91 -11 -163h-160z" />
    <glyph glyph-name="paragraph" unicode="&#xb6;" horiz-adv-x="663" 
d="M24 592q0 102 77 160.5t207 58.5h284v-894h-116v784h-112v-784h-116v458q-89 8 -156.5 62t-67.5 155z" />
    <glyph glyph-name="periodcentered" unicode="&#xb7;" horiz-adv-x="352" 
d="M176 189q-41 0 -71 30t-30 71t30 70.5t71 29.5t70.5 -29.5t29.5 -70.5t-29.5 -71t-70.5 -30z" />
    <glyph glyph-name="cedilla" unicode="&#xb8;" horiz-adv-x="277" 
d="M30 -209l-4 67q51 -18 84 -18q58 0 58 29q0 32 -62 32q-35 0 -73 -9l68 116h66l-34 -56q41 0 73.5 -18.5t32.5 -60.5q0 -49 -35.5 -72.5t-89.5 -23.5q-46 0 -84 14z" />
    <glyph glyph-name="onesuperior" unicode="&#xb9;" horiz-adv-x="247" 
d="M125 497v246l-75 -16v66l147 32v-328h-72z" />
    <glyph glyph-name="ordmasculine" unicode="&#xba;" horiz-adv-x="463" 
d="M231 421q-88 0 -147 54.5t-59 144.5q0 89 59 144.5t147 55.5t147.5 -55.5t59.5 -144.5q0 -90 -59 -144.5t-148 -54.5zM231 525q45 0 71 26t26 69q0 41 -26.5 68.5t-70.5 27.5t-70 -27.5t-26 -68.5q0 -43 25.5 -69t70.5 -26z" />
    <glyph glyph-name="guillemotright" unicode="&#xbb;" horiz-adv-x="655" 
d="M632 294l-148 -258h-185l139 258l-140 256h187zM356 294l-147 -258h-185l139 258l-140 256h186z" />
    <glyph glyph-name="onequarter" unicode="&#xbc;" horiz-adv-x="1029" 
d="M752 183v174h-2l-114 -174h116zM645 754h98l-438 -754h-98zM170 655h-70v99h197v-452h-127v353zM870 184h59v-90h-59v-94h-118v94h-238v75l189 283h167v-268z" />
    <glyph glyph-name="onehalf" unicode="&#xbd;" horiz-adv-x="1029" 
d="M170 655h-70v99h197v-452h-127v353zM845 165l-76 -66h160v-99h-394l201 201q56 56 56 111q0 22 -16 40t-40 18q-25 0 -39.5 -15.5t-14.5 -39.5q0 -5 2 -19h-140q3 80 54 126q50 48 137 48q80 0 134.5 -44.5t54.5 -116.5q0 -46 -19 -78t-60 -66zM617 754h98l-438 -754h-98
z" />
    <glyph glyph-name="threequarters" unicode="&#xbe;" horiz-adv-x="1029" 
d="M802 183v174h-2l-114 -174h116zM731 754h98l-438 -754h-98zM920 184h59v-90h-59v-94h-118v94h-238v75l189 283h167v-268zM226 563h13q25 0 40.5 13.5t15.5 36.5q0 20 -14 32.5t-36 12.5q-23 0 -37.5 -15t-14.5 -37h-118q7 70 57 109q48 39 125 39q68 0 112.5 -35
t44.5 -96q0 -66 -52 -93q37 -8 58.5 -42.5t21.5 -71.5q0 -70 -56 -109.5t-134 -39.5q-92 0 -146 51q-24 22 -40.5 53.5t-15.5 59.5h130q0 -28 19 -45q20 -18 49 -18q30 0 49 16.5t19 43.5q0 25 -20 42.5t-47 17.5q-4 0 -7.5 -0.5t-8 -1.5t-7.5 -1v78z" />
    <glyph glyph-name="questiondown" unicode="&#xbf;" horiz-adv-x="551" 
d="M330 602q46 0 80.5 -27t34.5 -71q0 -45 -34.5 -72.5t-80.5 -27.5q-45 0 -80 28t-35 72t34.5 71t80.5 27zM351 -48q81 0 176 37l-27 -187q-69 -26 -181 -26q-128 0 -210 68.5t-82 187.5q0 186 203 236v76h184v-197h-15q-185 0 -185 -100q0 -45 39.5 -70t97.5 -25z" />
    <glyph glyph-name="Agrave" unicode="&#xc0;" horiz-adv-x="806" 
d="M517 811l289 -811h-190l-55 160h-317l-54 -160h-190l289 811h228zM403 629l-101 -296h201zM333 845l-141 139h171l114 -139h-144z" />
    <glyph glyph-name="Aacute" unicode="&#xc1;" horiz-adv-x="806" 
d="M517 811l289 -811h-190l-55 160h-317l-54 -160h-190l289 811h228zM403 629l-101 -296h201zM597 984l-141 -139h-144l114 139h171z" />
    <glyph glyph-name="Acircumflex" unicode="&#xc2;" horiz-adv-x="806" 
d="M517 811l289 -811h-190l-55 160h-317l-54 -160h-190l289 811h228zM498 984l123 -139h-146l-71 76l-73 -76h-147l126 139h188zM403 629l-101 -296h201z" />
    <glyph glyph-name="Atilde" unicode="&#xc3;" horiz-adv-x="806" 
d="M517 811l289 -811h-190l-55 160h-317l-54 -160h-190l289 811h228zM466 936q22 0 32 11.5t15 37.5h80q-4 -68 -36 -104t-81 -36q-35 0 -78 24.5t-62 24.5q-22 0 -31.5 -11.5t-13.5 -37.5h-81q4 63 36.5 101.5t81.5 38.5q36 0 77 -24.5t61 -24.5zM403 629l-101 -296h201z
" />
    <glyph glyph-name="Adieresis" unicode="&#xc4;" horiz-adv-x="806" 
d="M517 811l289 -811h-190l-55 160h-317l-54 -160h-190l289 811h228zM403 629l-101 -296h201zM268 845q-37 0 -62.5 21t-25.5 59q0 35 25 57t63 22q39 0 64 -21.5t25 -57.5q0 -38 -26 -59t-63 -21zM536 845q-37 0 -62.5 21t-25.5 59q0 35 25 57t63 22q39 0 64 -21.5
t25 -57.5q0 -38 -26 -59t-63 -21z" />
    <glyph glyph-name="Aring" unicode="&#xc5;" horiz-adv-x="806" 
d="M517 811l289 -811h-190l-55 160h-317l-54 -160h-190l289 811h228zM404 1053q46 0 77.5 -29.5t31.5 -74.5t-31.5 -74.5t-77.5 -29.5t-78 29.5t-32 74.5t32 74.5t78 29.5zM403 629l-101 -296h201zM404 1003q-23 0 -39 -15t-16 -39q0 -23 16 -38t39 -15q22 0 38 15t16 38
t-16 38.5t-38 15.5z" />
    <glyph glyph-name="AE" unicode="&#xc6;" horiz-adv-x="1134" 
d="M536 811h542v-172h-357v-139h324v-173h-324v-155h358v-172h-543v160h-240l-106 -160h-210zM536 521l-125 -188h125v188z" />
    <glyph glyph-name="Ccedilla" unicode="&#xc7;" horiz-adv-x="761" 
d="M293 -209l-4 67q51 -18 84 -18q58 0 58 29q0 32 -62 32q-35 0 -73 -9l61 105q-149 30 -235.5 141t-86.5 269q0 185 116 302.5t308 117.5q155 0 272 -71l-70 -164q-93 60 -194 60q-104 0 -170.5 -61t-66.5 -184q0 -122 67 -183.5t170 -61.5q101 0 194 60l70 -164
q-117 -71 -272 -71q-13 0 -41 2l-22 -37q41 0 73.5 -18.5t32.5 -60.5q0 -49 -35.5 -72.5t-89.5 -23.5q-46 0 -84 14z" />
    <glyph glyph-name="Egrave" unicode="&#xc8;" horiz-adv-x="688" 
d="M90 0v811h542v-172h-357v-139h324v-173h-324v-155h358v-172h-543zM297 845l-141 139h171l114 -139h-144z" />
    <glyph glyph-name="Eacute" unicode="&#xc9;" horiz-adv-x="688" 
d="M90 0v811h542v-172h-357v-139h324v-173h-324v-155h358v-172h-543zM565 984l-141 -139h-144l114 139h171z" />
    <glyph glyph-name="Ecircumflex" unicode="&#xca;" horiz-adv-x="688" 
d="M90 0v811h542v-172h-357v-139h324v-173h-324v-155h358v-172h-543zM459 984l123 -139h-146l-71 76l-73 -76h-147l126 139h188z" />
    <glyph glyph-name="Edieresis" unicode="&#xcb;" horiz-adv-x="688" 
d="M90 0v811h542v-172h-357v-139h324v-173h-324v-155h358v-172h-543zM229 845q-37 0 -62.5 21t-25.5 59q0 35 25 57t63 22q39 0 64 -21.5t25 -57.5q0 -38 -26 -59t-63 -21zM497 845q-37 0 -62.5 21t-25.5 59q0 35 25 57t63 22q39 0 64 -21.5t25 -57.5q0 -38 -26 -59t-63 -21
z" />
    <glyph glyph-name="Igrave" unicode="&#xcc;" horiz-adv-x="365" 
d="M275 0h-185v811h185v-811zM110 845l-141 139h171l114 -139h-144z" />
    <glyph glyph-name="Iacute" unicode="&#xcd;" horiz-adv-x="365" 
d="M275 0h-185v811h185v-811zM395 984l-141 -139h-144l114 139h171z" />
    <glyph glyph-name="Icircumflex" unicode="&#xce;" horiz-adv-x="365" 
d="M275 0h-185v811h185v-811zM275 984l123 -139h-146l-71 76l-73 -76h-147l126 139h188z" />
    <glyph glyph-name="Idieresis" unicode="&#xcf;" horiz-adv-x="365" 
d="M275 0h-185v811h185v-811zM49 845q-37 0 -62.5 21t-25.5 59q0 35 25 57t63 22q39 0 64 -21.5t25 -57.5q0 -38 -26 -59t-63 -21zM317 845q-37 0 -62.5 21t-25.5 59q0 35 25 57t63 22q39 0 64 -21.5t25 -57.5q0 -38 -26 -59t-63 -21z" />
    <glyph glyph-name="Eth" unicode="&#xd0;" horiz-adv-x="905" 
d="M30 327v173h133v311h230q213 0 345 -103.5t132 -296.5q0 -192 -129 -301.5t-339 -109.5h-239v327h-133zM348 172h42q68 0 116.5 10.5t88.5 36t60 73.5t20 119q0 125 -71.5 176.5t-206.5 51.5h-49v-139h210v-173h-210v-155z" />
    <glyph glyph-name="Ntilde" unicode="&#xd1;" horiz-adv-x="863" 
d="M499 0l-228 637v-637h-181v811h275l228 -637v637h180v-811h-274zM496 936q22 0 32 11.5t15 37.5h80q-4 -68 -36 -104t-81 -36q-35 0 -78 24.5t-62 24.5q-22 0 -31.5 -11.5t-13.5 -37.5h-81q4 63 36.5 101.5t81.5 38.5q36 0 77 -24.5t61 -24.5z" />
    <glyph glyph-name="Ograve" unicode="&#xd2;" horiz-adv-x="920" 
d="M690 407q0 109 -63.5 176.5t-166.5 67.5t-166.5 -67.5t-63.5 -176.5t63.5 -176.5t166.5 -67.5t166.5 67.5t63.5 176.5zM885 407q0 -179 -119 -299.5t-306 -120.5t-306 120.5t-119 299.5t119 299.5t306 120.5t306 -120.5t119 -299.5zM406 845l-141 139h171l114 -139h-144z
" />
    <glyph glyph-name="Oacute" unicode="&#xd3;" horiz-adv-x="920" 
d="M690 407q0 109 -63.5 176.5t-166.5 67.5t-166.5 -67.5t-63.5 -176.5t63.5 -176.5t166.5 -67.5t166.5 67.5t63.5 176.5zM885 407q0 -179 -119 -299.5t-306 -120.5t-306 120.5t-119 299.5t119 299.5t306 120.5t306 -120.5t119 -299.5zM663 984l-141 -139h-144l114 139h171z
" />
    <glyph glyph-name="Ocircumflex" unicode="&#xd4;" horiz-adv-x="920" 
d="M690 407q0 109 -63.5 176.5t-166.5 67.5t-166.5 -67.5t-63.5 -176.5t63.5 -176.5t166.5 -67.5t166.5 67.5t63.5 176.5zM885 407q0 -179 -119 -299.5t-306 -120.5t-306 120.5t-119 299.5t119 299.5t306 120.5t306 -120.5t119 -299.5zM554 984l123 -139h-146l-71 76
l-73 -76h-147l126 139h188z" />
    <glyph glyph-name="Otilde" unicode="&#xd5;" horiz-adv-x="920" 
d="M690 407q0 109 -63.5 176.5t-166.5 67.5t-166.5 -67.5t-63.5 -176.5t63.5 -176.5t166.5 -67.5t166.5 67.5t63.5 176.5zM885 407q0 -179 -119 -299.5t-306 -120.5t-306 120.5t-119 299.5t119 299.5t306 120.5t306 -120.5t119 -299.5zM518 936q22 0 32 11.5t15 37.5h80
q-4 -68 -36 -104t-81 -36q-35 0 -78 24.5t-62 24.5q-22 0 -31.5 -11.5t-13.5 -37.5h-81q4 63 36.5 101.5t81.5 38.5q36 0 77 -24.5t61 -24.5z" />
    <glyph glyph-name="Odieresis" unicode="&#xd6;" horiz-adv-x="920" 
d="M690 407q0 109 -63.5 176.5t-166.5 67.5t-166.5 -67.5t-63.5 -176.5t63.5 -176.5t166.5 -67.5t166.5 67.5t63.5 176.5zM885 407q0 -179 -119 -299.5t-306 -120.5t-306 120.5t-119 299.5t119 299.5t306 120.5t306 -120.5t119 -299.5zM321 845q-37 0 -62.5 21t-25.5 59
q0 35 25 57t63 22q39 0 64 -21.5t25 -57.5q0 -38 -26 -59t-63 -21zM589 845q-37 0 -62.5 21t-25.5 59q0 35 25 57t63 22q39 0 64 -21.5t25 -57.5q0 -38 -26 -59t-63 -21z" />
    <glyph glyph-name="multiply" unicode="&#xd7;" horiz-adv-x="613" 
d="M128 6l-105 105l179 179l-179 180l105 104l178 -179l180 179l105 -104l-179 -180l179 -179l-105 -105l-180 179z" />
    <glyph glyph-name="Oslash" unicode="&#xd8;" horiz-adv-x="920" 
d="M885 407q0 -179 -119 -299.5t-306 -120.5q-136 0 -242 68l-94 -108l-79 65l96 109q-106 117 -106 286q0 179 119 299.5t306 120.5q134 0 240 -68l103 118l78 -64l-104 -119q108 -116 108 -287zM690 407q0 83 -39 144l-312 -357q53 -31 121 -31q103 0 166.5 67.5
t63.5 176.5zM230 407q0 -82 37 -142l311 356q-52 30 -118 30q-103 0 -166.5 -67.5t-63.5 -176.5z" />
    <glyph glyph-name="Ugrave" unicode="&#xd9;" horiz-adv-x="872" 
d="M436 -13q-182 0 -269 90.5t-87 242.5v491h185v-448q0 -103 38 -152t133 -49t133 49t38 152v448h185v-491q0 -152 -87 -242.5t-269 -90.5zM400 845l-141 139h171l114 -139h-144z" />
    <glyph glyph-name="Uacute" unicode="&#xda;" horiz-adv-x="872" 
d="M436 -13q-182 0 -269 90.5t-87 242.5v491h185v-448q0 -103 38 -152t133 -49t133 49t38 152v448h185v-491q0 -152 -87 -242.5t-269 -90.5zM620 984l-141 -139h-144l114 139h171z" />
    <glyph glyph-name="Ucircumflex" unicode="&#xdb;" horiz-adv-x="872" 
d="M436 -13q-182 0 -269 90.5t-87 242.5v491h185v-448q0 -103 38 -152t133 -49t133 49t38 152v448h185v-491q0 -152 -87 -242.5t-269 -90.5zM532 984l123 -139h-146l-71 76l-73 -76h-147l126 139h188z" />
    <glyph glyph-name="Udieresis" unicode="&#xdc;" horiz-adv-x="872" 
d="M436 -13q-182 0 -269 90.5t-87 242.5v491h185v-448q0 -103 38 -152t133 -49t133 49t38 152v448h185v-491q0 -152 -87 -242.5t-269 -90.5zM298 845q-37 0 -62.5 21t-25.5 59q0 35 25 57t63 22q39 0 64 -21.5t25 -57.5q0 -38 -26 -59t-63 -21zM566 845q-37 0 -62.5 21
t-25.5 59q0 35 25 57t63 22q39 0 64 -21.5t25 -57.5q0 -38 -26 -59t-63 -21z" />
    <glyph glyph-name="Yacute" unicode="&#xdd;" horiz-adv-x="752" 
d="M376 472l172 339h209l-288 -518v-293h-185v293l-289 518h209zM586 984l-141 -139h-144l114 139h171z" />
    <glyph glyph-name="Thorn" unicode="&#xde;" horiz-adv-x="739" 
d="M414 140h-139v-140h-185v811h185v-143h139q149 0 227 -75.5t78 -181.5q0 -113 -80 -192t-225 -79zM376 496h-101v-184h101q72 0 110 20t38 74q0 50 -36.5 70t-111.5 20z" />
    <glyph glyph-name="germandbls" unicode="&#xdf;" horiz-adv-x="798" 
d="M251 0h-180v503q0 171 85.5 247t247.5 76q134 0 219.5 -56t85.5 -156q0 -56 -26 -98.5t-67 -61.5q62 -22 104.5 -75t42.5 -134q0 -127 -83.5 -192.5t-220.5 -65.5q-83 0 -159 15l35 173q54 -12 96 -12q145 0 145 94q0 96 -184 96h-34v138h28q136 0 136 80q0 38 -36 59
t-92 21q-79 0 -111 -35t-32 -117v-499z" />
    <glyph glyph-name="agrave" unicode="&#xe0;" horiz-adv-x="638" 
d="M222 196q0 -55 99 -55q41 0 77 11v88q-36 11 -77 11q-99 0 -99 -55zM309 600q122 0 195.5 -55t73.5 -178v-348q-123 -32 -263 -32q-124 0 -202 48t-78 149q0 93 71 144.5t189 51.5q50 0 103 -7v6q0 56 -114 56q-91 0 -199 -42l26 173q91 34 198 34zM288 672l-141 139h171
l114 -139h-144z" />
    <glyph glyph-name="aacute" unicode="&#xe1;" horiz-adv-x="638" 
d="M222 196q0 -55 99 -55q41 0 77 11v88q-36 11 -77 11q-99 0 -99 -55zM309 600q122 0 195.5 -55t73.5 -178v-348q-123 -32 -263 -32q-124 0 -202 48t-78 149q0 93 71 144.5t189 51.5q50 0 103 -7v6q0 56 -114 56q-91 0 -199 -42l26 173q91 34 198 34zM540 811l-141 -139
h-144l114 139h171z" />
    <glyph glyph-name="acircumflex" unicode="&#xe2;" horiz-adv-x="638" 
d="M222 196q0 -55 99 -55q41 0 77 11v88q-36 11 -77 11q-99 0 -99 -55zM309 600q122 0 195.5 -55t73.5 -178v-348q-123 -32 -263 -32q-124 0 -202 48t-78 149q0 93 71 144.5t189 51.5q50 0 103 -7v6q0 56 -114 56q-91 0 -199 -42l26 173q91 34 198 34zM430 811l123 -139
h-146l-71 76l-73 -76h-147l126 139h188z" />
    <glyph glyph-name="atilde" unicode="&#xe3;" horiz-adv-x="638" 
d="M222 196q0 -55 99 -55q41 0 77 11v88q-36 11 -77 11q-99 0 -99 -55zM309 600q122 0 195.5 -55t73.5 -178v-348q-123 -32 -263 -32q-124 0 -202 48t-78 149q0 93 71 144.5t189 51.5q50 0 103 -7v6q0 56 -114 56q-91 0 -199 -42l26 173q91 34 198 34zM413 761q22 0 32 11.5
t15 37.5h80q-4 -68 -36 -104t-81 -36q-35 0 -78 24.5t-62 24.5q-22 0 -31.5 -11.5t-13.5 -37.5h-81q4 63 36.5 101.5t81.5 38.5q36 0 77 -24.5t61 -24.5z" />
    <glyph glyph-name="adieresis" unicode="&#xe4;" horiz-adv-x="638" 
d="M222 196q0 -55 99 -55q41 0 77 11v88q-36 11 -77 11q-99 0 -99 -55zM309 600q122 0 195.5 -55t73.5 -178v-348q-123 -32 -263 -32q-124 0 -202 48t-78 149q0 93 71 144.5t189 51.5q50 0 103 -7v6q0 56 -114 56q-91 0 -199 -42l26 173q91 34 198 34zM201 658
q-37 0 -62.5 21t-25.5 59q0 35 25 57t63 22q39 0 64 -21.5t25 -57.5q0 -38 -26 -59t-63 -21zM469 658q-37 0 -62.5 21t-25.5 59q0 35 25 57t63 22q39 0 64 -21.5t25 -57.5q0 -38 -26 -59t-63 -21z" />
    <glyph glyph-name="aring" unicode="&#xe5;" horiz-adv-x="638" 
d="M222 196q0 -55 99 -55q41 0 77 11v88q-36 11 -77 11q-99 0 -99 -55zM309 600q122 0 195.5 -55t73.5 -178v-348q-123 -32 -263 -32q-124 0 -202 48t-78 149q0 93 71 144.5t189 51.5q50 0 103 -7v6q0 56 -114 56q-91 0 -199 -42l26 173q91 34 198 34zM325 854
q46 0 77.5 -29.5t31.5 -74.5t-31.5 -74.5t-77.5 -29.5t-78 29.5t-32 74.5t32 74.5t78 29.5zM325 804q-23 0 -39 -15t-16 -39q0 -23 16 -38t39 -15q22 0 38 15t16 38t-16 38.5t-38 15.5z" />
    <glyph glyph-name="ae" unicode="&#xe6;" horiz-adv-x="1022" 
d="M713 159q97 0 174 49l79 -155q-122 -66 -259 -66q-89 0 -159 38q-121 -38 -233 -38q-124 0 -202 48t-78 149q0 93 71 144.5t189 51.5q50 0 103 -7v6q0 56 -114 56q-91 0 -199 -42l26 173q91 34 198 34q133 0 195 -66q79 66 190 66q137 0 224 -98.5t80 -259.5h-432
q27 -83 147 -83zM222 196q0 -55 99 -55q41 0 77 11v88q-36 11 -77 11q-99 0 -99 -55zM691 454q-44 0 -76.5 -23.5t-44.5 -62.5h245q-6 42 -40 64t-84 22z" />
    <glyph glyph-name="ccedilla" unicode="&#xe7;" horiz-adv-x="559" 
d="M199 -209l-4 67q51 -18 84 -18q58 0 58 29q0 32 -62 32q-35 0 -73 -9l60 104q-107 23 -172 104.5t-65 192.5q0 132 89 219.5t228 87.5q105 0 199 -46l-71 -162q-54 32 -120 32q-63 0 -100.5 -35t-37.5 -96q0 -60 37.5 -95t100.5 -35q66 0 120 32l71 -162
q-94 -46 -199 -46q-13 0 -19 1l-21 -36q41 0 73.5 -18.5t32.5 -60.5q0 -49 -35.5 -72.5t-89.5 -23.5q-46 0 -84 14z" />
    <glyph glyph-name="egrave" unicode="&#xe8;" horiz-adv-x="665" 
d="M356 159q97 0 174 49l79 -155q-122 -66 -259 -66q-141 0 -233 87.5t-92 219.5q0 133 90.5 219.5t221.5 86.5q137 0 224 -98.5t80 -259.5h-432q27 -83 147 -83zM288 672l-141 139h171l114 -139h-144zM334 454q-44 0 -76.5 -23.5t-44.5 -62.5h245q-6 42 -40 64t-84 22z" />
    <glyph glyph-name="eacute" unicode="&#xe9;" horiz-adv-x="665" 
d="M356 159q97 0 174 49l79 -155q-122 -66 -259 -66q-141 0 -233 87.5t-92 219.5q0 133 90.5 219.5t221.5 86.5q137 0 224 -98.5t80 -259.5h-432q27 -83 147 -83zM545 811l-141 -139h-144l114 139h171zM334 454q-44 0 -76.5 -23.5t-44.5 -62.5h245q-6 42 -40 64t-84 22z" />
    <glyph glyph-name="ecircumflex" unicode="&#xea;" horiz-adv-x="665" 
d="M356 159q97 0 174 49l79 -155q-122 -66 -259 -66q-141 0 -233 87.5t-92 219.5q0 133 90.5 219.5t221.5 86.5q137 0 224 -98.5t80 -259.5h-432q27 -83 147 -83zM437 811l123 -139h-146l-71 76l-73 -76h-147l126 139h188zM334 454q-44 0 -76.5 -23.5t-44.5 -62.5h245
q-6 42 -40 64t-84 22z" />
    <glyph glyph-name="edieresis" unicode="&#xeb;" horiz-adv-x="665" 
d="M356 159q97 0 174 49l79 -155q-122 -66 -259 -66q-141 0 -233 87.5t-92 219.5q0 133 90.5 219.5t221.5 86.5q137 0 224 -98.5t80 -259.5h-432q27 -83 147 -83zM480 658q-37 0 -62.5 21t-25.5 59q0 35 25 57t63 22q39 0 64 -21.5t25 -57.5q0 -38 -26 -59t-63 -21zM212 658
q-37 0 -62.5 21t-25.5 59q0 35 25 57t63 22q39 0 64 -21.5t25 -57.5q0 -38 -26 -59t-63 -21zM334 454q-44 0 -76.5 -23.5t-44.5 -62.5h245q-6 42 -40 64t-84 22z" />
    <glyph glyph-name="igrave" unicode="&#xec;" horiz-adv-x="322" 
d="M71 0v577h180v-577h-180zM85 672l-141 139h171l114 -139h-144z" />
    <glyph glyph-name="iacute" unicode="&#xed;" horiz-adv-x="322" 
d="M71 0v577h180v-577h-180zM375 811l-141 -139h-144l114 139h171z" />
    <glyph glyph-name="icircumflex" unicode="&#xee;" horiz-adv-x="322" 
d="M71 0v577h180v-577h-180zM257 811l123 -139h-146l-71 76l-73 -76h-147l126 139h188z" />
    <glyph glyph-name="idieresis" unicode="&#xef;" horiz-adv-x="322" 
d="M71 0v577h180v-577h-180zM28 658q-37 0 -62.5 21t-25.5 59q0 35 25 57t63 22q39 0 64 -21.5t25 -57.5q0 -38 -26 -59t-63 -21zM296 658q-37 0 -62.5 21t-25.5 59q0 35 25 57t63 22q39 0 64 -21.5t25 -57.5q0 -38 -26 -59t-63 -21z" />
    <glyph glyph-name="eth" unicode="&#xf0;" horiz-adv-x="708" 
d="M354 -13q-130 0 -224.5 85t-94.5 215q0 72 26.5 132t68 96.5t89.5 57t94 20.5q9 0 25 -2l-53 63l-100 -45l-36 60l90 40l-85 102h232l20 -27l103 46l36 -60l-95 -43l107 -138q116 -152 116 -302q0 -130 -94.5 -215t-224.5 -85zM221 293q0 -56 36 -93t97 -37t97 37t36 93
q0 57 -36 94t-97 37t-97 -37t-36 -94z" />
    <glyph glyph-name="ntilde" unicode="&#xf1;" horiz-adv-x="677" 
d="M71 0v569q170 31 269 31q276 0 276 -235v-365h-180v321q0 56 -24.5 79.5t-78.5 23.5q-41 0 -82 -8v-416h-180zM405 761q22 0 32 11.5t15 37.5h80q-4 -68 -36 -104t-81 -36q-35 0 -78 24.5t-62 24.5q-22 0 -31.5 -11.5t-13.5 -37.5h-81q4 63 36.5 101.5t81.5 38.5
q36 0 77 -24.5t61 -24.5z" />
    <glyph glyph-name="ograve" unicode="&#xf2;" horiz-adv-x="690" 
d="M478 293q0 57 -36 94t-97 37t-97 -37t-36 -94q0 -56 36 -93t97 -37t97 37t36 93zM665 293q0 -131 -92 -218.5t-228 -87.5t-228 87.5t-92 218.5t92 219t228 88t228 -88t92 -219zM285 672l-141 139h171l114 -139h-144z" />
    <glyph glyph-name="oacute" unicode="&#xf3;" horiz-adv-x="690" 
d="M478 293q0 57 -36 94t-97 37t-97 -37t-36 -94q0 -56 36 -93t97 -37t97 37t36 93zM665 293q0 -131 -92 -218.5t-228 -87.5t-228 87.5t-92 218.5t92 219t228 88t228 -88t92 -219zM563 811l-141 -139h-144l114 139h171z" />
    <glyph glyph-name="ocircumflex" unicode="&#xf4;" horiz-adv-x="690" 
d="M478 293q0 57 -36 94t-97 37t-97 -37t-36 -94q0 -56 36 -93t97 -37t97 37t36 93zM665 293q0 -131 -92 -218.5t-228 -87.5t-228 87.5t-92 218.5t92 219t228 88t228 -88t92 -219zM443 811l123 -139h-146l-71 76l-73 -76h-147l126 139h188z" />
    <glyph glyph-name="otilde" unicode="&#xf5;" horiz-adv-x="690" 
d="M478 293q0 57 -36 94t-97 37t-97 -37t-36 -94q0 -56 36 -93t97 -37t97 37t36 93zM665 293q0 -131 -92 -218.5t-228 -87.5t-228 87.5t-92 218.5t92 219t228 88t228 -88t92 -219zM409 761q22 0 32 11.5t15 37.5h80q-4 -68 -36 -104t-81 -36q-35 0 -78 24.5t-62 24.5
q-22 0 -31.5 -11.5t-13.5 -37.5h-81q4 63 36.5 101.5t81.5 38.5q36 0 77 -24.5t61 -24.5z" />
    <glyph glyph-name="odieresis" unicode="&#xf6;" horiz-adv-x="690" 
d="M478 293q0 57 -36 94t-97 37t-97 -37t-36 -94q0 -56 36 -93t97 -37t97 37t36 93zM665 293q0 -131 -92 -218.5t-228 -87.5t-228 87.5t-92 218.5t92 219t228 88t228 -88t92 -219zM210 658q-37 0 -62.5 21t-25.5 59q0 35 25 57t63 22q39 0 64 -21.5t25 -57.5q0 -38 -26 -59
t-63 -21zM478 658q-37 0 -62.5 21t-25.5 59q0 35 25 57t63 22q39 0 64 -21.5t25 -57.5q0 -38 -26 -59t-63 -21z" />
    <glyph glyph-name="divide" unicode="&#xf7;" horiz-adv-x="621" 
d="M50 209v167h521v-167h-521zM308 -60q-45 0 -79 27t-34 70q0 44 34.5 71.5t78.5 27.5t78.5 -27.5t34.5 -71.5q0 -43 -34 -70t-79 -27zM308 441q-45 0 -79 26.5t-34 69.5q0 44 34.5 71.5t78.5 27.5t78.5 -27.5t34.5 -71.5q0 -43 -34 -69.5t-79 -26.5z" />
    <glyph glyph-name="oslash" unicode="&#xf8;" horiz-adv-x="690" 
d="M665 293q0 -131 -92 -218.5t-228 -87.5q-91 0 -161 38l-70 -80l-63 55l65 75q-91 88 -91 218q0 131 92 219t228 88q98 0 181 -52l63 72l63 -55l-62 -72q75 -85 75 -200zM212 293q0 -47 24 -80l171 198q-29 13 -62 13q-61 0 -97 -37t-36 -94zM478 293q0 28 -12 57
l-159 -183q15 -4 38 -4q61 0 97 37t36 93z" />
    <glyph glyph-name="ugrave" unicode="&#xf9;" horiz-adv-x="658" 
d="M407 173v404h180v-560q-131 -30 -268 -30q-59 0 -103.5 10.5t-81 36t-55.5 73t-19 115.5v355h180v-311q0 -57 19.5 -80t66.5 -23q42 0 81 10zM265 672l-141 139h171l114 -139h-144z" />
    <glyph glyph-name="uacute" unicode="&#xfa;" horiz-adv-x="658" 
d="M407 173v404h180v-560q-131 -30 -268 -30q-59 0 -103.5 10.5t-81 36t-55.5 73t-19 115.5v355h180v-311q0 -57 19.5 -80t66.5 -23q42 0 81 10zM519 811l-141 -139h-144l114 139h171z" />
    <glyph glyph-name="ucircumflex" unicode="&#xfb;" horiz-adv-x="658" 
d="M407 173v404h180v-560q-131 -30 -268 -30q-59 0 -103.5 10.5t-81 36t-55.5 73t-19 115.5v355h180v-311q0 -57 19.5 -80t66.5 -23q42 0 81 10zM418 811l123 -139h-146l-71 76l-73 -76h-147l126 139h188z" />
    <glyph glyph-name="udieresis" unicode="&#xfc;" horiz-adv-x="658" 
d="M407 173v404h180v-560q-131 -30 -268 -30q-59 0 -103.5 10.5t-81 36t-55.5 73t-19 115.5v355h180v-311q0 -57 19.5 -80t66.5 -23q42 0 81 10zM192 658q-37 0 -62.5 21t-25.5 59q0 35 25 57t63 22q39 0 64 -21.5t25 -57.5q0 -38 -26 -59t-63 -21zM460 658q-37 0 -62.5 21
t-25.5 59q0 35 25 57t63 22q39 0 64 -21.5t25 -57.5q0 -38 -26 -59t-63 -21z" />
    <glyph glyph-name="yacute" unicode="&#xfd;" horiz-adv-x="659" 
d="M408 10q-45 -9 -89 -9q-123 0 -191 52t-68 183v341h181v-296q0 -57 19.5 -80.5t66.5 -23.5q38 0 81 11v389h180v-504q0 -88 -13.5 -142t-50.5 -90.5t-98 -50.5t-159 -14q-33 0 -82.5 7.5t-78.5 18.5l-23 177q100 -39 194 -39q63 0 97 12t34 43v15zM520 811l-141 -139
h-144l114 139h171z" />
    <glyph glyph-name="thorn" unicode="&#xfe;" horiz-adv-x="684" 
d="M321 600q153 0 245.5 -86.5t92.5 -219.5q0 -131 -92 -219t-230 -88q-45 0 -86 5v-212h-180v1031h180v-213q44 2 70 2zM472 294q0 67 -41 98.5t-109 31.5q-35 0 -71 -9v-243q36 -9 71 -9q68 0 109 32t41 99z" />
    <glyph glyph-name="ydieresis" unicode="&#xff;" horiz-adv-x="659" 
d="M408 10q-45 -9 -89 -9q-123 0 -191 52t-68 183v341h181v-296q0 -57 19.5 -80.5t66.5 -23.5q38 0 81 11v389h180v-504q0 -88 -13.5 -142t-50.5 -90.5t-98 -50.5t-159 -14q-33 0 -82.5 7.5t-78.5 18.5l-23 177q100 -39 194 -39q63 0 97 12t34 43v15zM457 658
q-37 0 -62.5 21t-25.5 59q0 35 25 57t63 22q39 0 64 -21.5t25 -57.5q0 -38 -26 -59t-63 -21zM189 658q-37 0 -62.5 21t-25.5 59q0 35 25 57t63 22q39 0 64 -21.5t25 -57.5q0 -38 -26 -59t-63 -21z" />
    <glyph glyph-name="dotlessi" unicode="&#x131;" horiz-adv-x="322" 
d="M71 0v577h180v-577h-180z" />
    <glyph glyph-name="Lslash" unicode="&#x141;" horiz-adv-x="712" 
d="M336 811v-276l128 56l65 -141l-193 -84v-194h356v-172h-542v285l-85 -37l-65 141l150 65v357h186z" />
    <glyph glyph-name="lslash" unicode="&#x142;" horiz-adv-x="483" 
d="M55 248l-65 141l162 71v351h180v-272l96 42l65 -141l-161 -71v-369h-180v290z" />
    <glyph glyph-name="OE" unicode="&#x152;" horiz-adv-x="1276" 
d="M460 827q126 0 218 -59v43h542v-172h-357v-139h324v-173h-324v-155h358v-172h-543v45q-92 -58 -218 -58q-187 0 -306 120.5t-119 299.5t119 299.5t306 120.5zM690 407q0 109 -63.5 176.5t-166.5 67.5t-166.5 -67.5t-63.5 -176.5t63.5 -176.5t166.5 -67.5t166.5 67.5
t63.5 176.5z" />
    <glyph glyph-name="oe" unicode="&#x153;" horiz-adv-x="1111" 
d="M802 159q97 0 174 49l79 -155q-122 -66 -259 -66q-143 0 -228 93q-83 -93 -223 -93q-136 0 -228 87.5t-92 218.5t92 219t228 88q137 0 221 -92q82 92 217 92q137 0 224 -98.5t80 -259.5h-432q27 -83 147 -83zM478 293q0 57 -36 94t-97 37t-97 -37t-36 -94q0 -56 36 -93
t97 -37t97 37t36 93zM780 454q-44 0 -76.5 -23.5t-44.5 -62.5h245q-6 42 -40 64t-84 22z" />
    <glyph glyph-name="Scaron" unicode="&#x160;" horiz-adv-x="733" 
d="M106 223q41 -27 108.5 -44t129.5 -17q149 0 149 73q0 37 -32.5 55.5t-101.5 34.5l-70 16q-111 25 -170.5 91t-59.5 162q0 102 84.5 167.5t230.5 65.5q80 0 164.5 -23t129.5 -50l-71 -164q-43 28 -105.5 45t-118.5 17q-49 0 -86.5 -15.5t-37.5 -44.5q0 -28 25.5 -46.5
t85.5 -32.5l69 -16q259 -60 259 -262q0 -117 -96 -182.5t-242 -65.5q-90 0 -176.5 20t-138.5 52zM265 845l-133 139h136l81 -76l83 76h137l-136 -139h-168z" />
    <glyph glyph-name="scaron" unicode="&#x161;" horiz-adv-x="620" 
d="M310 152q78 0 78 29q0 16 -14 23.5t-60 15.5l-46 8q-215 36 -215 182q0 88 67 139t186 51q71 0 142.5 -16.5t113.5 -39.5l-64 -156q-37 20 -97 33.5t-107 13.5q-64 0 -64 -26q0 -14 14.5 -21t58.5 -15l47 -8q121 -22 174 -67t53 -127q0 -79 -69.5 -131.5t-202.5 -52.5
q-74 0 -149.5 17t-125.5 46l67 162q37 -25 102 -42.5t111 -17.5zM216 672l-133 139h136l81 -76l83 76h137l-136 -139h-168z" />
    <glyph glyph-name="Ydieresis" unicode="&#x178;" horiz-adv-x="752" 
d="M376 472l172 339h209l-288 -518v-293h-185v293l-289 518h209zM240 845q-37 0 -62.5 21t-25.5 59q0 35 25 57t63 22q39 0 64 -21.5t25 -57.5q0 -38 -26 -59t-63 -21zM508 845q-37 0 -62.5 21t-25.5 59q0 35 25 57t63 22q39 0 64 -21.5t25 -57.5q0 -38 -26 -59t-63 -21z
" />
    <glyph glyph-name="Zcaron" unicode="&#x17d;" horiz-adv-x="746" 
d="M77 639v172h604v-169l-415 -470h425v-172h-646v169l415 470h-383zM296 845l-133 139h136l81 -76l83 76h137l-136 -139h-168z" />
    <glyph glyph-name="zcaron" unicode="&#x17e;" horiz-adv-x="628" 
d="M71 410v167h486v-166l-278 -244h289v-167h-518v166l287 244h-266zM237 672l-133 139h136l81 -76l83 76h137l-136 -139h-168z" />
    <glyph glyph-name="florin" unicode="&#x192;" horiz-adv-x="686" 
d="M471 505h110l-13 -76h-110l-51 -279q-14 -80 -31.5 -134t-53.5 -101q-84 -108 -222 -96l-106 9l30 165q52 -9 71 -9q40 0 63.5 15.5t39.5 52.5q14 36 34 144l42 233h-86l12 76h88l20 108q10 52 22.5 85t39.5 63q62 69 162 69q80 0 130 -34l-29 -157q-41 30 -78 30
q-25 0 -41 -17.5t-21.5 -37t-10.5 -46.5q-1 -5 -1 -8z" />
    <glyph glyph-name="uni0640" unicode="&#x1a0;" horiz-adv-x="163" 
d="M0 0v180h183v-180h-183z" />
    <glyph glyph-name="uni0640" unicode="&#x640;" horiz-adv-x="163" 
d="M0 0v180h183v-180h-183z" />
    <glyph glyph-name="circumflex" unicode="&#x2c6;" horiz-adv-x="477" 
d="M334 811l123 -139h-146l-71 76l-73 -76h-147l126 139h188z" />
    <glyph glyph-name="caron" unicode="&#x2c7;" horiz-adv-x="477" 
d="M153 672l-133 139h136l81 -76l83 76h137l-136 -139h-168z" />
    <glyph glyph-name="breve" unicode="&#x2d8;" horiz-adv-x="397" 
d="M377 811q-5 -72 -53 -110.5t-127 -38.5q-77 0 -125 39t-52 110h87q3 -33 29.5 -48t61.5 -15t62 15t31 48h86z" />
    <glyph glyph-name="dotaccent" unicode="&#x2d9;" horiz-adv-x="216" 
d="M108 658q-37 0 -62.5 21t-25.5 59q0 35 25 57t63 22q39 0 64 -21.5t25 -57.5q0 -38 -26 -59t-63 -21z" />
    <glyph glyph-name="ring" unicode="&#x2da;" horiz-adv-x="259" 
d="M130 854q46 0 77.5 -29.5t31.5 -74.5t-31.5 -74.5t-77.5 -29.5t-78 29.5t-32 74.5t32 74.5t78 29.5zM130 804q-23 0 -39 -15t-16 -39q0 -23 16 -38t39 -15q22 0 38 15t16 38t-16 38.5t-38 15.5z" />
    <glyph glyph-name="ogonek" unicode="&#x2db;" horiz-adv-x="313" 
d="M112 1l170 -1q-53 -26 -79.5 -46.5t-26.5 -45.5q0 -40 65 -40q27 0 52 7v-83q-46 -10 -97 -10q-34 0 -63 5t-55.5 16t-42 32.5t-15.5 51.5q0 34 26 65t66 49z" />
    <glyph glyph-name="tilde" unicode="&#x2dc;" horiz-adv-x="423" 
d="M276 761q22 0 32 11.5t15 37.5h80q-4 -68 -36 -104t-81 -36q-35 0 -78 24.5t-62 24.5q-22 0 -31.5 -11.5t-13.5 -37.5h-81q4 63 36.5 101.5t81.5 38.5q36 0 77 -24.5t61 -24.5z" />
    <glyph glyph-name="hungarumlaut" unicode="&#x2dd;" horiz-adv-x="569" 
d="M305 811l-141 -139h-144l114 139h171zM549 811l-140 -139h-145l114 139h171z" />
    <glyph glyph-name="pi" unicode="&#x3c0;" horiz-adv-x="826" 
d="M293 0h-181v410h-75v167h734v-167h-88v-187q0 -37 11 -46t52 -9h25v-168h-55q-125 0 -169 33.5t-44 130.5v246h-210v-410z" />
    <glyph glyph-name="uni060C" unicode="&#x60c;" horiz-adv-x="445" 
d="M395 300l-105 -329h-190l149 329h146z" />
    <glyph glyph-name="uni0615" unicode="&#x615;" 
d="M-28 211v-51h51q58 0 91 -30.5t33 -89.5v-40h-293v73h52v138h66zM23 115h-51v-42h91q0 19 -10.5 30.5t-29.5 11.5z" />
    <glyph glyph-name="uni061B" unicode="&#x61b;" horiz-adv-x="465" 
d="M213 -12q-45 0 -79 26.5t-34 69.5q0 44 34.5 71.5t78.5 27.5q45 0 79.5 -27.5t34.5 -71.5q0 -43 -34.5 -69.5t-79.5 -26.5zM415 659l-105 -329h-190l149 329h146z" />
    <glyph glyph-name="uni061F" unicode="&#x61f;" horiz-adv-x="610" 
d="M399 -11q-46 0 -80.5 26.5t-34.5 70.5t35 72t80 28t79.5 -28t34.5 -72t-34.5 -70.5t-79.5 -26.5zM424 625q-58 0 -97.5 -25.5t-39.5 -70.5q0 -100 185 -100h15v-208h-184v87q-203 50 -203 236q0 119 82.5 188t209.5 69q112 0 181 -26l27 -187q-95 37 -176 37z" />
    <glyph glyph-name="uni0647" unicode="&#x647;" horiz-adv-x="864" 
d="M45 0v180h103q-5 23 -5 49q0 104 55.5 162t152.5 58q105 0 156 -59t51 -160q0 -12 -5 -50h62q7 28 7 69q0 125 -58 193q-66 77 -184 77q-63 0 -107 -12.5t-111 -48.5l-65 158q82 41 153.5 63t155.5 22q211 0 316 -145q85 -118 85 -307q0 -118 -36 -249h-726zM283 234
q0 -26 4 -54h126q5 25 5 54q0 38 -18 61.5t-49 23.5t-49.5 -23.5t-18.5 -61.5z" />
    <glyph glyph-name="uni064B" unicode="&#x64b;" 
d="M-111 0v55l224 32v-55zM-112 88v55l224 32v-55z" />
    <glyph glyph-name="uni064C" unicode="&#x64c;" 
d="M-95 0l-44 112l54 21l25 -69l41 7q-5 17 -5 29q0 36 21 62t63 26q36 0 58 -23.5t22 -61.5q0 -35 -6 -66zM25 101q0 -13 3 -22l54 9q2 6 2 13q0 13 -7.5 21.5t-21.5 8.5q-12 0 -21 -8.5t-9 -21.5z" />
    <glyph glyph-name="uni064D" unicode="&#x64d;" 
d="M-111 -175v55l224 32v-55zM-112 -87v55l224 32v-55z" />
    <glyph glyph-name="uni064E" unicode="&#x64e;" 
d="M-112 0v58l224 32v-58z" />
    <glyph glyph-name="uni064F" unicode="&#x64f;" 
d="M-110 0l-7 55l76 13q-5 17 -5 29q0 36 21 62t63 26q36 0 58 -23.5t22 -61.5q0 -35 -6 -66zM3 98q0 -13 3 -22l54 9q2 6 2 13q0 13 -7.5 21.5t-21.5 8.5q-12 0 -21 -8.5t-9 -21.5z" />
    <glyph glyph-name="uni0650" unicode="&#x650;" 
d="M-112 -90v58l224 32v-58z" />
    <glyph glyph-name="uni0651" unicode="&#x651;" 
d="M-52 0q-62 0 -75 66l-12 60l56 11l11 -57q5 -25 24 -25q26 0 26 37q0 1 -7 55l56 8l11 -58q5 -21 23 -21q24 0 24 25q0 27 -15 68l57 13q13 -56 13 -76q0 -41 -22 -62.5t-61 -21.5q-26 0 -42 20q-23 -42 -67 -42z" />
    <glyph glyph-name="uni0652" unicode="&#x652;" 
d="M-5 0q-83 0 -83 93q0 44 25 69.5t65 25.5q41 0 63.5 -25.5t22.5 -69.5q0 -43 -26 -68t-67 -25zM-1 55q33 0 33 37q0 40 -33 40q-12 0 -22 -9.5t-10 -28.5q0 -39 32 -39z" />
    <glyph glyph-name="uni0653" unicode="&#x653;" horiz-adv-x="335" 
d="M21 721v83h293v-83h-293z" />
    <glyph glyph-name="uni0654" unicode="&#x654;" horiz-adv-x="335" 
d="M58 721v49q0 68 34.5 96.5t99.5 28.5h56v-45h-48q-48 0 -48 -46h128v-83h-222z" />
    <glyph glyph-name="uni0655" unicode="&#x655;" horiz-adv-x="335" 
d="M192 -207q-65 0 -99.5 28.5t-34.5 96.5v49h222v-83h-128q0 -46 48 -46h48v-45h-56z" />
    <glyph glyph-name="uni0656" unicode="&#x656;" 
d="M-32 -195v195h64v-186z" />
    <glyph glyph-name="uni0658" unicode="&#x658;" 
d="M7 0q-73 0 -104.5 29t-31.5 95v81h73v-79q0 -32 14.5 -46.5t49.5 -14.5h48v140h73v-205h-122zM-18 127l-10 177h64l-10 -171z" />
    <glyph glyph-name="uni0660" unicode="&#x660;" horiz-adv-x="465" 
d="M99 331l133 133l134 -133l-134 -134z" />
    <glyph glyph-name="uni0661" unicode="&#x661;" horiz-adv-x="413" 
d="M296 0h-180v684h180v-684z" />
    <glyph glyph-name="uni0662" unicode="&#x662;" horiz-adv-x="625" 
d="M289 0h-180v684h476v-180h-296v-504z" />
    <glyph glyph-name="uni0663" unicode="&#x663;" horiz-adv-x="811" 
d="M507 485q0 -18 -2 -58q17 -7 36 -7q50 0 50 66v198h180v-227q0 -106 -57.5 -161.5t-157.5 -55.5q-54 0 -111 26q-44 -43 -102 -43q-31 0 -55 8v-231h-180v684h180v-275q17 -6 35 -6q34 0 49 17.5t15 68.5v195h120v-199z" />
    <glyph glyph-name="uni0664" unicode="&#x664;" horiz-adv-x="657" 
d="M586 0h-255q-111 0 -173.5 46t-62.5 132t71 147q-51 81 -51 157q0 101 69 166.5t190 65.5q86 0 213 -48l-48 -163q-85 31 -147 31q-46 0 -71.5 -22.5t-25.5 -54.5q0 -37 11 -58q21 8 58 17l123 30l30 -138l-173 -41q-35 -8 -53 -19t-18 -31q0 -37 73 -37h240v-180z" />
    <glyph glyph-name="uni0665" unicode="&#x665;" horiz-adv-x="683" 
d="M336 -10q-123 0 -199 66t-76 195q0 118 40.5 221t105 161.5t134.5 58.5q102 0 188.5 -123.5t86.5 -317.5q0 -134 -74 -197.5t-206 -63.5zM339 170q50 0 73 29t23 90q0 93 -24.5 158t-71.5 65q-46 0 -72 -65.5t-26 -157.5q0 -119 98 -119z" />
    <glyph glyph-name="uni0666" unicode="&#x666;" horiz-adv-x="625" 
d="M516 0h-180v504h-276v180h456v-684z" />
    <glyph glyph-name="uni0667" unicode="&#x667;" horiz-adv-x="763" 
d="M504 0h-255l-202 684h187l142 -504h4l151 504h186z" />
    <glyph glyph-name="uni0668" unicode="&#x668;" horiz-adv-x="763" 
d="M249 684h255l213 -684h-186l-151 504h-4l-142 -504h-187z" />
    <glyph glyph-name="uni0669" unicode="&#x669;" horiz-adv-x="729" 
d="M620 0h-180v154q-31 -4 -65 -4q-141 0 -222.5 65.5t-81.5 195.5q0 137 99.5 205t260.5 68h189v-684zM374 330q45 0 66 2v172h-53q-136 0 -136 -93q0 -81 123 -81z" />
    <glyph glyph-name="uni066A" unicode="&#x66a;" horiz-adv-x="737" 
d="M93 -125l368 1010h168l-367 -1010h-169zM548 45q-45 0 -79 26.5t-34 69.5q0 44 34.5 71.5t78.5 27.5q45 0 79.5 -27.5t34.5 -71.5q0 -43 -34.5 -69.5t-79.5 -26.5zM188 546q-45 0 -79 26.5t-34 69.5q0 44 34.5 71.5t78.5 27.5q45 0 79.5 -27.5t34.5 -71.5
q0 -43 -34.5 -69.5t-79.5 -26.5z" />
    <glyph glyph-name="uni066B" unicode="&#x66b;" horiz-adv-x="445" 
d="M395 300l-105 -329h-190l149 329h146z" />
    <glyph glyph-name="uni066C" unicode="&#x66c;" horiz-adv-x="445" 
d="M395 790l-105 -329h-190l149 329h146z" />
    <glyph glyph-name="uni066D" unicode="&#x66d;" horiz-adv-x="585" 
d="M562 420l-134 -134l29 -188l-169 86l-169 -86l29 188l-134 134l188 30l86 169l86 -169z" />
    <glyph glyph-name="uni066E" unicode="&#x66e;" horiz-adv-x="891" 
d="M380 0q-178 0 -265 94q-70 77 -70 224v180h180v-160q0 -75 43 -115q47 -43 138 -43h251v397h180v-577h-457z" />
    <glyph glyph-name="uni066F" unicode="&#x66f;" horiz-adv-x="904" 
d="M849 -220h-467q-172 0 -257 81q-78 75 -78 230v211h180v-187q0 -76 41 -115q41 -40 130 -40h271v40q-159 0 -256 72.5t-97 216.5q0 138 96 213t252 75h185v-797zM496 289q0 -55 35.5 -82t91.5 -27h46v217h-40q-55 0 -94 -28t-39 -80z" />
    <glyph glyph-name="uni0670" unicode="&#x670;" 
d="M-32 0v195h64v-186z" />
    <glyph glyph-name="uni06A1" unicode="&#x6a1;" horiz-adv-x="1133" 
d="M1055 0h-653q-178 0 -265 94q-70 77 -70 224v180h180v-160q0 -75 43 -115q47 -43 138 -43h128q-29 50 -29 109q0 130 91 209.5t254 79.5h183v-578zM707 289q0 -68 52 -109h116v218h-49q-50 0 -84.5 -30.5t-34.5 -78.5z" />
    <glyph glyph-name="uni06C2" unicode="&#x6c2;" horiz-adv-x="649" 
d="M394 0q-169 0 -259 73t-90 215q0 137 96 213.5t252 76.5v49h180v-627h-179zM362 701v76q0 68 34.5 96.5t99.5 28.5h66v-45h-58q-48 0 -48 -46v-27h138v-83h-232zM347 180h46v218h-46q-49 0 -85.5 -30.5t-36.5 -79.5q0 -52 34.5 -80t87.5 -28z" />
    <glyph glyph-name="uni06C3" unicode="&#x6c3;" horiz-adv-x="628" 
d="M394 0q-169 0 -259 73t-90 215q0 137 96 213.5t252 76.5v49h180v-627h-179zM347 180h46v218h-46q-49 0 -85.5 -30.5t-36.5 -79.5q0 -52 34.5 -80t87.5 -28zM243 683q-40 0 -67 22t-27 62q0 38 27 61.5t67 23.5t67 -23.5t27 -61.5q0 -40 -27 -62t-67 -22zM476 683
q-39 0 -66 22t-27 62q0 38 26.5 61.5t66.5 23.5q41 0 67.5 -23.5t26.5 -61.5q0 -40 -27 -62t-67 -22z" />
    <glyph glyph-name="uni06D5" unicode="&#x6d5;" horiz-adv-x="628" 
d="M394 0q-169 0 -259 73t-90 215q0 137 96 213.5t252 76.5v49h180v-627h-179zM347 180h46v218h-46q-49 0 -85.5 -30.5t-36.5 -79.5q0 -52 34.5 -80t87.5 -28z" />
    <glyph glyph-name="uni06F0" unicode="&#x6f0;" horiz-adv-x="428" 
d="M81 331l133 133l134 -133l-134 -134z" />
    <glyph glyph-name="uni06F1" unicode="&#x6f1;" horiz-adv-x="365" 
d="M273 0h-180v684h180v-684z" />
    <glyph glyph-name="uni06F2" unicode="&#x6f2;" horiz-adv-x="625" 
d="M289 0h-180v684h476v-180h-296v-504z" />
    <glyph glyph-name="uni06F3" unicode="&#x6f3;" horiz-adv-x="675" 
d="M507 485q0 -18 -2 -58q17 -7 36 -7q50 0 50 66v198h180v-227q0 -106 -57.5 -161.5t-157.5 -55.5q-54 0 -111 26q-44 -43 -102 -43q-31 0 -55 8v-231h-180v684h180v-275q17 -6 35 -6q34 0 49 17.5t15 68.5v195h120v-199z" />
    <glyph glyph-name="uni06F4" unicode="&#x6f4;" horiz-adv-x="799" 
d="M291 0h-180v684h180v-259q50 -12 97 -15q-23 59 -23 112q0 84 51 138.5t146 54.5q59 0 136 -30l-40 -115q-45 17 -72 17q-38 0 -61.5 -24.5t-23.5 -66.5t22 -84q84 11 152 43l60 -165q-160 -61 -278 -61q-90 0 -166 18v-247z" />
    <glyph glyph-name="uni06F5" unicode="&#x6f5;" horiz-adv-x="630" 
d="M235 -10q-79 0 -129 67.5t-50 177.5q0 184 174 363q-36 29 -82 61l100 139q177 -125 257 -226q128 -161 128 -336q0 -110 -51.5 -178t-129.5 -68q-71 0 -108 72q-22 -37 -47 -54.5t-62 -17.5zM355 485l-7 7q-54 -50 -87.5 -112t-33.5 -119q0 -93 46 -93q40 0 40 77h63
q0 -76 38 -76q46 0 46 91q0 113 -105 225z" />
    <glyph glyph-name="uni06F6" unicode="&#x6f6;" horiz-adv-x="658" 
d="M276 0h-180v122q0 111 72 170q-53 94 -53 190q0 101 69 166.5t190 65.5q86 0 213 -48l-48 -163q-85 31 -147 31q-43 0 -70.5 -25t-27.5 -68t25 -81q2 0 3 1l176 44l38 -176l-146 -34q-114 -27 -114 -119v-76z" />
    <glyph glyph-name="uni06F7" unicode="&#x6f7;" horiz-adv-x="590" 
d="M418 0h-255l-202 684h187l142 -504h4l151 504h186z" />
    <glyph glyph-name="uni06F8" unicode="&#x6f8;" horiz-adv-x="590" 
d="M182 684h255l213 -684h-186l-151 504h-4l-142 -504h-187z" />
    <glyph glyph-name="uni06F9" unicode="&#x6f9;" horiz-adv-x="593" 
d="M525 0h-180v154q-31 -4 -65 -4q-141 0 -222.5 65.5t-81.5 195.5q0 137 99.5 205t260.5 68h189v-684zM279 330q45 0 66 2v172h-53q-136 0 -136 -93q0 -81 123 -81z" />
    <glyph glyph-name="endash" unicode="&#x2013;" horiz-adv-x="599" 
d="M50 209v167h500v-167h-500z" />
    <glyph glyph-name="emdash" unicode="&#x2014;" horiz-adv-x="839" 
d="M50 209v167h740v-167h-740z" />
    <glyph glyph-name="quoteleft" unicode="&#x2018;" horiz-adv-x="329" 
d="M308 811l-105 -329h-190l149 329h146z" />
    <glyph glyph-name="quoteright" unicode="&#x2019;" horiz-adv-x="329" 
d="M13 482l105 329h190l-149 -329h-146z" />
    <glyph glyph-name="quotesinglbase" unicode="&#x201a;" horiz-adv-x="329" 
d="M6 -166l105 329h190l-149 -329h-146z" />
    <glyph glyph-name="quotedblleft" unicode="&#x201c;" horiz-adv-x="593" 
d="M571 811l-105 -329h-190l149 329h146zM308 811l-105 -329h-190l149 329h146z" />
    <glyph glyph-name="quotedblright" unicode="&#x201d;" horiz-adv-x="593" 
d="M13 482l105 329h190l-149 -329h-146zM276 482l105 329h190l-149 -329h-146z" />
    <glyph glyph-name="quotedblbase" unicode="&#x201e;" horiz-adv-x="600" 
d="M6 -166l105 329h190l-149 -329h-146zM276 -166l105 329h190l-149 -329h-146z" />
    <glyph glyph-name="dagger" unicode="&#x2020;" horiz-adv-x="699" 
d="M260 0v437h-214v167h214v207h180v-207h213v-167h-213v-437h-180z" />
    <glyph glyph-name="daggerdbl" unicode="&#x2021;" horiz-adv-x="745" 
d="M283 337v143h-214v167h214v164h180v-164h213v-167h-213v-143h213v-167h-213v-170h-180v170h-214v167h214z" />
    <glyph glyph-name="bullet" unicode="&#x2022;" horiz-adv-x="425" 
d="M213 189q-80 0 -134.5 55t-54.5 133q0 79 54.5 134t134.5 55t134 -55t54 -134q0 -78 -54 -133t-134 -55z" />
    <glyph glyph-name="ellipsis" unicode="&#x2026;" horiz-adv-x="979" 
d="M156 -11q-45 0 -79 26.5t-34 69.5q0 44 34.5 71.5t78.5 27.5q45 0 79.5 -27.5t34.5 -71.5q0 -43 -34.5 -69.5t-79.5 -26.5zM489 -11q-45 0 -79 26.5t-34 69.5q0 44 34.5 71.5t78.5 27.5q45 0 79.5 -27.5t34.5 -71.5q0 -43 -34.5 -69.5t-79.5 -26.5zM822 -11
q-45 0 -79 26.5t-34 69.5q0 44 34.5 71.5t78.5 27.5q45 0 79.5 -27.5t34.5 -71.5q0 -43 -34.5 -69.5t-79.5 -26.5z" />
    <glyph glyph-name="perthousand" unicode="&#x2030;" horiz-adv-x="1542" 
d="M236 348q-96 0 -146 63.5t-50 175.5q0 113 50 176.5t146 63.5q95 0 145 -63.5t50 -176.5q0 -112 -50 -175.5t-145 -63.5zM236 446q80 0 80 141q0 143 -80 143q-81 0 -81 -143q0 -141 81 -141zM181 1h153l567 810h-153zM847 -13q-96 0 -146 63.5t-50 175.5q0 113 50 176.5
t146 63.5q95 0 145 -63.5t50 -176.5q0 -112 -50 -175.5t-145 -63.5zM847 85q80 0 80 141q0 143 -80 143q-81 0 -81 -143q0 -141 81 -141zM1307 -13q-96 0 -146 63.5t-50 175.5q0 113 50 176.5t146 63.5q95 0 145 -63.5t50 -176.5q0 -112 -50 -175.5t-145 -63.5zM1307 85
q80 0 80 141q0 143 -80 143q-81 0 -81 -143q0 -141 81 -141z" />
    <glyph glyph-name="guilsinglleft" unicode="&#x2039;" horiz-adv-x="380" 
d="M171 36l-148 258l147 256h187l-140 -256l139 -258h-185z" />
    <glyph glyph-name="guilsinglright" unicode="&#x203a;" horiz-adv-x="380" 
d="M357 294l-148 -258h-185l139 258l-140 256h187z" />
    <glyph glyph-name="fraction" unicode="&#x2044;" horiz-adv-x="640" 
d="M113 1h-153l567 810h153z" />
    <glyph glyph-name="Euro" unicode="&#x20ac;" horiz-adv-x="879" 
d="M44 559h133q40 124 143 196t252 72q155 0 272 -71l-70 -165q-93 60 -194 60q-134 0 -197 -92h294l-54 -107h-279q-2 -14 -2 -45q0 -19 1 -28h234l-54 -107h-151q60 -109 208 -109q101 0 194 60l70 -165q-117 -71 -272 -71q-154 0 -259 77t-142 208h-180l53 107h111
q-1 9 -1 28q0 30 1 45h-164z" />
    <glyph glyph-name="trademark" unicode="&#x2122;" horiz-adv-x="1025" 
d="M168 361v351h-140v99h386v-99h-140v-351h-106zM772 361h-128l-78 362v-362h-106v450h173l75 -355l74 355h172v-450h-105v362z" />
    <glyph glyph-name="Omega" unicode="&#x2126;" horiz-adv-x="922" 
d="M461 827q113 0 203.5 -37t146.5 -114t56 -181q0 -107 -63.5 -184.5t-154.5 -100.5v-43h206v-167h-341v300q83 10 129.5 54t46.5 113q0 87 -65.5 138.5t-163.5 51.5t-164 -51.5t-66 -138.5q0 -69 47 -113t130 -54v-300h-341v167h206v43q-91 23 -154.5 100.5t-63.5 184.5
q0 104 56 181t146.5 114t203.5 37z" />
    <glyph glyph-name="twothirds" unicode="&#x2154;" horiz-adv-x="1169" 
d="M791 754h98l-438 -754h-98zM853 286h13q25 0 40.5 13.5t15.5 36.5q0 20 -14 32.5t-36 12.5q-23 0 -37.5 -15t-14.5 -37h-118q7 70 57 109q48 39 125 39q68 0 112.5 -35t44.5 -96q0 -66 -52 -93q37 -8 58.5 -42.5t21.5 -71.5q0 -70 -56 -109.5t-134 -39.5q-92 0 -146 51
q-24 22 -40.5 53.5t-15.5 59.5h130q0 -28 19 -45q20 -18 49 -18q30 0 49 16.5t19 43.5q0 25 -20 42.5t-47 17.5q-4 0 -7.5 -0.5t-8 -1.5t-7.5 -1v78zM410 449l-76 -66h148v-99h-382l201 201q56 56 56 111q0 22 -16 40t-40 18q-25 0 -39.5 -15.5t-14.5 -39.5q0 -5 2 -19h-140
q3 80 54 126q50 48 137 48q80 0 134.5 -44.5t54.5 -116.5q0 -46 -19 -78t-60 -66z" />
    <glyph glyph-name="partialdiff" unicode="&#x2202;" horiz-adv-x="708" 
d="M354 -13q-130 0 -224.5 85t-94.5 215q0 72 26.5 132t68 96.5t89.5 57t94 20.5q9 0 25 -2l-184 220h232l171 -222q116 -152 116 -302q0 -130 -94.5 -215t-224.5 -85zM221 293q0 -56 36 -93t97 -37t97 37t36 93q0 57 -36 94t-97 37t-97 -37t-36 -94z" />
    <glyph glyph-name="Delta" unicode="&#x2206;" horiz-adv-x="844" 
d="M20 -1l402 842l402 -842h-804zM610 135l-188 394l-186 -394h374z" />
    <glyph glyph-name="product" unicode="&#x220f;" horiz-adv-x="797" 
d="M251 -220h-180v1031h655v-1031h-180v864h-295v-864z" />
    <glyph glyph-name="summation" unicode="&#x2211;" horiz-adv-x="719" 
d="M20 -53l362 349l-362 348v167h679v-167h-466l361 -348l-361 -349h466v-167h-679v167z" />
    <glyph glyph-name="minus" unicode="&#x2212;" horiz-adv-x="621" 
d="M50 209v167h521v-167h-521z" />
    <glyph glyph-name="radical" unicode="&#x221a;" horiz-adv-x="771" 
d="M10 233l250 89l146 -347l160 836h175l-200 -1009h-222l-155 336l-104 -41z" />
    <glyph glyph-name="infinity" unicode="&#x221e;" horiz-adv-x="917" 
d="M673 509q99 0 161.5 -59.5t62.5 -152.5q0 -94 -61.5 -153.5t-160.5 -59.5q-66 0 -116.5 28.5t-98.5 79.5q-103 -107 -220 -107q-97 0 -158.5 59.5t-61.5 152.5t63.5 152.5t163.5 59.5q111 0 210 -102q96 102 216 102zM253 367q-35 0 -58.5 -19t-23.5 -49t22.5 -50.5
t57.5 -20.5q59 0 118 71q-60 68 -116 68zM667 367q-58 0 -116 -69q61 -70 118 -70q34 0 56.5 19.5t22.5 49.5t-22.5 50t-58.5 20z" />
    <glyph glyph-name="integral" unicode="&#x222b;" horiz-adv-x="440" 
d="M310 588v-625q0 -102 -53.5 -142.5t-185.5 -40.5h-51v167h47q63 0 63 56v625q0 102 53.5 142.5t185.5 40.5h51v-167h-47q-63 0 -63 -56z" />
    <glyph glyph-name="approxequal" unicode="&#x2248;" horiz-adv-x="654" 
d="M435 445q25 0 38 16.5t16 56.5h116q-6 -210 -148 -210q-51 0 -131 37t-106 37q-25 0 -38.5 -16.5t-15.5 -56.5h-116q5 210 149 210q42 0 90.5 -18.5t87.5 -37t58 -18.5zM435 191q25 0 38 17t16 57h116q-6 -210 -148 -210q-51 0 -131 37t-106 37q-50 0 -54 -74h-116
q5 210 149 210q42 0 90.5 -18.5t87.5 -37t58 -18.5z" />
    <glyph glyph-name="notequal" unicode="&#x2260;" horiz-adv-x="621" 
d="M50 346v167h374l79 125h68l-79 -125h79v-167h-184l-67 -106h251v-168h-357l-96 -152h-69l96 152h-95v168h201l67 106h-268z" />
    <glyph glyph-name="lessequal" unicode="&#x2264;" horiz-adv-x="677" 
d="M231 380l392 -84v-147l-568 139v184l568 139v-147zM55 0v133h568v-133h-568z" />
    <glyph glyph-name="greaterequal" unicode="&#x2265;" horiz-adv-x="677" 
d="M55 296l391 84l-391 84v147l568 -139v-184l-568 -139v147zM623 133v-133h-568v133h568z" />
    <glyph glyph-name="lozenge" unicode="&#x25ca;" horiz-adv-x="641" 
d="M324 607l-143 -229l143 -228l143 228zM11 378l312 478l306 -478l-306 -477z" />
    <glyph glyph-name="uni25CC" unicode="&#x25cc;" horiz-adv-x="685" 
d="M311 448q0 13 9.5 22t22.5 9t22 -9t9 -22t-9 -22.5t-22 -9.5t-22.5 9t-9.5 23zM207 423q0 13 9.5 22t22.5 9t22 -9t9 -22t-9 -22.5t-22 -9.5t-22.5 9.5t-9.5 22.5zM418 423q0 13 9 22t22 9t22 -9t9 -22q0 -14 -9 -23t-22 -9t-22 9.5t-9 22.5zM498 341q0 13 9 22t22 9
t22 -9t9 -22t-9 -22t-22 -9t-22 9t-9 22zM129 341q0 13 9 22t22 9t22 -9t9 -22t-9 -22t-22 -9t-22 9t-9 22zM100 233q0 13 9 22t22 9t22 -9t9 -22t-9 -22t-22 -9t-22 9t-9 22zM523 233q0 13 9 22t22 9t22 -9t9 -22t-9 -22t-22 -9t-22 9t-9 22zM498 128q0 13 9 22t22 9t22 -9
t9 -22t-9 -22t-22 -9t-22 9t-9 22zM129 128q0 13 9 22t22 9t22 -9t9 -22t-9 -22t-22 -9t-22 9t-9 22zM207 51q0 13 9.5 22t22.5 9t22 -9t9 -22t-9 -22t-22 -9q-14 0 -23 9t-9 22zM418 51q0 13 9 22t22 9t22 -9t9 -22t-9 -22t-22 -9t-22 9t-9 22zM311 22q0 13 9 22t23 9
q13 0 22 -9t9 -22t-9 -22t-22 -9t-22.5 9t-9.5 22z" />
    <glyph glyph-name="uni274A" unicode="&#x274a;" horiz-adv-x="550" 
d="M247 545v-15q-45 -20 -118 -20q-67 0 -119 20v16q42 21 119 21q63 0 118 -22zM540 545v-15q-45 -20 -118 -20q-69 0 -119 20v16q42 21 119 21q61 0 118 -22zM268 510h15q20 -45 20 -118q0 -67 -20 -119h-16q-21 42 -21 119q0 63 22 118zM268 803h15q20 -45 20 -118
q0 -69 -20 -119h-16q-21 42 -21 119q0 61 22 118zM250 523l11 -10q-21 -51 -69 -98q-49 -48 -98 -70l-12 12q15 44 70 98q44 46 98 68zM457 730l11 -11q-19 -46 -70 -97q-45 -47 -98 -70l-11 11q15 46 69 100q42 42 99 67zM290 513l10 11q51 -21 98 -69q48 -49 70 -98
l-12 -12q-44 15 -98 70q-46 44 -68 98zM83 720l11 11q46 -19 97 -70q47 -45 70 -98l-11 -11q-46 15 -100 69q-42 42 -67 99z" />
    <glyph glyph-name="apple" unicode="&#xf8ff;" horiz-adv-x="849" 
d="M230 870v-40h-40v40h40zM368 221v590h110v-677h-72v-314h33v53h39v-93h-110v395h71v597h-33v-551h-38zM295 -180v993h39v-1033h-180v40h141zM154 -149v213h-54v39h93v-213h32v244h-71v677h110v-960h-110zM225 772h-32v-597h32v597zM520 -220v1032h105v-17h-90v-1015h-15z
M749 -220h-16v366h-72v666h88v-1032zM733 795h-55v-634h55v634z" />
    <glyph glyph-name="fi" unicode="&#xfb01;" horiz-adv-x="842" 
d="M15 410v167h100v51q0 102 53.5 142.5t185.5 40.5h151v-167h-147q-63 0 -63 -56v-11h208v-167h-208v-410h-180v410h-100zM591 0v577h180v-577h-180zM681 639q-42 0 -70.5 23.5t-28.5 66.5q0 39 28 63.5t71 24.5t71 -24.5t28 -63.5q0 -43 -28.5 -66.5t-70.5 -23.5z" />
    <glyph glyph-name="fl" unicode="&#xfb02;" horiz-adv-x="842" 
d="M15 410v167h100v51q0 102 53.5 142.5t185.5 40.5h151v-167h-147q-63 0 -63 -56v-11h208v-167h-208v-410h-180v410h-100zM771 0h-180v811h180v-811z" />
    <glyph glyph-name="uniFD3E" unicode="&#xfd3e;" horiz-adv-x="387" 
d="M302 -220q-114 0 -155.5 37t-41.5 146v147q0 60 -17 91t-68 32v126q51 1 68 32t17 92v145q0 109 41.5 146t155.5 37h74v-126h-40q-35 0 -43 -11t-8 -51v-160q0 -80 -27 -116t-77 -49v-2q50 -14 77 -50t27 -116v-162q0 -41 8 -52t43 -11h40v-125h-74z" />
    <glyph glyph-name="uniFD3F" unicode="&#xfd3f;" horiz-adv-x="387" 
d="M85 -220h-74v125h29q38 0 50 12.5t12 50.5v162q0 80 27 116t77 50v2q-50 13 -77 49t-27 116v160q0 38 -12 50t-50 12h-29v126h74q114 0 155.5 -37t41.5 -146v-145q0 -61 17 -92t68 -32v-126q-51 -1 -68 -32t-17 -91v-147q0 -109 -41.5 -146t-155.5 -37z" />
    <glyph glyph-name="CR" horiz-adv-x="500" 
 />
    <glyph glyph-name="uni0627.short" horiz-adv-x="357" 
d="M110 0v690h180v-690h-180z" />
    <glyph glyph-name="uni0627.shortfina" horiz-adv-x="380" 
d="M110 0v690h180v-510h110v-180h-290z" />
    <glyph glyph-name="uni066E.initalt" horiz-adv-x="449" 
d="M0 0v180h214v397h180v-577h-394z" />
    <glyph glyph-name="uni066E.medialt" horiz-adv-x="545" 
d="M0 0v180h214v397h180v-397h171v-180h-565z" />
    <glyph glyph-name="uni06C3.fina" horiz-adv-x="655" 
d="M636 0h-273v400h-41q-46 0 -72 -22q-31 -23 -31 -75v-166h-180v140q0 167 96 242q77 59 214 59h194v-398h93v-180zM228 683q-40 0 -67 22t-27 62q0 38 27 61.5t67 23.5t67 -23.5t27 -61.5q0 -40 -27 -62t-67 -22zM461 683q-39 0 -66 22t-27 62q0 38 26.5 61.5t66.5 23.5
q41 0 67.5 -23.5t26.5 -61.5q0 -40 -27 -62t-67 -22z" />
    <glyph glyph-name="uni06BA.init" horiz-adv-x="349" 
d="M202 644q-42 0 -70.5 23t-28.5 66q0 39 28 63.5t71 24.5t71 -24.5t28 -63.5q0 -43 -28.5 -66t-70.5 -23zM0 0v180h114v397h180v-577h-294z" />
    <glyph glyph-name="uni06BA.medi" horiz-adv-x="372" 
d="M0 0v180h114v397h180v-397h97v-180h-391zM201 644q-42 0 -70.5 23t-28.5 66q0 39 28 63.5t71 24.5t71 -24.5t28 -63.5q0 -43 -28.5 -66t-70.5 -23z" />
    <glyph glyph-name="uni06C2.fina" horiz-adv-x="655" 
d="M636 0h-273v400h-41q-46 0 -72 -22q-31 -23 -31 -75v-166h-180v140q0 167 96 242q77 59 214 59h194v-398h93v-180zM311 651v76q0 68 34.5 96.5t99.5 28.5h66v-45h-58q-48 0 -48 -46v-27h138v-83h-232z" />
    <glyph glyph-name="wasle" horiz-adv-x="84" 
d="M-56 0l58 180h102v-180h-160z" />
    <glyph glyph-name="wasle_alt" horiz-adv-x="158" 
d="M-56 0l58 180h176v-180h-234z" />
    <glyph glyph-name="uni0654.medi" horiz-adv-x="335" 
d="M48 606v76q0 68 34.5 96.5t99.5 28.5h66v-45h-58q-48 0 -48 -46v-27h138v-83h-232z" />
    <glyph glyph-name="uni0654064B" 
d="M-105 0v49q0 68 34.5 96.5t99.5 28.5h56v-45h-48q-48 0 -48 -46h128v-83h-222zM-116 188v55l224 32v-55zM-117 276v55l224 32v-55z" />
    <glyph glyph-name="uni0654064E" 
d="M-115 193v58l224 32v-58zM-106 0v49q0 68 34.5 96.5t99.5 28.5h56v-45h-48q-48 0 -48 -46h128v-83h-222z" />
    <glyph glyph-name="uni0654064C" 
d="M-95 183l-44 112l54 21l25 -69l41 7q-5 17 -5 29q0 36 21 62t63 26q36 0 58 -23.5t22 -61.5q0 -35 -6 -66zM-85 0v49q0 68 34.5 96.5t99.5 28.5h56v-45h-48q-48 0 -48 -46h128v-83h-222zM25 284q0 -13 3 -22l54 9q2 6 2 13q0 13 -7.5 21.5t-21.5 8.5q-12 0 -21 -8.5
t-9 -21.5z" />
    <glyph glyph-name="uni0654064F" 
d="M-101 0v49q0 68 34.5 96.5t99.5 28.5h56v-45h-48q-48 0 -48 -46h128v-83h-222zM-113 184l-7 55l76 13q-5 17 -5 29q0 36 21 62t63 26q36 0 58 -23.5t22 -61.5q0 -35 -6 -66zM0 282q0 -13 3 -22l54 9q2 6 2 13q0 13 -7.5 21.5t-21.5 8.5q-12 0 -21 -8.5t-9 -21.5z" />
    <glyph glyph-name="uni06540652" 
d="M-3 192q-83 0 -83 93q0 44 25 69.5t65 25.5q41 0 63.5 -25.5t22.5 -69.5q0 -43 -26 -68t-67 -25zM1 247q33 0 33 37q0 40 -33 40q-12 0 -22 -9.5t-10 -28.5q0 -39 32 -39zM-111 0v49q0 68 34.5 96.5t99.5 28.5h56v-45h-48q-48 0 -48 -46h128v-83h-222z" />
    <glyph glyph-name="uni0654064D" 
d="M-106 -353v55l224 32v-55zM-107 -265v55l224 32v-55zM-117 -174v49q0 68 34.5 96.5t99.5 28.5h56v-45h-48q-48 0 -48 -46h128v-83h-222z" />
    <glyph glyph-name="uni06550650" 
d="M-117 -174v49q0 68 34.5 96.5t99.5 28.5h56v-45h-48q-48 0 -48 -46h128v-83h-222zM-107 -279v58l224 32v-58z" />
    <glyph glyph-name="wasla" 
d="M-146 0v73h75q0 37 25.5 62t68.5 25q58 0 91 -30.5t33 -89.5v-40h-293zM19 115q-19 0 -32 -12t-13 -30h89q0 18 -12.5 30t-31.5 12z" />
    <glyph glyph-name="uni0651064B" 
d="M-52 0q-62 0 -75 66l-12 60l56 11l11 -57q5 -25 24 -25q26 0 26 37q0 1 -7 55l56 8l11 -58q5 -21 23 -21q24 0 24 25q0 27 -15 68l57 13q13 -56 13 -76q0 -41 -22 -62.5t-61 -21.5q-26 0 -42 20q-23 -42 -67 -42zM-123 165v55l224 32v-55zM-124 253v55l224 32v-55z" />
    <glyph glyph-name="uni06F4.urdu" horiz-adv-x="740" 
d="M289 0h-180v684h180l196 -170l200 170v-234l-200 -161l-196 156v-445z" />
    <glyph glyph-name="uni06F7.urdu" horiz-adv-x="568" 
d="M513 0h-458v181l215 503h191l-209 -504h261v-180z" />
    <glyph glyph-name="acute.case" horiz-adv-x="325" 
d="M305 984l-141 -139h-144l114 139h171z" />
    <glyph glyph-name="circumflex.case" horiz-adv-x="477" 
d="M334 984l123 -139h-146l-71 76l-73 -76h-147l126 139h188z" />
    <glyph glyph-name="dieresis.case" horiz-adv-x="485" 
d="M108 845q-37 0 -62.5 21t-25.5 59q0 35 25 57t63 22q39 0 64 -21.5t25 -57.5q0 -38 -26 -59t-63 -21zM376 845q-37 0 -62.5 21t-25.5 59q0 35 25 57t63 22q39 0 64 -21.5t25 -57.5q0 -38 -26 -59t-63 -21z" />
    <glyph glyph-name="grave.case" horiz-adv-x="325" 
d="M161 845l-141 139h171l114 -139h-144z" />
    <glyph glyph-name="ring.case" horiz-adv-x="259" 
d="M130 1053q46 0 77.5 -29.5t31.5 -74.5t-31.5 -74.5t-77.5 -29.5t-78 29.5t-32 74.5t32 74.5t78 29.5zM130 1003q-23 0 -39 -15t-16 -39q0 -23 16 -38t39 -15q22 0 38 15t16 38t-16 38.5t-38 15.5z" />
    <glyph glyph-name="tilde.case" horiz-adv-x="423" 
d="M276 936q22 0 32 11.5t15 37.5h80q-4 -68 -36 -104t-81 -36q-35 0 -78 24.5t-62 24.5q-22 0 -31.5 -11.5t-13.5 -37.5h-81q4 63 36.5 101.5t81.5 38.5q36 0 77 -24.5t61 -24.5z" />
    <glyph glyph-name="cedilla.case" horiz-adv-x="253" 
d="M24 -209l-4 67q51 -18 84 -18q58 0 58 29q0 32 -62 32q-35 0 -73 -9l68 116h66l-34 -56q41 0 73.5 -18.5t32.5 -60.5q0 -49 -35.5 -72.5t-89.5 -23.5q-46 0 -84 14z" />
    <glyph glyph-name="caron.case" horiz-adv-x="477" 
d="M153 845l-133 139h136l81 -76l83 76h137l-136 -139h-168z" />
    <glyph glyph-name="macron.case" horiz-adv-x="333" 
d="M313 863h-293v105h293v-105z" />
    <glyph glyph-name="breve.case" horiz-adv-x="397" 
d="M377 994q-5 -72 -53 -110.5t-127 -38.5q-77 0 -125 39t-52 110h87q3 -33 29.5 -48t61.5 -15t62 15t31 48h86z" />
    <glyph glyph-name="dotaccent.case" horiz-adv-x="217" 
d="M108 845q-37 0 -62.5 21t-25.5 59q0 35 25 57t63 22q39 0 64 -21.5t25 -57.5q0 -38 -26 -59t-63 -21z" />
    <glyph glyph-name="hungarumlaut.case" horiz-adv-x="569" 
d="M305 984l-141 -139h-144l114 139h171zM549 984l-140 -139h-145l114 139h171z" />
    </font>
</defs>
</svg>
